{
classes = (
{
automatic = 1;
code = "A B C D E F G H I J K L M N O P Q R S T U V W X Y Z Agrave Aacute Acircumflex Atilde Adieresis Aring AE Ccedilla Egrave Eacute Ecircumflex Edieresis Igrave Iacute Icircumflex Idieresis Eth Ntilde Ograve Oacute Ocircumflex Otilde Odieresis Oslash Ugrave Uacute Ucircumflex Udieresis Yacute Thorn Cacute Ccaron Gbreve Idotaccent Lslash OE Scedilla Scaron Ydieresis Zcaron Omega Delta";
name = Uppercase;
}
);
copyright = "Original Fonts are \U00A9 Bitstream. OpenDyslexic changes and additional glyphs by Abelardo Gonzalez are licensed under a Creative Commons Attribution 3.0 Unported License.\012Based on a work at http://dyslexicfonts.com. \U26612012 by Abelardo Gonzalez. Copying is an act of love. Please copy.\012Bitstream license available here: http://opendyslexic.org/legal/";
customParameters = (
{
name = glyphOrder;
value = (
    ".notdef",
    uni0000,
    uni000D,
    NULL,
    space,
    exclam,
    quotedbl,
    numbersign,
    dollar,
    percent,
    ampersand,
    quotesingle,
    parenleft,
    parenright,
    asterisk,
    plus,
    comma,
    hyphen,
    period,
    slash,
    zero,
    one,
    two,
    three,
    four,
    five,
    six,
    seven,
    eight,
    nine,
    colon,
    semicolon,
    less,
    equal,
    greater,
    question,
    at,
    A,
    B,
    C,
    D,
    E,
    F,
    G,
    H,
    I,
    J,
    K,
    L,
    M,
    N,
    O,
    P,
    Q,
    R,
    S,
    T,
    U,
    V,
    W,
    X,
    Y,
    Z,
    bracketleft,
    backslash,
    bracketright,
    asciicircum,
    underscore,
    grave,
    a,
    b,
    c,
    d,
    e,
    f,
    g,
    h,
    i,
    j,
    k,
    l,
    m,
    n,
    o,
    p,
    q,
    r,
    s,
    t,
    u,
    v,
    w,
    x,
    y,
    z,
    braceleft,
    bar,
    braceright,
    asciitilde,
    uni00A0,
    exclamdown,
    cent,
    sterling,
    currency,
    yen,
    brokenbar,
    section,
    dieresis,
    copyright,
    ordfeminine,

glyphs = (
{
glyphname = .notdef;
lastChange = "2012-10-20 12:59:19 -0400";
layers = (
{
layerId = "16808965-E153-4B2B-ADB3-00196C646C32";
name = "Regular Italic";
paths = (
{
closed = 1;
nodes = (
"276 245 OFFCURVE",
"326 837 OFFCURVE",
"337 1434 CURVE",
"498 1409 OFFCURVE",
"658 1397 OFFCURVE",
"825 1397 CURVE SMOOTH",
"998 1397 OFFCURVE",
"1168 1410 OFFCURVE",
"1341 1434 CURVE",
"1245 837 OFFCURVE",
"1190 245 OFFCURVE",
"1185 -352 CURVE",
"1020 -329 OFFCURVE",
"855 -318 OFFCURVE",
"686 -318 CURVE SMOOTH",
"517 -318 OFFCURVE",
"350 -329 OFFCURVE",
"181 -352 CURVE"
);
},
{
closed = 1;
nodes = (
"446 -59 OFFCURVE",
"579 -54 OFFCURVE",
"712 -54 CURVE SMOOTH",
"841 -54 OFFCURVE",
"970 -59 OFFCURVE",
"1099 -69 CURVE",
"1122 399 OFFCURVE",
"1164 858 OFFCURVE",
"1232 1326 CURVE",
"1093 1312 OFFCURVE",
"954 1305 OFFCURVE",
"817 1305 CURVE SMOOTH",
"685 1305 OFFCURVE",
"556 1310 OFFCURVE",
"427 1325 CURVE",
"410 860 OFFCURVE",
"372 396 OFFCURVE",
"313 -69 CURVE"
);
}
);
width = 1528;
}
);
},
{
glyphname = exclam;
lastChange = "2012-10-20 12:59:19 -0400";
layers = (
{
layerId = "16808965-E153-4B2B-ADB3-00196C646C32";
name = "Regular Italic";
paths = (
{
closed = 1;
nodes = (
"264 260 OFFCURVE",
"296 264 OFFCURVE",
"327 264 CURVE SMOOTH",
"357 264 OFFCURVE",
"388 260 OFFCURVE",
"419 253 CURVE",
"419 219 LINE SMOOTH",
"419 185 OFFCURVE",
"419 151 OFFCURVE",
"420 117 CURVE SMOOTH",
"421 83 OFFCURVE",
"421 49 OFFCURVE",
"422 14 CURVE",
"387 30 OFFCURVE",
"348 38 OFFCURVE",
"307 38 CURVE SMOOTH",
"266 38 OFFCURVE",
"226 30 OFFCURVE",
"188 14 CURVE",
"195 54 OFFCURVE",
"203 94 OFFCURVE",
"210 134 CURVE SMOOTH",
"217 173 OFFCURVE",
"224 213 OFFCURVE",
"231 253 CURVE"
);
},
{
closed = 1;
nodes = (
"370 1458 OFFCURVE",
"397 1454 OFFCURVE",
"426 1454 CURVE SMOOTH",
"457 1454 OFFCURVE",
"488 1457 OFFCURVE",
"519 1468 CURVE",
"499 1256 OFFCURVE",
"484 1048 OFFCURVE",
"468 836 CURVE",
"468 786 OFFCURVE",
"468 737 OFFCURVE",
"467 688 CURVE SMOOTH",
"466 639 OFFCURVE",
"466 590 OFFCURVE",
"466 541 CURVE SMOOTH",
"466 492 LINE",
"428 498 OFFCURVE",
"389 501 OFFCURVE",
"350 501 CURVE SMOOTH",
"309 501 OFFCURVE",
"269 498 OFFCURVE",
"228 492 CURVE",
"276 817 OFFCURVE",
"309 1139 OFFCURVE",
"344 1466 CURVE"
);
}
);
width = 687;
}
);
unicode = 0021;
},
{
glyphname = quotedbl;
lastChange = "2012-10-20 12:59:19 -0400";
layers = (
{
layerId = "16808965-E153-4B2B-ADB3-00196C646C32";
name = "Regular Italic";
paths = (
{
closed = 1;
nodes = (
"501 1291 OFFCURVE",
"492 1110 OFFCURVE",
"469 926 CURVE",
"408 923 OFFCURVE",
"347 921 OFFCURVE",
"287 916 CURVE",
"328 1091 OFFCURVE",
"347 1268 OFFCURVE",
"347 1445 CURVE SMOOTH",
"347 1483 LINE",
"374 1480 OFFCURVE",
"400 1479 OFFCURVE",
"426 1478 CURVE SMOOTH",
"452 1477 OFFCURVE",
"478 1475 OFFCURVE",
"504 1474 CURVE"
);
},
{
closed = 1;
nodes = (
"879 1342 OFFCURVE",
"864 1199 OFFCURVE",
"864 1056 CURVE SMOOTH",
"864 1009 OFFCURVE",
"865 963 OFFCURVE",
"869 916 CURVE",
"839 919 OFFCURVE",
"809 921 OFFCURVE",
"779 922 CURVE SMOOTH",
"749 923 OFFCURVE",
"719 925 OFFCURVE",
"689 926 CURVE",
"697 1110 OFFCURVE",
"716 1291 OFFCURVE",
"747 1475 CURVE",
"774 1475 OFFCURVE",
"800 1476 OFFCURVE",
"827 1478 CURVE SMOOTH",
"854 1480 OFFCURVE",
"880 1482 OFFCURVE",
"907 1483 CURVE"
);
}
);
width = 942;
}
);
unicode = 0022;
},
{
glyphname = numbersign;
lastChange = "2012-10-20 12:59:19 -0400";
layers = (
{
layerId = "16808965-E153-4B2B-ADB3-00196C646C32";
name = "Regular Italic";
paths = (
{
closed = 1;
nodes = (
"971 903 OFFCURVE",
"922 903 OFFCURVE",
"873 903 CURVE SMOOTH",
"824 903 OFFCURVE",
"775 903 OFFCURVE",
"725 902 CURVE",
"688 789 OFFCURVE",
"651 675 OFFCURVE",
"612 562 CURVE",
"652 562 OFFCURVE",
"692 562 OFFCURVE",
"731 563 CURVE SMOOTH",
"770 563 OFFCURVE",
"809 563 OFFCURVE",
"849 563 CURVE SMOOTH",
"908 563 LINE",
"926 620 OFFCURVE",
"945 677 OFFCURVE",
"964 734 CURVE SMOOTH",
"983 790 OFFCURVE",
"1001 846 OFFCURVE",
"1020 903 CURVE"
);
},
{
closed = 1;
nodes = (
"903 1431 LINE",
"856 1298 OFFCURVE",
"810 1166 OFFCURVE",
"767 1031 CURVE",
"817 1031 OFFCURVE",
"867 1031 OFFCURVE",
"916 1031 CURVE SMOOTH",
"965 1031 OFFCURVE",
"1014 1031 OFFCURVE",
"1064 1032 CURVE",
"1112 1169 OFFCURVE",
"1162 1302 OFFCURVE",
"1218 1437 CURVE",
"1241 1438 OFFCURVE",
"1265 1440 OFFCURVE",
"1288 1441 CURVE SMOOTH",
"1311 1442 OFFCURVE",
"1335 1443 OFFCURVE",
"1358 1444 CURVE",
"1301 1308 OFFCURVE",
"1246 1173 OFFCURVE",
"1198 1034 CURVE",
"1298 1036 OFFCURVE",
"1398 1039 OFFCURVE",
"1497 1043 CURVE",
"1494 1021 OFFCURVE",
"1491 999 OFFCURVE",
"1488 977 CURVE SMOOTH",
"1485 954 OFFCURVE",
"1482 932 OFFCURVE",
"1479 910 CURVE",
"1370 907 OFFCURVE",
"1260 906 OFFCURVE",
"1151 905 CURVE",
"1113 791 OFFCURVE",
"1076 677 OFFCURVE",
"1040 563 CURVE",
"1140 562 OFFCURVE",
"1240 560 OFFCURVE",
"1340 559 CURVE",
"1339 538 OFFCURVE",
"1337 516 OFFCURVE",
"1336 494 CURVE SMOOTH",
"1335 472 OFFCURVE",
"1333 450 OFFCURVE",
"1332 429 CURVE",
"1275 430 OFFCURVE",
"1220 431 OFFCURVE",
"1165 432 CURVE SMOOTH",
"1110 433 OFFCURVE",
"1054 434 OFFCURVE",
"998 435 CURVE",
"977 368 OFFCURVE",
"956 301 OFFCURVE",
"935 236 CURVE SMOOTH",
"913 170 OFFCURVE",
"892 103 OFFCURVE",
"873 36 CURVE",
"862 37 OFFCURVE",
"850 37 OFFCURVE",
"839 37 CURVE SMOOTH",
"827 37 OFFCURVE",
"815 37 OFFCURVE",
"803 37 CURVE SMOOTH",
"734 37 LINE",
"755 104 OFFCURVE",
"777 170 OFFCURVE",
"800 237 CURVE SMOOTH",
"822 303 OFFCURVE",
"844 369 OFFCURVE",
"865 436 CURVE",
"815 436 OFFCURVE",
"765 436 OFFCURVE",
"716 436 CURVE SMOOTH",
"667 436 OFFCURVE",
"617 435 OFFCURVE",
"567 434 CURVE",
"520 297 OFFCURVE",
"469 166 OFFCURVE",
"417 31 CURVE",
"394 30 OFFCURVE",
"370 29 OFFCURVE",
"347 28 CURVE SMOOTH",
"324 27 OFFCURVE",
"300 26 OFFCURVE",
"277 25 CURVE",
"334 160 OFFCURVE",
"386 296 OFFCURVE",
"434 433 CURVE",
"384 432 OFFCURVE",
"334 430 OFFCURVE",
"285 429 CURVE SMOOTH",
"235 428 OFFCURVE",
"185 426 OFFCURVE",
"135 425 CURVE",
"138 447 OFFCURVE",
"141 469 OFFCURVE",
"143 491 CURVE SMOOTH",
"145 513 OFFCURVE",
"148 535 OFFCURVE",
"151 557 CURVE",
"206 558 OFFCURVE",
"260 559 OFFCURVE",
"315 559 CURVE SMOOTH",
"369 559 OFFCURVE",
"424 560 OFFCURVE",
"479 561 CURVE",
"518 676 OFFCURVE",
"556 789 OFFCURVE",
"593 904 CURVE",
"490 904 OFFCURVE",
"391 905 OFFCURVE",
"288 908 CURVE",
"289 930 OFFCURVE",
"291 952 OFFCURVE",
"292 974 CURVE SMOOTH",
"293 995 OFFCURVE",
"294 1017 OFFCURVE",
"295 1039 CURVE",
"352 1036 OFFCURVE",
"408 1035 OFFCURVE",
"465 1034 CURVE SMOOTH",
"522 1033 OFFCURVE",
"578 1033 OFFCURVE",
"635 1032 CURVE",
"656 1099 OFFCURVE",
"677 1165 OFFCURVE",
"698 1232 CURVE SMOOTH",
"719 1298 OFFCURVE",
"741 1364 OFFCURVE",
"762 1431 CURVE"
);
}
);
width = 1553;
}
);
unicode = 0023;
},
{
glyphname = dollar;
lastChange = "2012-10-20 12:59:19 -0400";
layers = (
{
layerId = "16808965-E153-4B2B-ADB3-00196C646C32";
name = "Regular Italic";
paths = (
{
closed = 1;
nodes = (
"588 -247 OFFCURVE",
"535 -247 OFFCURVE",
"482 -247 CURVE",
"499 -150 OFFCURVE",
"516 -54 OFFCURVE",
"532 43 CURVE",
"399 47 OFFCURVE",
"269 67 OFFCURVE",
"149 116 CURVE",
"154 152 OFFCURVE",
"159 188 OFFCURVE",
"164 224 CURVE SMOOTH",
"169 259 OFFCURVE",
"173 295 OFFCURVE",
"176 331 CURVE",
"285 258 OFFCURVE",
"416 221 OFFCURVE",
"553 218 CURVE",
"560 285 OFFCURVE",
"567 351 OFFCURVE",
"574 416 CURVE SMOOTH",
"581 481 OFFCURVE",
"587 547 OFFCURVE",
"594 614 CURVE",
"543 623 OFFCURVE",
"492 636 OFFCURVE",
"444 656 CURVE SMOOTH",
"396 675 OFFCURVE",
"352 701 OFFCURVE",
"316 738 CURVE SMOOTH",
"259 798 OFFCURVE",
"242 886 OFFCURVE",
"242 970 CURVE",
"245 1022 OFFCURVE",
"262 1076 OFFCURVE",
"291 1122 CURVE SMOOTH",
"319 1168 OFFCURVE",
"359 1206 OFFCURVE",
"410 1230 CURVE SMOOTH",
"505 1274 OFFCURVE",
"589 1285 OFFCURVE",
"673 1290 CURVE",
"677 1328 OFFCURVE",
"681 1366 OFFCURVE",
"686 1405 CURVE SMOOTH",
"690 1443 OFFCURVE",
"694 1481 OFFCURVE",
"697 1519 CURVE",
"710 1519 OFFCURVE",
"724 1519 OFFCURVE",
"737 1518 CURVE SMOOTH",
"750 1517 OFFCURVE",
"764 1517 OFFCURVE",
"777 1517 CURVE",
"752 1292 LINE",
"865 1288 OFFCURVE",
"976 1277 OFFCURVE",
"1084 1248 CURVE",
"1081 1226 OFFCURVE",
"1078 1204 OFFCURVE",
"1075 1182 CURVE SMOOTH",
"1072 1160 OFFCURVE",
"1068 1138 OFFCURVE",
"1065 1116 CURVE",
"966 1167 OFFCURVE",
"853 1186 OFFCURVE",
"740 1191 CURVE",
"723 1035 OFFCURVE",
"707 881 OFFCURVE",
"691 725 CURVE",
"743 714 OFFCURVE",
"798 704 OFFCURVE",
"850 687 CURVE SMOOTH",
"902 670 OFFCURVE",
"951 647 OFFCURVE",
"991 611 CURVE SMOOTH",
"1050 558 OFFCURVE",
"1070 473 OFFCURVE",
"1070 393 CURVE SMOOTH",
"1070 346 OFFCURVE",
"1059 296 OFFCURVE",
"1037 251 CURVE SMOOTH",
"1015 206 OFFCURVE",
"984 163 OFFCURVE",
"945 134 CURVE SMOOTH",
"857 71 OFFCURVE",
"751 47 OFFCURVE",
"648 42 CURVE",
"647 -7 OFFCURVE",
"645 -55 OFFCURVE",
"644 -104 CURVE SMOOTH",
"643 -153 OFFCURVE",
"642 -201 OFFCURVE",
"641 -250 CURVE"
);
},
{
closed = 1;
nodes = (
"601 743 LINE",
"608 818 OFFCURVE",
"616 892 OFFCURVE",
"624 965 CURVE SMOOTH",
"632 1038 OFFCURVE",
"640 1111 OFFCURVE",
"647 1185 CURVE",
"574 1177 OFFCURVE",
"496 1162 OFFCURVE",
"436 1113 CURVE SMOOTH",
"381 1069 OFFCURVE",
"355 1008 OFFCURVE",
"355 941 CURVE SMOOTH",
"355 880 OFFCURVE",
"385 831 OFFCURVE",
"430 796 CURVE SMOOTH",
"474 761 OFFCURVE",
"532 739 OFFCURVE",
"588 734 CURVE"
);
},
{
closed = 1;
nodes = (
"670 579 LINE",
"665 517 OFFCURVE",
"662 456 OFFCURVE",
"659 395 CURVE SMOOTH",
"656 334 OFFCURVE",
"652 272 OFFCURVE",
"648 210 CURVE",
"708 219 OFFCURVE",
"768 230 OFFCURVE",
"825 251 CURVE",
"857 260 OFFCURVE",
"877 283 OFFCURVE",
"889 310 CURVE SMOOTH",
"900 337 OFFCURVE",
"904 367 OFFCURVE",
"904 394 CURVE SMOOTH",
"904 451 OFFCURVE",
"875 496 OFFCURVE",
"832 529 CURVE SMOOTH",
"789 561 OFFCURVE",
"734 580 OFFCURVE",
"682 588 CURVE"
);
}
);
width = 1261;
}
);
unicode = 0024;
},
{
glyphname = percent;
lastChange = "2012-10-20 12:59:19 -0400";
layers = (
{
layerId = "16808965-E153-4B2B-ADB3-00196C646C32";
name = "Regular Italic";
paths = (
{
closed = 1;
nodes = (
"1454 669 OFFCURVE",
"1403 625 OFFCURVE",
"1372 566 CURVE SMOOTH",
"1340 506 OFFCURVE",
"1328 432 OFFCURVE",
"1328 372 CURVE SMOOTH",
"1328 313 OFFCURVE",
"1343 256 OFFCURVE",
"1375 213 CURVE SMOOTH",
"1406 170 OFFCURVE",
"1454 143 OFFCURVE",
"1519 143 CURVE SMOOTH",
"1595 143 OFFCURVE",
"1639 190 OFFCURVE",
"1666 250 CURVE SMOOTH",
"1693 310 OFFCURVE",
"1700 383 OFFCURVE",
"1700 435 CURVE SMOOTH",
"1700 488 OFFCURVE",
"1690 548 OFFCURVE",
"1663 593 CURVE SMOOTH",
"1636 637 OFFCURVE",
"1594 669 OFFCURVE",
"1533 669 CURVE SMOOTH"
);
},
{
closed = 1;
nodes = (
"1629 774 OFFCURVE",
"1713 741 OFFCURVE",
"1760 670 CURVE",
"1816 594 OFFCURVE",
"1830 495 OFFCURVE",
"1830 398 CURVE SMOOTH",
"1830 347 OFFCURVE",
"1826 293 OFFCURVE",
"1814 240 CURVE SMOOTH",
"1802 187 OFFCURVE",
"1780 136 OFFCURVE",
"1744 93 CURVE",
"1719 58 OFFCURVE",
"1684 35 OFFCURVE",
"1646 20 CURVE SMOOTH",
"1608 5 OFFCURVE",
"1567 -1 OFFCURVE",
"1528 -1 CURVE SMOOTH",
"1479 -1 OFFCURVE",
"1428 8 OFFCURVE",
"1384 26 CURVE SMOOTH",
"1339 44 OFFCURVE",
"1297 71 OFFCURVE",
"1268 110 CURVE",
"1213 174 OFFCURVE",
"1194 260 OFFCURVE",
"1194 348 CURVE SMOOTH",
"1194 404 OFFCURVE",
"1201 462 OFFCURVE",
"1218 518 CURVE SMOOTH",
"1235 573 OFFCURVE",
"1263 626 OFFCURVE",
"1304 671 CURVE",
"1304 670 LINE",
"1367 741 OFFCURVE",
"1454 774 OFFCURVE",
"1542 774 CURVE SMOOTH"
);
},
{
closed = 1;
nodes = (
"594 1385 LINE SMOOTH",
"529 1385 OFFCURVE",
"483 1347 OFFCURVE",
"454 1296 CURVE SMOOTH",
"425 1244 OFFCURVE",
"411 1179 OFFCURVE",
"411 1124 CURVE SMOOTH",
"411 1113 LINE",
"410 1108 OFFCURVE",
"410 1104 OFFCURVE",
"410 1100 CURVE SMOOTH",
"410 1095 OFFCURVE",
"410 1091 OFFCURVE",
"410 1086 CURVE SMOOTH",
"410 1029 OFFCURVE",
"419 965 OFFCURVE",
"446 917 CURVE SMOOTH",
"473 868 OFFCURVE",
"515 833 OFFCURVE",
"583 833 CURVE SMOOTH",
"636 833 OFFCURVE",
"676 856 OFFCURVE",
"706 890 CURVE SMOOTH",
"736 924 OFFCURVE",
"755 969 OFFCURVE",
"767 1015 CURVE SMOOTH",
"779 1061 OFFCURVE",
"784 1108 OFFCURVE",
"784 1144 CURVE SMOOTH",
"784 1200 OFFCURVE",
"770 1259 OFFCURVE",
"741 1305 CURVE SMOOTH",
"712 1351 OFFCURVE",
"666 1382 OFFCURVE",
"605 1385 CURVE"
);
},
{
closed = 1;
nodes = (
"1549 1487 OFFCURVE",
"1572 1488 OFFCURVE",
"1595 1489 CURVE SMOOTH",
"1617 1490 OFFCURVE",
"1640 1491 OFFCURVE",
"1663 1492 CURVE",
"1474 1252 OFFCURVE",
"1300 1001 OFFCURVE",
"1128 750 CURVE SMOOTH",
"956 498 OFFCURVE",
"784 245 OFFCURVE",
"599 4 CURVE",
"552 3 OFFCURVE",
"508 2 OFFCURVE",
"461 -1 CURVE",
"649 239 OFFCURVE",
"822 491 OFFCURVE",
"994 743 CURVE SMOOTH",
"1166 994 OFFCURVE",
"1338 1245 OFFCURVE",
"1526 1486 CURVE"
);
},
{
closed = 1;
nodes = (
"700 1487 OFFCURVE",
"785 1450 OFFCURVE",
"844 1378 CURVE SMOOTH",
"897 1313 OFFCURVE",
"917 1227 OFFCURVE",
"917 1139 CURVE SMOOTH",
"917 1084 OFFCURVE",
"909 1026 OFFCURVE",
"892 971 CURVE SMOOTH",
"875 915 OFFCURVE",
"847 862 OFFCURVE",
"807 818 CURVE SMOOTH",
"747 753 OFFCURVE",
"663 717 OFFCURVE",
"579 717 CURVE SMOOTH",
"534 717 OFFCURVE",
"489 724 OFFCURVE",
"449 741 CURVE SMOOTH",
"409 757 OFFCURVE",
"375 784 OFFCURVE",
"350 821 CURVE SMOOTH",
"297 900 OFFCURVE",
"282 999 OFFCURVE",
"282 1095 CURVE SMOOTH",
"282 1146 OFFCURVE",
"286 1200 OFFCURVE",
"299 1253 CURVE SMOOTH",
"311 1305 OFFCURVE",
"332 1355 OFFCURVE",
"367 1398 CURVE SMOOTH",
"420 1462 OFFCURVE",
"503 1490 OFFCURVE",
"582 1491 CURVE SMOOTH",
"586 1491 OFFCURVE",
"590 1491 OFFCURVE",
"594 1491 CURVE",
"597 1490 OFFCURVE",
"601 1490 OFFCURVE",
"605 1490 CURVE SMOOTH"
);
}
);
width = 2031;
}
);
unicode = 0025;
},
{
glyphname = ampersand;
lastChange = "2012-10-20 12:59:19 -0400";
layers = (
{
layerId = "16808965-E153-4B2B-ADB3-00196C646C32";
name = "Regular Italic";
paths = (
{
closed = 1;
nodes = (
"400 803 OFFCURVE",
"347 746 OFFCURVE",
"310 682 CURVE SMOOTH",
"273 617 OFFCURVE",
"250 545 OFFCURVE",
"250 466 CURVE SMOOTH",
"250 367 OFFCURVE",
"289 296 OFFCURVE",
"350 249 CURVE SMOOTH",
"410 201 OFFCURVE",
"492 178 OFFCURVE",
"580 178 CURVE SMOOTH",
"705 178 OFFCURVE",
"832 227 OFFCURVE",
"932 311 CURVE",
"852 401 OFFCURVE",
"773 491 OFFCURVE",
"695 581 CURVE SMOOTH",
"617 671 OFFCURVE",
"539 761 OFFCURVE",
"460 852 CURVE"
);
},
{
closed = 1;
nodes = (
"654 851 OFFCURVE",
"734 763 OFFCURVE",
"813 675 CURVE SMOOTH",
"892 587 OFFCURVE",
"971 499 OFFCURVE",
"1052 411 CURVE",
"1095 468 OFFCURVE",
"1123 529 OFFCURVE",
"1143 593 CURVE SMOOTH",
"1163 657 OFFCURVE",
"1176 722 OFFCURVE",
"1185 790 CURVE",
"1210 790 OFFCURVE",
"1236 790 OFFCURVE",
"1262 790 CURVE SMOOTH",
"1288 790 OFFCURVE",
"1314 790 OFFCURVE",
"1340 791 CURVE",
"1325 708 OFFCURVE",
"1308 627 OFFCURVE",
"1288 546 CURVE SMOOTH",
"1265 455 OFFCURVE",
"1220 372 OFFCURVE",
"1163 296 CURVE",
"1206 247 OFFCURVE",
"1250 200 OFFCURVE",
"1293 153 CURVE SMOOTH",
"1336 106 OFFCURVE",
"1379 58 OFFCURVE",
"1422 10 CURVE",
"1349 17 OFFCURVE",
"1275 22 OFFCURVE",
"1200 26 CURVE",
"1177 51 OFFCURVE",
"1153 77 OFFCURVE",
"1130 103 CURVE",
"1106 128 OFFCURVE",
"1082 154 OFFCURVE",
"1059 180 CURVE",
"916 63 OFFCURVE",
"747 9 OFFCURVE",
"570 9 CURVE SMOOTH",
"506 9 OFFCURVE",
"442 17 OFFCURVE",
"383 35 CURVE SMOOTH",
"323 53 OFFCURVE",
"269 82 OFFCURVE",
"225 126 CURVE SMOOTH",
"157 195 OFFCURVE",
"127 292 OFFCURVE",
"127 392 CURVE SMOOTH",
"127 497 OFFCURVE",
"159 596 OFFCURVE",
"212 684 CURVE SMOOTH",
"265 771 OFFCURVE",
"340 845 OFFCURVE",
"427 905 CURVE",
"383 976 OFFCURVE",
"345 1053 OFFCURVE",
"345 1141 CURVE SMOOTH",
"345 1186 OFFCURVE",
"354 1234 OFFCURVE",
"373 1279 CURVE SMOOTH",
"392 1323 OFFCURVE",
"419 1363 OFFCURVE",
"458 1394 CURVE SMOOTH",
"542 1462 OFFCURVE",
"648 1481 OFFCURVE",
"749 1481 CURVE SMOOTH",
"858 1481 OFFCURVE",
"964 1455 OFFCURVE",
"1061 1416 CURVE",
"1036 1376 OFFCURVE",
"1011 1336 OFFCURVE",
"987 1296 CURVE",
"894 1345 OFFCURVE",
"794 1386 OFFCURVE",
"681 1386 CURVE SMOOTH",
"618 1386 OFFCURVE",
"559 1367 OFFCURVE",
"515 1332 CURVE SMOOTH",
"471 1296 OFFCURVE",
"442 1244 OFFCURVE",
"442 1176 CURVE SMOOTH",
"442 1129 OFFCURVE",
"460 1088 OFFCURVE",
"485 1049 CURVE SMOOTH",
"510 1009 OFFCURVE",
"544 972 OFFCURVE",
"573 939 CURVE SMOOTH"
);
}
);
width = 1688;
}
);
unicode = 0026;
},
{
glyphname = quotesingle;
lastChange = "2012-10-20 12:59:19 -0400";
layers = (
{
layerId = "16808965-E153-4B2B-ADB3-00196C646C32";
name = "Regular Italic";
paths = (
{
closed = 1;
nodes = (
"475 1304 OFFCURVE",
"460 1128 OFFCURVE",
"451 948 CURVE",
"428 955 OFFCURVE",
"405 958 OFFCURVE",
"381 958 CURVE SMOOTH",
"354 958 OFFCURVE",
"328 955 OFFCURVE",
"301 948 CURVE",
"324 1128 OFFCURVE",
"339 1304 OFFCURVE",
"348 1484 CURVE",
"369 1477 OFFCURVE",
"393 1473 OFFCURVE",
"420 1473 CURVE SMOOTH",
"446 1473 OFFCURVE",
"472 1477 OFFCURVE",
"498 1484 CURVE"
);
}
);
width = 517;
}
);
unicode = 0027;
},
{
glyphname = parenleft;
lastChange = "2012-10-20 13:25:55 -0400";
layers = (
{
layerId = "16808965-E153-4B2B-ADB3-00196C646C32";
name = "Regular Italic";
paths = (
{
closed = 1;
nodes = (
"704 1405 OFFCURVE",
"613 1266 OFFCURVE",
"541 1120 CURVE SMOOTH",
"469 974 OFFCURVE",
"416 820 OFFCURVE",
"399 660 CURVE",
"396 589 OFFCURVE",
"394 519 OFFCURVE",
"394 450 CURVE SMOOTH",
"394 370 OFFCURVE",
"398 295 OFFCURVE",
"403 216 CURVE SMOOTH",
"414 59 OFFCURVE",
"451 -88 OFFCURVE",
"506 -231 CURVE",
"445 -220 OFFCURVE",
"384 -215 OFFCURVE",
"320 -214 CURVE",
"248 -3 OFFCURVE",
"220 220 OFFCURVE",
"220 448 CURVE SMOOTH",
"220 524 OFFCURVE",
"223 601 OFFCURVE",
"229 678 CURVE",
"253 834 OFFCURVE",
"309 984 OFFCURVE",
"385 1125 CURVE SMOOTH",
"461 1266 OFFCURVE",
"556 1399 OFFCURVE",
"660 1522 CURVE",
"707 1522 OFFCURVE",
"750 1530 OFFCURVE",
"797 1538 CURVE"
);
}
);
width = 753;
}
);
unicode = 0028;
},
{
glyphname = parenright;
lastChange = "2012-10-20 12:59:19 -0400";
layers = (
{
layerId = "16808965-E153-4B2B-ADB3-00196C646C32";
name = "Regular Italic";
paths = (
{
closed = 1;
nodes = (
"361 1547 LINE",
"412 1536 OFFCURVE",
"463 1531 OFFCURVE",
"515 1528 CURVE",
"608 1319 OFFCURVE",
"644 1100 OFFCURVE",
"644 855 CURVE SMOOTH",
"644 742 OFFCURVE",
"637 632 OFFCURVE",
"618 525 CURVE SMOOTH",
"598 418 OFFCURVE",
"566 313 OFFCURVE",
"514 212 CURVE SMOOTH",
"442 69 OFFCURVE",
"362 -68 OFFCURVE",
"274 -201 CURVE",
"206 -201 OFFCURVE",
"136 -206 OFFCURVE",
"68 -221 CURVE",
"163 -88 OFFCURVE",
"252 52 OFFCURVE",
"324 198 CURVE SMOOTH",
"395 344 OFFCURVE",
"450 496 OFFCURVE",
"474 655 CURVE",
"482 743 OFFCURVE",
"485 829 OFFCURVE",
"485 917 CURVE SMOOTH",
"485 1150 OFFCURVE",
"452 1356 OFFCURVE",
"372 1560 CURVE",
"365 1551 LINE"
);
}
);
width = 775;
}
);
unicode = 0029;
},
{
glyphname = asterisk;
lastChange = "2012-10-20 12:59:19 -0400";
layers = (
{
layerId = "16808965-E153-4B2B-ADB3-00196C646C32";
name = "Regular Italic";
paths = (
{
closed = 1;
nodes = (
"1003 1182 OFFCURVE",
"881 1117 OFFCURVE",
"760 1052 CURVE",
"872 987 OFFCURVE",
"981 923 OFFCURVE",
"1089 854 CURVE",
"1074 827 OFFCURVE",
"1058 802 OFFCURVE",
"1041 777 CURVE",
"938 846 OFFCURVE",
"836 915 OFFCURVE",
"732 983 CURVE",
"727 921 OFFCURVE",
"721 859 OFFCURVE",
"716 798 CURVE SMOOTH",
"711 737 OFFCURVE",
"706 675 OFFCURVE",
"703 613 CURVE",
"609 613 LINE",
"614 675 OFFCURVE",
"620 737 OFFCURVE",
"626 798 CURVE SMOOTH",
"632 859 OFFCURVE",
"638 921 OFFCURVE",
"643 983 CURVE",
"584 949 OFFCURVE",
"527 915 OFFCURVE",
"470 880 CURVE SMOOTH",
"413 845 OFFCURVE",
"355 811 OFFCURVE",
"296 777 CURVE",
"291 790 OFFCURVE",
"285 803 OFFCURVE",
"280 816 CURVE SMOOTH",
"275 829 OFFCURVE",
"269 841 OFFCURVE",
"263 854 CURVE",
"384 923 OFFCURVE",
"504 987 OFFCURVE",
"628 1052 CURVE",
"516 1115 OFFCURVE",
"406 1181 OFFCURVE",
"298 1250 CURVE",
"307 1263 OFFCURVE",
"314 1276 OFFCURVE",
"321 1289 CURVE SMOOTH",
"328 1302 OFFCURVE",
"336 1315 OFFCURVE",
"345 1328 CURVE",
"396 1292 OFFCURVE",
"447 1257 OFFCURVE",
"500 1224 CURVE SMOOTH",
"552 1190 OFFCURVE",
"604 1156 OFFCURVE",
"656 1122 CURVE",
"661 1184 OFFCURVE",
"666 1246 OFFCURVE",
"671 1307 CURVE SMOOTH",
"676 1368 OFFCURVE",
"681 1430 OFFCURVE",
"686 1492 CURVE",
"780 1492 LINE",
"767 1368 OFFCURVE",
"755 1246 OFFCURVE",
"744 1122 CURVE",
"861 1190 OFFCURVE",
"975 1258 OFFCURVE",
"1091 1329 CURVE",
"1102 1302 OFFCURVE",
"1112 1277 OFFCURVE",
"1124 1250 CURVE"
);
}
);
width = 1175;
}
);
unicode = 002A;
},
{
glyphname = plus;
lastChange = "2012-10-20 12:59:19 -0400";
layers = (
{
layerId = "16808965-E153-4B2B-ADB3-00196C646C32";
name = "Regular Italic";
paths = (
{
closed = 1;
nodes = (
"898 1248 LINE",
"877 1069 OFFCURVE",
"861 892 OFFCURVE",
"845 712 CURVE",
"1020 712 OFFCURVE",
"1191 713 OFFCURVE",
"1366 716 CURVE",
"1353 567 LINE",
"1266 568 OFFCURVE",
"1179 569 OFFCURVE",
"1093 569 CURVE SMOOTH",
"1006 569 OFFCURVE",
"919 569 OFFCURVE",
"832 569 CURVE",
"825 480 OFFCURVE",
"817 391 OFFCURVE",
"810 302 CURVE SMOOTH",
"803 213 OFFCURVE",
"796 123 OFFCURVE",
"791 34 CURVE",
"643 34 LINE",
"652 123 OFFCURVE",
"660 213 OFFCURVE",
"669 302 CURVE SMOOTH",
"678 391 OFFCURVE",
"686 480 OFFCURVE",
"693 569 CURVE",
"606 569 OFFCURVE",
"519 569 OFFCURVE",
"433 568 CURVE SMOOTH",
"346 567 OFFCURVE",
"259 567 OFFCURVE",
"172 567 CURVE",
"185 717 LINE",
"360 713 OFFCURVE",
"531 713 OFFCURVE",
"706 713 CURVE",
"714 803 OFFCURVE",
"722 892 OFFCURVE",
"729 981 CURVE SMOOTH",
"736 1070 OFFCURVE",
"743 1159 OFFCURVE",
"750 1248 CURVE"
);
}
);
width = 1500;
}
);
unicode = 002B;
},
{
glyphname = comma;
lastChange = "2012-10-20 13:28:49 -0400";
layers = (
{
layerId = "16808965-E153-4B2B-ADB3-00196C646C32";
name = "Regular Italic";
paths = (
{
closed = 1;
nodes = (
"123 224 OFFCURVE",
"133 224 OFFCURVE",
"143 224 CURVE SMOOTH",
"153 224 OFFCURVE",
"163 224 OFFCURVE",
"174 224 CURVE SMOOTH",
"231 224 OFFCURVE",
"287 227 OFFCURVE",
"346 234 CURVE",
"334 167 OFFCURVE",
"325 102 OFFCURVE",
"318 35 CURVE",
"279 -16 OFFCURVE",
"241 -67 OFFCURVE",
"203 -118 CURVE SMOOTH",
"164 -169 OFFCURVE",
"124 -220 OFFCURVE",
"82 -269 CURVE",
"64 -270 OFFCURVE",
"46 -271 OFFCURVE",
"28 -272 CURVE SMOOTH",
"10 -273 OFFCURVE",
"-8 -275 OFFCURVE",
"-27 -278 CURVE",
"-4 -228 OFFCURVE",
"18 -177 OFFCURVE",
"39 -126 CURVE SMOOTH",
"59 -75 OFFCURVE",
"79 -24 OFFCURVE",
"100 27 CURVE",
"105 94 OFFCURVE",
"109 158 OFFCURVE",
"113 225 CURVE"
);
}
);
width = 578;
}
);
unicode = 002C;
},
{
glyphname = hyphen;
lastChange = "2012-10-20 12:59:19 -0400";
layers = (
{
layerId = "16808965-E153-4B2B-ADB3-00196C646C32";
name = "Regular Italic";
paths = (
{
closed = 1;
nodes = (
"178 633 OFFCURVE",
"190 633 OFFCURVE",
"202 633 CURVE",
"213 632 OFFCURVE",
"225 632 OFFCURVE",
"236 632 CURVE SMOOTH",
"385 632 OFFCURVE",
"532 638 OFFCURVE",
"683 643 CURVE",
"664 612 OFFCURVE",
"653 576 OFFCURVE",
"653 541 CURVE SMOOTH",
"653 526 OFFCURVE",
"655 512 OFFCURVE",
"659 498 CURVE",
"486 498 OFFCURVE",
"318 496 OFFCURVE",
"143 489 CURVE",
"162 521 OFFCURVE",
"171 557 OFFCURVE",
"171 592 CURVE SMOOTH",
"171 607 OFFCURVE",
"170 620 OFFCURVE",
"167 633 CURVE"
);
}
);
width = 821;
}
);
unicode = 002D;
},
{
glyphname = period;
lastChange = "2012-11-02 09:43:02 -0400";
layers = (
{
layerId = "16808965-E153-4B2B-ADB3-00196C646C32";
name = "Regular Italic";
paths = (
{
closed = 1;
nodes = (
"99 314 LINE",
"142 310 OFFCURVE",
"185 308 OFFCURVE",
"229 308 CURVE SMOOTH",
"279 308 OFFCURVE",
"329 310 OFFCURVE",
"379 314 CURVE",
"360 227 OFFCURVE",
"351 140 OFFCURVE",
"351 51 CURVE SMOOTH",
"351 44 OFFCURVE",
"351 37 OFFCURVE",
"351 30 CURVE SMOOTH",
"351 23 OFFCURVE",
"351 17 OFFCURVE",
"352 10 CURVE",
"306 14 OFFCURVE",
"260 16 OFFCURVE",
"213 16 CURVE SMOOTH",
"166 16 OFFCURVE",
"119 14 OFFCURVE",
"72 10 CURVE",
"90 98 OFFCURVE",
"99 187 OFFCURVE",
"99 276 CURVE SMOOTH"
);
}
);
width = 618;
}
);
unicode = 002E;
},
{
glyphname = slash;
lastChange = "2012-10-20 12:59:19 -0400";
layers = (
{
layerId = "16808965-E153-4B2B-ADB3-00196C646C32";
name = "Regular Italic";
paths = (
{
closed = 1;
nodes = (
"751 1447 OFFCURVE",
"795 1452 OFFCURVE",
"838 1459 CURVE",
"725 1191 OFFCURVE",
"621 921 OFFCURVE",
"518 650 CURVE SMOOTH",
"415 378 OFFCURVE",
"313 106 OFFCURVE",
"202 -162 CURVE",
"133 -165 OFFCURVE",
"63 -169 OFFCURVE",
"-6 -180 CURVE",
"118 88 OFFCURVE",
"234 360 OFFCURVE",
"351 632 CURVE SMOOTH",
"467 903 OFFCURVE",
"584 1175 OFFCURVE",
"708 1443 CURVE"
);
}
);
width = 796;
}
);
unicode = 002F;
},
{
glyphname = zero;
lastChange = "2012-10-20 12:59:19 -0400";
layers = (
{
layerId = "16808965-E153-4B2B-ADB3-00196C646C32";
name = "Regular Italic";
paths = (
{
closed = 1;
nodes = (
"729 1421 LINE SMOOTH",
"670 1421 OFFCURVE",
"614 1400 OFFCURVE",
"567 1365 CURVE SMOOTH",
"520 1330 OFFCURVE",
"483 1281 OFFCURVE",
"463 1225 CURVE",
"428 1138 OFFCURVE",
"409 1051 OFFCURVE",
"398 965 CURVE SMOOTH",
"387 879 OFFCURVE",
"385 795 OFFCURVE",
"385 716 CURVE SMOOTH",
"385 632 OFFCURVE",
"392 551 OFFCURVE",
"420 475 CURVE SMOOTH",
"435 435 OFFCURVE",
"462 403 OFFCURVE",
"498 381 CURVE SMOOTH",
"533 359 OFFCURVE",
"575 347 OFFCURVE",
"619 347 CURVE SMOOTH",
"630 347 LINE SMOOTH",
"632 347 OFFCURVE",
"634 347 OFFCURVE",
"637 347 CURVE",
"639 346 OFFCURVE",
"641 346 OFFCURVE",
"643 346 CURVE SMOOTH",
"728 346 OFFCURVE",
"794 384 OFFCURVE",
"844 443 CURVE SMOOTH",
"894 502 OFFCURVE",
"929 582 OFFCURVE",
"954 664 CURVE SMOOTH",
"978 746 OFFCURVE",
"992 831 OFFCURVE",
"1000 900 CURVE SMOOTH",
"1007 969 OFFCURVE",
"1009 1024 OFFCURVE",
"1009 1047 CURVE SMOOTH",
"1009 1100 OFFCURVE",
"1006 1154 OFFCURVE",
"995 1206 CURVE",
"986 1267 OFFCURVE",
"958 1323 OFFCURVE",
"917 1361 CURVE SMOOTH",
"876 1399 OFFCURVE",
"823 1422 OFFCURVE",
"763 1422 CURVE SMOOTH",
"760 1422 OFFCURVE",
"757 1422 OFFCURVE",
"754 1422 CURVE",
"751 1421 OFFCURVE",
"748 1421 OFFCURVE",
"745 1421 CURVE SMOOTH"
);
},
{
closed = 1;
nodes = (
"750 1480 LINE",
"766 1480 LINE SMOOTH",
"830 1480 OFFCURVE",
"896 1466 OFFCURVE",
"952 1438 CURVE SMOOTH",
"1008 1409 OFFCURVE",
"1055 1366 OFFCURVE",
"1083 1309 CURVE SMOOTH",
"1142 1188 OFFCURVE",
"1156 1056 OFFCURVE",
"1156 927 CURVE SMOOTH",
"1156 866 OFFCURVE",
"1153 806 OFFCURVE",
"1149 746 CURVE",
"1136 654 OFFCURVE",
"1122 560 OFFCURVE",
"1098 468 CURVE SMOOTH",
"1074 376 OFFCURVE",
"1040 287 OFFCURVE",
"987 206 CURVE SMOOTH",
"942 139 OFFCURVE",
"883 91 OFFCURVE",
"819 59 CURVE SMOOTH",
"755 26 OFFCURVE",
"684 10 OFFCURVE",
"616 10 CURVE SMOOTH",
"601 10 LINE",
"584 10 LINE SMOOTH",
"520 10 OFFCURVE",
"455 24 OFFCURVE",
"399 52 CURVE SMOOTH",
"343 80 OFFCURVE",
"295 123 OFFCURVE",
"266 180 CURVE SMOOTH",
"207 299 OFFCURVE",
"194 425 OFFCURVE",
"194 553 CURVE SMOOTH",
"194 618 OFFCURVE",
"197 681 OFFCURVE",
"201 745 CURVE",
"214 836 OFFCURVE",
"227 930 OFFCURVE",
"251 1022 CURVE SMOOTH",
"275 1114 OFFCURVE",
"308 1203 OFFCURVE",
"363 1284 CURVE SMOOTH",
"407 1351 OFFCURVE",
"467 1400 OFFCURVE",
"532 1432 CURVE SMOOTH",
"597 1464 OFFCURVE",
"669 1480 OFFCURVE",
"737 1480 CURVE SMOOTH"
);
}
);
width = 1268;
}
);
unicode = 0030;
},
{
glyphname = one;
lastChange = "2012-10-20 12:59:19 -0400";
layers = (
{
layerId = "16808965-E153-4B2B-ADB3-00196C646C32";
name = "Regular Italic";
paths = (
{
closed = 1;
nodes = (
"380 281 OFFCURVE",
"485 287 OFFCURVE",
"592 288 CURVE",
"623 627 OFFCURVE",
"651 958 OFFCURVE",
"678 1297 CURVE",
"562 1275 OFFCURVE",
"446 1259 OFFCURVE",
"329 1249 CURVE",
"330 1277 OFFCURVE",
"331 1304 OFFCURVE",
"332 1331 CURVE",
"332 1358 OFFCURVE",
"332 1385 OFFCURVE",
"333 1413 CURVE",
"450 1418 OFFCURVE",
"564 1436 OFFCURVE",
"681 1455 CURVE",
"697 1454 OFFCURVE",
"713 1454 OFFCURVE",
"729 1454 CURVE SMOOTH",
"745 1454 OFFCURVE",
"761 1454 OFFCURVE",
"776 1454 CURVE SMOOTH",
"792 1454 OFFCURVE",
"808 1454 OFFCURVE",
"824 1454 CURVE SMOOTH",
"840 1454 OFFCURVE",
"856 1455 OFFCURVE",
"872 1456 CURVE",
"829 1064 OFFCURVE",
"794 680 OFFCURVE",
"765 288 CURVE",
"870 285 OFFCURVE",
"976 282 OFFCURVE",
"1080 271 CURVE",
"1077 195 OFFCURVE",
"1075 121 OFFCURVE",
"1075 45 CURVE SMOOTH",
"1075 10 LINE",
"934 29 OFFCURVE",
"793 39 OFFCURVE",
"649 39 CURVE SMOOTH",
"510 39 OFFCURVE",
"374 30 OFFCURVE",
"235 14 CURVE",
"250 101 OFFCURVE",
"261 185 OFFCURVE",
"273 273 CURVE"
);
}
);
width = 1341;
}
);
unicode = 0031;
},
{
glyphname = two;
lastChange = "2012-10-20 12:59:19 -0400";
layers = (
{
layerId = "16808965-E153-4B2B-ADB3-00196C646C32";
name = "Regular Italic";
paths = (
{
closed = 1;
nodes = (
"817 299 OFFCURVE",
"969 296 OFFCURVE",
"1124 281 CURVE",
"1120 190 OFFCURVE",
"1120 101 OFFCURVE",
"1120 10 CURVE",
"969 29 OFFCURVE",
"818 38 OFFCURVE",
"665 38 CURVE SMOOTH",
"508 38 OFFCURVE",
"351 29 OFFCURVE",
"192 10 CURVE",
"207 102 OFFCURVE",
"221 194 OFFCURVE",
"236 286 CURVE",
"345 381 OFFCURVE",
"460 468 OFFCURVE",
"576 555 CURVE",
"659 612 OFFCURVE",
"738 670 OFFCURVE",
"810 741 CURVE",
"809 741 LINE",
"862 797 OFFCURVE",
"914 853 OFFCURVE",
"953 921 CURVE",
"953 920 LINE",
"986 976 OFFCURVE",
"1008 1037 OFFCURVE",
"1008 1100 CURVE SMOOTH",
"1008 1180 OFFCURVE",
"975 1238 OFFCURVE",
"924 1277 CURVE SMOOTH",
"873 1316 OFFCURVE",
"805 1334 OFFCURVE",
"734 1334 CURVE SMOOTH",
"594 1334 OFFCURVE",
"458 1292 OFFCURVE",
"327 1232 CURVE",
"330 1292 OFFCURVE",
"332 1351 OFFCURVE",
"332 1411 CURVE",
"469 1446 OFFCURVE",
"604 1480 OFFCURVE",
"743 1480 CURVE SMOOTH",
"806 1480 OFFCURVE",
"869 1475 OFFCURVE",
"929 1460 CURVE SMOOTH",
"989 1444 OFFCURVE",
"1045 1420 OFFCURVE",
"1092 1380 CURVE SMOOTH",
"1159 1324 OFFCURVE",
"1185 1241 OFFCURVE",
"1185 1153 CURVE SMOOTH",
"1185 1072 OFFCURVE",
"1165 998 OFFCURVE",
"1132 929 CURVE SMOOTH",
"1099 860 OFFCURVE",
"1052 795 OFFCURVE",
"997 731 CURVE",
"999 732 LINE",
"944 677 OFFCURVE",
"891 623 OFFCURVE",
"835 570 CURVE SMOOTH",
"759 497 OFFCURVE",
"687 411 OFFCURVE",
"652 311 CURVE",
"653 309 OFFCURVE",
"655 307 OFFCURVE",
"657 305 CURVE",
"658 303 OFFCURVE",
"660 301 OFFCURVE",
"661 299 CURVE"
);
}
);
width = 1386;
}
);
unicode = 0032;
},
{
glyphname = three;
lastChange = "2012-10-20 12:59:19 -0400";
layers = (
{
layerId = "16808965-E153-4B2B-ADB3-00196C646C32";
name = "Regular Italic";
paths = (
{
closed = 1;
nodes = (
"964 788 OFFCURVE",
"1038 756 OFFCURVE",
"1081 692 CURVE SMOOTH",
"1120 632 OFFCURVE",
"1139 564 OFFCURVE",
"1139 491 CURVE SMOOTH",
"1139 427 OFFCURVE",
"1131 356 OFFCURVE",
"1108 291 CURVE SMOOTH",
"1085 226 OFFCURVE",
"1047 165 OFFCURVE",
"990 121 CURVE",
"918 70 OFFCURVE",
"838 42 OFFCURVE",
"757 27 CURVE SMOOTH",
"676 11 OFFCURVE",
"595 8 OFFCURVE",
"519 8 CURVE SMOOTH",
"401 8 OFFCURVE",
"286 23 OFFCURVE",
"174 52 CURVE",
"190 149 OFFCURVE",
"204 246 OFFCURVE",
"216 343 CURVE",
"316 287 OFFCURVE",
"434 270 OFFCURVE",
"553 270 CURVE SMOOTH",
"605 270 OFFCURVE",
"661 273 OFFCURVE",
"714 285 CURVE SMOOTH",
"767 296 OFFCURVE",
"819 316 OFFCURVE",
"863 352 CURVE",
"862 352 LINE",
"887 372 OFFCURVE",
"915 394 OFFCURVE",
"936 419 CURVE SMOOTH",
"957 444 OFFCURVE",
"972 474 OFFCURVE",
"972 509 CURVE SMOOTH",
"972 574 OFFCURVE",
"939 631 OFFCURVE",
"894 671 CURVE SMOOTH",
"849 711 OFFCURVE",
"792 730 OFFCURVE",
"732 738 CURVE SMOOTH",
"702 742 OFFCURVE",
"672 744 OFFCURVE",
"641 744 CURVE SMOOTH",
"610 744 OFFCURVE",
"580 744 OFFCURVE",
"551 744 CURVE SMOOTH",
"499 744 LINE",
"501 767 OFFCURVE",
"503 791 OFFCURVE",
"506 815 CURVE",
"508 838 OFFCURVE",
"510 862 OFFCURVE",
"511 885 CURVE",
"543 885 OFFCURVE",
"575 885 OFFCURVE",
"606 884 CURVE SMOOTH",
"637 883 OFFCURVE",
"668 883 OFFCURVE",
"700 883 CURVE SMOOTH",
"777 883 OFFCURVE",
"852 908 OFFCURVE",
"907 954 CURVE SMOOTH",
"962 1000 OFFCURVE",
"998 1066 OFFCURVE",
"998 1153 CURVE SMOOTH",
"998 1238 OFFCURVE",
"953 1289 OFFCURVE",
"894 1318 CURVE SMOOTH",
"834 1346 OFFCURVE",
"761 1354 OFFCURVE",
"705 1354 CURVE SMOOTH",
"580 1354 OFFCURVE",
"458 1333 OFFCURVE",
"335 1304 CURVE",
"336 1327 OFFCURVE",
"337 1350 OFFCURVE",
"338 1373 CURVE",
"338 1395 OFFCURVE",
"338 1418 OFFCURVE",
"339 1441 CURVE",
"471 1462 OFFCURVE",
"601 1480 OFFCURVE",
"733 1480 CURVE SMOOTH",
"832 1480 OFFCURVE",
"942 1466 OFFCURVE",
"1027 1422 CURVE SMOOTH",
"1112 1378 OFFCURVE",
"1173 1303 OFFCURVE",
"1173 1182 CURVE SMOOTH",
"1173 1098 OFFCURVE",
"1145 1014 OFFCURVE",
"1095 947 CURVE SMOOTH",
"1045 880 OFFCURVE",
"973 830 OFFCURVE",
"886 813 CURVE",
"886 810 OFFCURVE",
"886 806 OFFCURVE",
"886 803 CURVE",
"885 800 OFFCURVE",
"885 796 OFFCURVE",
"885 793 CURVE"
);
}
);
width = 1318;
}
);
unicode = 0033;
},
{
glyphname = four;
lastChange = "2012-10-20 12:59:19 -0400";
layers = (
{
layerId = "16808965-E153-4B2B-ADB3-00196C646C32";
name = "Regular Italic";
paths = (
{
closed = 1;
nodes = (
"661 1127 OFFCURVE",
"472 857 OFFCURVE",
"279 582 CURVE",
"446 585 OFFCURVE",
"609 586 OFFCURVE",
"776 586 CURVE",
"801 858 OFFCURVE",
"829 1123 OFFCURVE",
"864 1395 CURVE"
);
},
{
closed = 1;
nodes = (
"893 1456 OFFCURVE",
"972 1460 OFFCURVE",
"1053 1464 CURVE",
"1010 1169 OFFCURVE",
"985 879 OFFCURVE",
"965 584 CURVE",
"997 584 OFFCURVE",
"1029 584 OFFCURVE",
"1060 583 CURVE SMOOTH",
"1091 582 OFFCURVE",
"1122 582 OFFCURVE",
"1154 581 CURVE",
"1153 556 OFFCURVE",
"1151 532 OFFCURVE",
"1150 507 CURVE",
"1148 482 OFFCURVE",
"1146 458 OFFCURVE",
"1145 433 CURVE",
"1113 434 OFFCURVE",
"1081 436 OFFCURVE",
"1050 437 CURVE SMOOTH",
"1018 438 OFFCURVE",
"986 439 OFFCURVE",
"954 440 CURVE",
"953 393 OFFCURVE",
"952 349 OFFCURVE",
"952 302 CURVE SMOOTH",
"952 210 OFFCURVE",
"954 119 OFFCURVE",
"957 27 CURVE",
"873 34 OFFCURVE",
"791 36 OFFCURVE",
"707 37 CURVE",
"715 106 OFFCURVE",
"723 174 OFFCURVE",
"730 241 CURVE SMOOTH",
"737 308 OFFCURVE",
"745 376 OFFCURVE",
"754 444 CURVE",
"650 444 LINE SMOOTH",
"478 444 OFFCURVE",
"308 440 OFFCURVE",
"135 433 CURVE",
"140 472 OFFCURVE",
"144 507 OFFCURVE",
"148 546 CURVE",
"367 854 OFFCURVE",
"584 1154 OFFCURVE",
"813 1455 CURVE"
);
}
);
width = 1321;
}
);
unicode = 0034;
},
{
glyphname = five;
lastChange = "2012-10-20 12:59:19 -0400";
layers = (
{
layerId = "16808965-E153-4B2B-ADB3-00196C646C32";
name = "Regular Italic";
paths = (
{
closed = 1;
nodes = (
"479 1459 OFFCURVE",
"611 1452 OFFCURVE",
"746 1452 CURVE SMOOTH",
"870 1452 OFFCURVE",
"995 1458 OFFCURVE",
"1120 1470 CURVE",
"1117 1449 OFFCURVE",
"1113 1427 OFFCURVE",
"1110 1405 CURVE SMOOTH",
"1107 1383 OFFCURVE",
"1103 1361 OFFCURVE",
"1100 1340 CURVE",
"980 1329 OFFCURVE",
"862 1326 OFFCURVE",
"743 1326 CURVE SMOOTH",
"656 1326 OFFCURVE",
"570 1328 OFFCURVE",
"484 1332 CURVE",
"477 1199 OFFCURVE",
"470 1068 OFFCURVE",
"459 935 CURVE",
"524 950 OFFCURVE",
"589 965 OFFCURVE",
"656 965 CURVE SMOOTH",
"721 965 OFFCURVE",
"788 957 OFFCURVE",
"849 937 CURVE SMOOTH",
"910 917 OFFCURVE",
"966 886 OFFCURVE",
"1011 839 CURVE SMOOTH",
"1088 756 OFFCURVE",
"1117 645 OFFCURVE",
"1117 529 CURVE SMOOTH",
"1117 460 OFFCURVE",
"1108 384 OFFCURVE",
"1084 312 CURVE SMOOTH",
"1060 240 OFFCURVE",
"1020 174 OFFCURVE",
"957 125 CURVE SMOOTH",
"894 76 OFFCURVE",
"822 46 OFFCURVE",
"747 30 CURVE SMOOTH",
"671 13 OFFCURVE",
"593 8 OFFCURVE",
"520 8 CURVE SMOOTH",
"399 8 OFFCURVE",
"281 17 OFFCURVE",
"164 44 CURVE",
"173 92 OFFCURVE",
"180 140 OFFCURVE",
"187 188 CURVE SMOOTH",
"194 236 OFFCURVE",
"200 284 OFFCURVE",
"207 332 CURVE",
"308 277 OFFCURVE",
"424 259 OFFCURVE",
"543 259 CURVE SMOOTH",
"591 259 OFFCURVE",
"644 264 OFFCURVE",
"694 277 CURVE SMOOTH",
"744 290 OFFCURVE",
"791 312 OFFCURVE",
"831 348 CURVE SMOOTH",
"862 376 OFFCURVE",
"888 404 OFFCURVE",
"908 437 CURVE SMOOTH",
"927 469 OFFCURVE",
"938 506 OFFCURVE",
"938 551 CURVE SMOOTH",
"938 630 OFFCURVE",
"914 708 OFFCURVE",
"853 756 CURVE",
"777 811 OFFCURVE",
"691 822 OFFCURVE",
"611 822 CURVE SMOOTH",
"508 822 OFFCURVE",
"405 801 OFFCURVE",
"309 758 CURVE",
"330 998 OFFCURVE",
"343 1234 OFFCURVE",
"346 1474 CURVE"
);
}
);
width = 1289;
}
);
unicode = 0035;
},
{
glyphname = six;
lastChange = "2012-10-20 12:59:19 -0400";
layers = (
{
layerId = "16808965-E153-4B2B-ADB3-00196C646C32";
name = "Regular Italic";
paths = (
{
closed = 1;
nodes = (
"621 832 OFFCURVE",
"543 803 OFFCURVE",
"484 739 CURVE SMOOTH",
"451 702 OFFCURVE",
"424 655 OFFCURVE",
"407 607 CURVE SMOOTH",
"390 558 OFFCURVE",
"381 507 OFFCURVE",
"381 460 CURVE SMOOTH",
"381 385 OFFCURVE",
"420 338 OFFCURVE",
"474 309 CURVE SMOOTH",
"528 280 OFFCURVE",
"598 270 OFFCURVE",
"662 270 CURVE SMOOTH",
"727 270 OFFCURVE",
"801 285 OFFCURVE",
"858 320 CURVE SMOOTH",
"915 355 OFFCURVE",
"957 409 OFFCURVE",
"960 486 CURVE",
"960 493 OFFCURVE",
"960 501 OFFCURVE",
"961 509 CURVE",
"961 517 OFFCURVE",
"961 525 OFFCURVE",
"961 532 CURVE SMOOTH",
"961 608 OFFCURVE",
"948 680 OFFCURVE",
"904 740 CURVE",
"861 804 OFFCURVE",
"781 832 OFFCURVE",
"702 832 CURVE SMOOTH"
);
},
{
closed = 1;
nodes = (
"1146 1450 LINE",
"1137 1394 OFFCURVE",
"1129 1339 OFFCURVE",
"1122 1283 CURVE",
"1039 1316 OFFCURVE",
"950 1335 OFFCURVE",
"858 1335 CURVE SMOOTH",
"799 1335 OFFCURVE",
"738 1327 OFFCURVE",
"681 1307 CURVE SMOOTH",
"624 1287 OFFCURVE",
"571 1253 OFFCURVE",
"531 1204 CURVE SMOOTH",
"478 1139 OFFCURVE",
"445 1067 OFFCURVE",
"422 993 CURVE SMOOTH",
"398 919 OFFCURVE",
"386 843 OFFCURVE",
"374 770 CURVE",
"417 830 OFFCURVE",
"472 879 OFFCURVE",
"534 913 CURVE SMOOTH",
"596 947 OFFCURVE",
"664 966 OFFCURVE",
"735 966 CURVE SMOOTH",
"792 966 OFFCURVE",
"852 957 OFFCURVE",
"905 937 CURVE SMOOTH",
"958 917 OFFCURVE",
"1005 885 OFFCURVE",
"1041 841 CURVE SMOOTH",
"1077 800 OFFCURVE",
"1099 751 OFFCURVE",
"1114 699 CURVE SMOOTH",
"1129 647 OFFCURVE",
"1134 592 OFFCURVE",
"1134 537 CURVE SMOOTH",
"1134 468 OFFCURVE",
"1126 392 OFFCURVE",
"1105 321 CURVE SMOOTH",
"1084 249 OFFCURVE",
"1046 182 OFFCURVE",
"989 129 CURVE SMOOTH",
"938 80 OFFCURVE",
"878 50 OFFCURVE",
"814 33 CURVE SMOOTH",
"750 16 OFFCURVE",
"682 10 OFFCURVE",
"618 10 CURVE SMOOTH",
"547 10 OFFCURVE",
"477 23 OFFCURVE",
"416 52 CURVE SMOOTH",
"355 80 OFFCURVE",
"303 123 OFFCURVE",
"270 186 CURVE SMOOTH",
"211 295 OFFCURVE",
"196 418 OFFCURVE",
"196 546 CURVE SMOOTH",
"196 659 OFFCURVE",
"201 793 OFFCURVE",
"229 925 CURVE SMOOTH",
"257 1056 OFFCURVE",
"307 1185 OFFCURVE",
"396 1288 CURVE SMOOTH",
"457 1361 OFFCURVE",
"534 1410 OFFCURVE",
"617 1440 CURVE SMOOTH",
"700 1470 OFFCURVE",
"790 1481 OFFCURVE",
"877 1481 CURVE SMOOTH",
"972 1481 OFFCURVE",
"1064 1465 OFFCURVE",
"1153 1442 CURVE",
"1146 1449 LINE"
);
}
);
width = 1306;
}
);
unicode = 0036;
},
{
glyphname = seven;
lastChange = "2012-10-20 12:59:19 -0400";
layers = (
{
layerId = "16808965-E153-4B2B-ADB3-00196C646C32";
name = "Regular Italic";
paths = (
{
closed = 1;
nodes = (
"497 1463 OFFCURVE",
"647 1453 OFFCURVE",
"799 1453 CURVE SMOOTH",
"960 1453 OFFCURVE",
"1118 1464 OFFCURVE",
"1278 1484 CURVE",
"1276 1471 OFFCURVE",
"1274 1459 OFFCURVE",
"1272 1447 CURVE",
"1269 1435 OFFCURVE",
"1267 1423 OFFCURVE",
"1266 1410 CURVE",
"1171 1185 OFFCURVE",
"1090 956 OFFCURVE",
"1012 727 CURVE SMOOTH",
"973 612 OFFCURVE",
"934 497 OFFCURVE",
"897 382 CURVE SMOOTH",
"859 267 OFFCURVE",
"821 152 OFFCURVE",
"782 37 CURVE",
"765 38 OFFCURVE",
"748 38 OFFCURVE",
"731 38 CURVE SMOOTH",
"714 38 OFFCURVE",
"697 38 OFFCURVE",
"680 38 CURVE SMOOTH",
"600 38 OFFCURVE",
"522 36 OFFCURVE",
"442 31 CURVE",
"558 246 OFFCURVE",
"666 465 OFFCURVE",
"774 685 CURVE SMOOTH",
"881 904 OFFCURVE",
"986 1123 OFFCURVE",
"1101 1339 CURVE",
"993 1332 OFFCURVE",
"886 1327 OFFCURVE",
"778 1327 CURVE SMOOTH",
"633 1327 OFFCURVE",
"490 1334 OFFCURVE",
"347 1353 CURVE",
"348 1375 OFFCURVE",
"348 1397 OFFCURVE",
"348 1419 CURVE SMOOTH",
"348 1440 OFFCURVE",
"348 1462 OFFCURVE",
"348 1484 CURVE"
);
}
);
width = 1234;
}
);
unicode = 0037;
},
{
glyphname = eight;
lastChange = "2012-10-20 12:59:19 -0400";
layers = (
{
layerId = "16808965-E153-4B2B-ADB3-00196C646C32";
name = "Regular Italic";
paths = (
{
closed = 1;
nodes = (
"589 738 OFFCURVE",
"506 716 OFFCURVE",
"442 660 CURVE SMOOTH",
"377 603 OFFCURVE",
"340 512 OFFCURVE",
"341 429 CURVE SMOOTH",
"341 377 OFFCURVE",
"370 334 OFFCURVE",
"406 299 CURVE SMOOTH",
"434 272 OFFCURVE",
"469 255 OFFCURVE",
"507 245 CURVE SMOOTH",
"545 235 OFFCURVE",
"585 231 OFFCURVE",
"625 231 CURVE SMOOTH",
"664 231 OFFCURVE",
"705 235 OFFCURVE",
"745 245 CURVE SMOOTH",
"785 255 OFFCURVE",
"823 272 OFFCURVE",
"855 299 CURVE SMOOTH",
"911 346 OFFCURVE",
"946 399 OFFCURVE",
"947 474 CURVE SMOOTH",
"947 545 OFFCURVE",
"928 610 OFFCURVE",
"881 661 CURVE SMOOTH",
"826 718 OFFCURVE",
"749 739 OFFCURVE",
"669 738 CURVE SMOOTH"
);
},
{
closed = 1;
nodes = (
"487 801 LINE",
"419 814 OFFCURVE",
"366 852 OFFCURVE",
"330 904 CURVE SMOOTH",
"294 956 OFFCURVE",
"274 1020 OFFCURVE",
"274 1087 CURVE SMOOTH",
"274 1140 OFFCURVE",
"282 1193 OFFCURVE",
"301 1242 CURVE SMOOTH",
"320 1291 OFFCURVE",
"351 1335 OFFCURVE",
"396 1371 CURVE",
"397 1370 LINE",
"445 1407 OFFCURVE",
"501 1430 OFFCURVE",
"559 1443 CURVE SMOOTH",
"617 1456 OFFCURVE",
"676 1461 OFFCURVE",
"733 1461 CURVE SMOOTH",
"790 1461 OFFCURVE",
"849 1458 OFFCURVE",
"904 1445 CURVE SMOOTH",
"959 1432 OFFCURVE",
"1010 1409 OFFCURVE",
"1053 1372 CURVE SMOOTH",
"1109 1323 OFFCURVE",
"1133 1251 OFFCURVE",
"1133 1175 CURVE SMOOTH",
"1133 1095 OFFCURVE",
"1109 1009 OFFCURVE",
"1062 940 CURVE SMOOTH",
"1015 871 OFFCURVE",
"948 817 OFFCURVE",
"860 801 CURVE",
"858 784 LINE",
"938 765 OFFCURVE",
"1008 725 OFFCURVE",
"1057 669 CURVE SMOOTH",
"1105 612 OFFCURVE",
"1135 538 OFFCURVE",
"1135 450 CURVE SMOOTH",
"1135 390 OFFCURVE",
"1127 324 OFFCURVE",
"1104 264 CURVE SMOOTH",
"1081 203 OFFCURVE",
"1046 148 OFFCURVE",
"990 108 CURVE SMOOTH",
"934 68 OFFCURVE",
"871 43 OFFCURVE",
"805 28 CURVE SMOOTH",
"739 13 OFFCURVE",
"671 9 OFFCURVE",
"606 9 CURVE SMOOTH",
"539 9 OFFCURVE",
"473 14 OFFCURVE",
"410 28 CURVE SMOOTH",
"347 42 OFFCURVE",
"288 67 OFFCURVE",
"237 107 CURVE SMOOTH",
"166 164 OFFCURVE",
"142 255 OFFCURVE",
"142 347 CURVE SMOOTH",
"142 400 OFFCURVE",
"150 457 OFFCURVE",
"168 510 CURVE SMOOTH",
"186 563 OFFCURVE",
"214 614 OFFCURVE",
"255 655 CURVE",
"316 722 OFFCURVE",
"400 763 OFFCURVE",
"485 782 CURVE"
);
},
{
closed = 1;
nodes = (
"430 1147 OFFCURVE",
"429 1135 OFFCURVE",
"429 1124 CURVE SMOOTH",
"429 1061 OFFCURVE",
"456 1008 OFFCURVE",
"500 970 CURVE SMOOTH",
"543 932 OFFCURVE",
"601 908 OFFCURVE",
"662 908 CURVE SMOOTH",
"665 908 OFFCURVE",
"669 908 OFFCURVE",
"673 908 CURVE SMOOTH",
"676 908 OFFCURVE",
"680 908 OFFCURVE",
"684 909 CURVE",
"687 908 OFFCURVE",
"691 908 OFFCURVE",
"695 908 CURVE SMOOTH",
"699 908 OFFCURVE",
"703 908 OFFCURVE",
"706 908 CURVE SMOOTH",
"781 908 OFFCURVE",
"849 939 OFFCURVE",
"900 989 CURVE SMOOTH",
"951 1039 OFFCURVE",
"982 1108 OFFCURVE",
"982 1184 CURVE SMOOTH",
"982 1257 OFFCURVE",
"949 1308 OFFCURVE",
"899 1339 CURVE SMOOTH",
"849 1370 OFFCURVE",
"784 1383 OFFCURVE",
"720 1383 CURVE SMOOTH",
"653 1383 OFFCURVE",
"584 1364 OFFCURVE",
"529 1328 CURVE SMOOTH",
"473 1291 OFFCURVE",
"435 1235 OFFCURVE",
"432 1159 CURVE"
);
}
);
width = 1321;
}
);
unicode = 0038;
},
{
glyphname = nine;
lastChange = "2012-10-20 12:59:19 -0400";
layers = (
{
layerId = "16808965-E153-4B2B-ADB3-00196C646C32";
name = "Regular Italic";
paths = (
{
closed = 1;
nodes = (
"241 40 LINE",
"257 136 OFFCURVE",
"269 229 OFFCURVE",
"281 325 CURVE",
"364 288 OFFCURVE",
"452 270 OFFCURVE",
"545 270 CURVE SMOOTH",
"597 270 OFFCURVE",
"653 272 OFFCURVE",
"708 283 CURVE SMOOTH",
"763 294 OFFCURVE",
"815 310 OFFCURVE",
"863 341 CURVE",
"920 388 OFFCURVE",
"951 450 OFFCURVE",
"971 518 CURVE SMOOTH",
"981 551 OFFCURVE",
"989 585 OFFCURVE",
"995 620 CURVE SMOOTH",
"1000 655 OFFCURVE",
"1006 688 OFFCURVE",
"1012 721 CURVE",
"969 661 OFFCURVE",
"916 612 OFFCURVE",
"854 578 CURVE SMOOTH",
"792 544 OFFCURVE",
"723 524 OFFCURVE",
"651 524 CURVE SMOOTH",
"592 524 OFFCURVE",
"534 533 OFFCURVE",
"481 553 CURVE SMOOTH",
"428 573 OFFCURVE",
"381 604 OFFCURVE",
"345 649 CURVE SMOOTH",
"310 690 OFFCURVE",
"288 740 OFFCURVE",
"274 793 CURVE SMOOTH",
"260 845 OFFCURVE",
"254 902 OFFCURVE",
"254 958 CURVE SMOOTH",
"254 1026 OFFCURVE",
"262 1100 OFFCURVE",
"284 1171 CURVE SMOOTH",
"306 1242 OFFCURVE",
"341 1308 OFFCURVE",
"398 1360 CURVE SMOOTH",
"450 1408 OFFCURVE",
"510 1438 OFFCURVE",
"574 1456 CURVE SMOOTH",
"637 1474 OFFCURVE",
"704 1480 OFFCURVE",
"769 1480 CURVE SMOOTH",
"837 1480 OFFCURVE",
"905 1468 OFFCURVE",
"966 1441 CURVE SMOOTH",
"1026 1413 OFFCURVE",
"1078 1372 OFFCURVE",
"1111 1313 CURVE SMOOTH",
"1174 1194 OFFCURVE",
"1190 1062 OFFCURVE",
"1190 933 CURVE SMOOTH",
"1190 818 OFFCURVE",
"1183 686 OFFCURVE",
"1155 558 CURVE SMOOTH",
"1127 429 OFFCURVE",
"1077 301 OFFCURVE",
"989 200 CURVE SMOOTH",
"929 128 OFFCURVE",
"854 80 OFFCURVE",
"772 50 CURVE SMOOTH",
"690 20 OFFCURVE",
"600 8 OFFCURVE",
"515 8 CURVE SMOOTH",
"419 8 OFFCURVE",
"327 22 OFFCURVE",
"236 49 CURVE",
"239 46 OFFCURVE",
"241 44 OFFCURVE",
"241 41 CURVE SMOOTH"
);
},
{
closed = 1;
nodes = (
"765 793 OFFCURVE",
"853 800 OFFCURVE",
"933 832 CURVE SMOOTH",
"985 852 OFFCURVE",
"1015 899 OFFCURVE",
"1032 949 CURVE SMOOTH",
"1049 999 OFFCURVE",
"1053 1053 OFFCURVE",
"1053 1093 CURVE SMOOTH",
"1053 1166 OFFCURVE",
"1035 1237 OFFCURVE",
"984 1286 CURVE",
"951 1321 OFFCURVE",
"909 1344 OFFCURVE",
"864 1357 CURVE SMOOTH",
"819 1370 OFFCURVE",
"769 1375 OFFCURVE",
"720 1375 CURVE SMOOTH",
"628 1375 OFFCURVE",
"534 1351 OFFCURVE",
"461 1287 CURVE SMOOTH",
"421 1252 OFFCURVE",
"392 1207 OFFCURVE",
"375 1159 CURVE SMOOTH",
"358 1110 OFFCURVE",
"350 1058 OFFCURVE",
"350 1009 CURVE SMOOTH",
"350 974 OFFCURVE",
"354 936 OFFCURVE",
"366 904 CURVE SMOOTH",
"378 872 OFFCURVE",
"398 844 OFFCURVE",
"433 831 CURVE",
"510 799 OFFCURVE",
"596 794 OFFCURVE",
"681 793 CURVE SMOOTH"
);
}
);
width = 1304;
}
);
unicode = 0039;
},
{
glyphname = colon;
lastChange = "2012-10-20 12:59:19 -0400";
layers = (
{
layerId = "16808965-E153-4B2B-ADB3-00196C646C32";
name = "Regular Italic";
paths = (
{
closed = 1;
nodes = (
"239 302 OFFCURVE",
"279 306 OFFCURVE",
"319 306 CURVE SMOOTH",
"357 306 OFFCURVE",
"394 303 OFFCURVE",
"430 297 CURVE",
"427 249 OFFCURVE",
"424 201 OFFCURVE",
"421 154 CURVE SMOOTH",
"418 106 OFFCURVE",
"414 58 OFFCURVE",
"411 10 CURVE",
"375 25 OFFCURVE",
"335 30 OFFCURVE",
"295 30 CURVE SMOOTH",
"253 30 OFFCURVE",
"211 23 OFFCURVE",
"169 10 CURVE",
"181 106 OFFCURVE",
"191 201 OFFCURVE",
"200 297 CURVE"
);
},
{
closed = 1;
nodes = (
"301 1077 OFFCURVE",
"340 1069 OFFCURVE",
"381 1069 CURVE SMOOTH",
"424 1069 OFFCURVE",
"465 1077 OFFCURVE",
"506 1092 CURVE",
"495 1003 OFFCURVE",
"485 914 OFFCURVE",
"477 825 CURVE",
"437 817 OFFCURVE",
"397 813 OFFCURVE",
"358 813 CURVE SMOOTH",
"319 813 OFFCURVE",
"282 817 OFFCURVE",
"246 826 CURVE",
"250 871 OFFCURVE",
"253 915 OFFCURVE",
"256 959 CURVE SMOOTH",
"258 1003 OFFCURVE",
"261 1047 OFFCURVE",
"264 1092 CURVE"
);
}
);
width = 677;
}
);
unicode = 003A;
},
{
glyphname = semicolon;
lastChange = "2012-10-20 12:59:19 -0400";
layers = (
{
layerId = "16808965-E153-4B2B-ADB3-00196C646C32";
name = "Regular Italic";
paths = (
{
closed = 1;
nodes = (
"281 1059 OFFCURVE",
"302 1058 OFFCURVE",
"325 1058 CURVE SMOOTH",
"378 1058 OFFCURVE",
"432 1066 OFFCURVE",
"484 1086 CURVE",
"479 1040 OFFCURVE",
"473 994 OFFCURVE",
"468 949 CURVE SMOOTH",
"463 903 OFFCURVE",
"458 857 OFFCURVE",
"453 811 CURVE",
"402 798 OFFCURVE",
"354 794 OFFCURVE",
"303 794 CURVE SMOOTH",
"292 794 OFFCURVE",
"281 794 OFFCURVE",
"270 794 CURVE SMOOTH",
"259 794 OFFCURVE",
"249 795 OFFCURVE",
"238 796 CURVE",
"243 841 OFFCURVE",
"246 885 OFFCURVE",
"249 929 CURVE SMOOTH",
"252 973 OFFCURVE",
"255 1017 OFFCURVE",
"258 1062 CURVE"
);
},
{
closed = 1;
nodes = (
"206 213 OFFCURVE",
"218 213 OFFCURVE",
"231 214 CURVE",
"243 214 OFFCURVE",
"256 214 OFFCURVE",
"269 214 CURVE SMOOTH",
"310 214 OFFCURVE",
"350 213 OFFCURVE",
"393 209 CURVE",
"392 179 OFFCURVE",
"390 150 OFFCURVE",
"387 121 CURVE SMOOTH",
"384 92 OFFCURVE",
"381 62 OFFCURVE",
"379 32 CURVE",
"346 -23 OFFCURVE",
"312 -77 OFFCURVE",
"279 -130 CURVE SMOOTH",
"246 -184 OFFCURVE",
"213 -238 OFFCURVE",
"180 -293 CURVE",
"137 -296 OFFCURVE",
"95 -303 OFFCURVE",
"55 -318 CURVE",
"75 -258 OFFCURVE",
"95 -199 OFFCURVE",
"116 -140 CURVE SMOOTH",
"136 -82 OFFCURVE",
"156 -23 OFFCURVE",
"177 37 CURVE",
"179 67 OFFCURVE",
"182 96 OFFCURVE",
"185 125 CURVE SMOOTH",
"188 154 OFFCURVE",
"191 183 OFFCURVE",
"193 213 CURVE"
);
}
);
width = 640;
}
);
unicode = 003B;
},
{
glyphname = less;
lastChange = "2012-10-20 12:59:19 -0400";
layers = (
{
layerId = "16808965-E153-4B2B-ADB3-00196C646C32";
name = "Regular Italic";
paths = (
{
closed = 1;
nodes = (
"1093 885 OFFCURVE",
"743 798 OFFCURVE",
"387 710 CURVE",
"542 633 OFFCURVE",
"696 558 OFFCURVE",
"851 485 CURVE SMOOTH",
"1005 411 OFFCURVE",
"1159 335 OFFCURVE",
"1312 256 CURVE",
"1305 183 OFFCURVE",
"1302 111 OFFCURVE",
"1302 38 CURVE",
"1115 134 OFFCURVE",
"926 225 OFFCURVE",
"737 317 CURVE SMOOTH",
"548 408 OFFCURVE",
"358 500 OFFCURVE",
"173 597 CURVE",
"185 668 OFFCURVE",
"197 736 OFFCURVE",
"204 807 CURVE",
"420 860 OFFCURVE",
"637 914 OFFCURVE",
"853 970 CURVE SMOOTH",
"1068 1026 OFFCURVE",
"1283 1086 OFFCURVE",
"1496 1154 CURVE",
"1478 1100 OFFCURVE",
"1461 1046 OFFCURVE",
"1446 992 CURVE"
);
}
);
width = 1562;
}
);
unicode = 003C;
},
{
glyphname = equal;
lastChange = "2012-10-20 12:59:19 -0400";
layers = (
{
layerId = "16808965-E153-4B2B-ADB3-00196C646C32";
name = "Regular Italic";
paths = (
{
closed = 1;
nodes = (
"431 912 OFFCURVE",
"633 909 OFFCURVE",
"837 909 CURVE SMOOTH",
"1057 909 OFFCURVE",
"1270 913 OFFCURVE",
"1490 920 CURVE",
"1470 871 OFFCURVE",
"1454 822 OFFCURVE",
"1443 771 CURVE",
"1236 767 OFFCURVE",
"1029 765 OFFCURVE",
"824 765 CURVE SMOOTH",
"631 765 OFFCURVE",
"438 767 OFFCURVE",
"246 771 CURVE",
"244 822 OFFCURVE",
"238 871 OFFCURVE",
"228 920 CURVE"
);
},
{
closed = 1;
nodes = (
"449 545 OFFCURVE",
"663 546 OFFCURVE",
"882 546 CURVE SMOOTH",
"1062 546 OFFCURVE",
"1239 545 OFFCURVE",
"1419 542 CURVE",
"1419 481 OFFCURVE",
"1425 421 OFFCURVE",
"1441 362 CURVE",
"1234 369 OFFCURVE",
"1029 373 OFFCURVE",
"822 373 CURVE SMOOTH",
"607 373 OFFCURVE",
"394 369 OFFCURVE",
"179 362 CURVE",
"203 421 OFFCURVE",
"219 481 OFFCURVE",
"230 542 CURVE"
);
}
);
width = 1632;
}
);
unicode = 003D;
},
{
glyphname = greater;
lastChange = "2012-10-20 12:59:19 -0400";
layers = (
{
layerId = "16808965-E153-4B2B-ADB3-00196C646C32";
name = "Regular Italic";
paths = (
{
closed = 1;
nodes = (
"293 1136 OFFCURVE",
"295 1162 OFFCURVE",
"298 1189 CURVE SMOOTH",
"300 1215 OFFCURVE",
"301 1241 OFFCURVE",
"302 1268 CURVE",
"487 1171 OFFCURVE",
"677 1079 OFFCURVE",
"866 988 CURVE SMOOTH",
"1054 896 OFFCURVE",
"1243 805 OFFCURVE",
"1430 709 CURVE",
"1417 638 OFFCURVE",
"1405 569 OFFCURVE",
"1398 497 CURVE",
"1290 470 OFFCURVE",
"1182 443 OFFCURVE",
"1074 416 CURVE SMOOTH",
"858 362 OFFCURVE",
"643 306 OFFCURVE",
"429 246 CURVE SMOOTH",
"322 216 OFFCURVE",
"215 184 OFFCURVE",
"108 151 CURVE",
"133 223 OFFCURVE",
"152 296 OFFCURVE",
"171 371 CURVE",
"345 422 OFFCURVE",
"520 470 OFFCURVE",
"695 515 CURVE SMOOTH",
"870 560 OFFCURVE",
"1045 605 OFFCURVE",
"1220 651 CURVE",
"1066 728 OFFCURVE",
"911 804 OFFCURVE",
"755 878 CURVE SMOOTH",
"599 952 OFFCURVE",
"445 1029 OFFCURVE",
"292 1109 CURVE"
);
}
);
width = 1560;
}
);
unicode = 003E;
},
{
glyphname = question;
lastChange = "2012-10-20 12:59:19 -0400";
layers = (
{
layerId = "16808965-E153-4B2B-ADB3-00196C646C32";
name = "Regular Italic";
paths = (
{
closed = 1;
nodes = (
"480 281 OFFCURVE",
"546 283 OFFCURVE",
"611 283 CURVE SMOOTH",
"651 283 LINE",
"648 240 OFFCURVE",
"644 198 OFFCURVE",
"641 156 CURVE SMOOTH",
"638 113 OFFCURVE",
"634 71 OFFCURVE",
"631 28 CURVE",
"591 28 LINE SMOOTH",
"523 28 OFFCURVE",
"454 26 OFFCURVE",
"385 21 CURVE",
"390 64 OFFCURVE",
"396 107 OFFCURVE",
"401 150 CURVE SMOOTH",
"406 192 OFFCURVE",
"411 235 OFFCURVE",
"416 278 CURVE"
);
},
{
closed = 1;
nodes = (
"590 424 OFFCURVE",
"515 423 OFFCURVE",
"436 420 CURVE",
"439 446 OFFCURVE",
"441 472 OFFCURVE",
"443 497 CURVE SMOOTH",
"447 548 OFFCURVE",
"453 598 OFFCURVE",
"465 648 CURVE SMOOTH",
"477 698 OFFCURVE",
"500 753 OFFCURVE",
"544 801 CURVE SMOOTH",
"565 824 OFFCURVE",
"588 847 OFFCURVE",
"611 868 CURVE",
"611 867 LINE",
"629 880 OFFCURVE",
"646 895 OFFCURVE",
"663 910 CURVE SMOOTH",
"679 925 OFFCURVE",
"696 939 OFFCURVE",
"714 952 CURVE",
"713 952 LINE",
"746 977 OFFCURVE",
"789 1009 OFFCURVE",
"824 1045 CURVE SMOOTH",
"859 1081 OFFCURVE",
"885 1121 OFFCURVE",
"885 1164 CURVE SMOOTH",
"885 1228 OFFCURVE",
"860 1278 OFFCURVE",
"820 1314 CURVE SMOOTH",
"780 1349 OFFCURVE",
"725 1368 OFFCURVE",
"665 1368 CURVE SMOOTH",
"548 1368 OFFCURVE",
"431 1322 OFFCURVE",
"324 1266 CURVE",
"325 1289 OFFCURVE",
"326 1311 OFFCURVE",
"327 1333 CURVE SMOOTH",
"328 1355 OFFCURVE",
"329 1377 OFFCURVE",
"330 1400 CURVE",
"453 1452 OFFCURVE",
"581 1479 OFFCURVE",
"710 1479 CURVE SMOOTH",
"758 1479 OFFCURVE",
"808 1476 OFFCURVE",
"856 1465 CURVE SMOOTH",
"903 1453 OFFCURVE",
"946 1434 OFFCURVE",
"982 1402 CURVE SMOOTH",
"1033 1355 OFFCURVE",
"1055 1289 OFFCURVE",
"1055 1220 CURVE SMOOTH",
"1055 1148 OFFCURVE",
"1031 1086 OFFCURVE",
"995 1029 CURVE SMOOTH",
"959 972 OFFCURVE",
"910 921 OFFCURVE",
"862 870 CURVE SMOOTH",
"834 841 OFFCURVE",
"807 813 OFFCURVE",
"779 785 CURVE",
"772 774 OFFCURVE",
"765 764 OFFCURVE",
"758 754 CURVE",
"751 743 OFFCURVE",
"744 733 OFFCURVE",
"737 723 CURVE",
"737 724 LINE",
"730 714 OFFCURVE",
"722 704 OFFCURVE",
"715 694 CURVE SMOOTH",
"708 684 OFFCURVE",
"702 673 OFFCURVE",
"698 662 CURVE SMOOTH",
"685 624 OFFCURVE",
"677 585 OFFCURVE",
"675 544 CURVE SMOOTH",
"673 503 OFFCURVE",
"670 463 OFFCURVE",
"667 424 CURVE"
);
}
);
width = 1071;
}
);
unicode = 003F;
},
{
glyphname = at;
lastChange = "2012-10-20 12:59:19 -0400";
layers = (
{
layerId = "16808965-E153-4B2B-ADB3-00196C646C32";
name = "Regular Italic";
paths = (
{
closed = 1;
nodes = (
"700 603 OFFCURVE",
"699 590 OFFCURVE",
"699 578 CURVE SMOOTH",
"699 502 OFFCURVE",
"724 443 OFFCURVE",
"767 403 CURVE SMOOTH",
"810 363 OFFCURVE",
"870 342 OFFCURVE",
"941 342 CURVE SMOOTH",
"1009 342 OFFCURVE",
"1080 363 OFFCURVE",
"1131 414 CURVE SMOOTH",
"1195 478 OFFCURVE",
"1219 569 OFFCURVE",
"1219 653 CURVE SMOOTH",
"1219 726 OFFCURVE",
"1193 785 OFFCURVE",
"1150 825 CURVE SMOOTH",
"1107 864 OFFCURVE",
"1047 885 OFFCURVE",
"978 885 CURVE SMOOTH",
"909 885 OFFCURVE",
"839 863 OFFCURVE",
"787 812 CURVE SMOOTH",
"731 759 OFFCURVE",
"708 687 OFFCURVE",
"701 615 CURVE SMOOTH"
);
},
{
closed = 1;
nodes = (
"1193 228 OFFCURVE",
"1146 188 OFFCURVE",
"1092 160 CURVE SMOOTH",
"1038 131 OFFCURVE",
"979 115 OFFCURVE",
"919 115 CURVE SMOOTH",
"815 115 OFFCURVE",
"721 146 OFFCURVE",
"661 229 CURVE",
"606 298 OFFCURVE",
"587 386 OFFCURVE",
"587 477 CURVE SMOOTH",
"587 540 OFFCURVE",
"595 606 OFFCURVE",
"615 670 CURVE SMOOTH",
"635 733 OFFCURVE",
"667 792 OFFCURVE",
"715 841 CURVE SMOOTH",
"790 922 OFFCURVE",
"888 957 OFFCURVE",
"992 957 CURVE SMOOTH",
"1052 957 OFFCURVE",
"1108 940 OFFCURVE",
"1157 912 CURVE SMOOTH",
"1206 883 OFFCURVE",
"1246 843 OFFCURVE",
"1277 796 CURVE",
"1280 820 OFFCURVE",
"1283 844 OFFCURVE",
"1286 868 CURVE SMOOTH",
"1289 892 OFFCURVE",
"1291 916 OFFCURVE",
"1293 940 CURVE",
"1332 940 OFFCURVE",
"1370 941 OFFCURVE",
"1409 942 CURVE",
"1382 702 OFFCURVE",
"1360 468 OFFCURVE",
"1344 228 CURVE",
"1437 241 OFFCURVE",
"1525 284 OFFCURVE",
"1585 361 CURVE SMOOTH",
"1625 413 OFFCURVE",
"1653 475 OFFCURVE",
"1670 537 CURVE SMOOTH",
"1686 599 OFFCURVE",
"1693 663 OFFCURVE",
"1693 723 CURVE SMOOTH",
"1693 830 OFFCURVE",
"1668 933 OFFCURVE",
"1612 1021 CURVE",
"1553 1105 OFFCURVE",
"1471 1168 OFFCURVE",
"1379 1211 CURVE SMOOTH",
"1286 1254 OFFCURVE",
"1180 1275 OFFCURVE",
"1075 1275 CURVE SMOOTH",
"920 1275 OFFCURVE",
"762 1237 OFFCURVE",
"625 1153 CURVE",
"626 1153 LINE",
"502 1080 OFFCURVE",
"412 971 OFFCURVE",
"352 848 CURVE SMOOTH",
"292 725 OFFCURVE",
"264 586 OFFCURVE",
"264 453 CURVE SMOOTH",
"264 393 OFFCURVE",
"271 335 OFFCURVE",
"295 283 CURVE SMOOTH",
"334 199 OFFCURVE",
"391 128 OFFCURVE",
"447 56 CURVE",
"508 -13 OFFCURVE",
"584 -57 OFFCURVE",
"668 -82 CURVE SMOOTH",
"752 -107 OFFCURVE",
"844 -116 OFFCURVE",
"935 -117 CURVE SMOOTH",
"1098 -116 OFFCURVE",
"1267 -75 OFFCURVE",
"1407 25 CURVE",
"1430 -31 OFFCURVE",
"1452 -83 OFFCURVE",
"1479 -136 CURVE",
"1310 -256 OFFCURVE",
"1112 -313 OFFCURVE",
"915 -313 CURVE SMOOTH",
"804 -313 OFFCURVE",
"692 -295 OFFCURVE",
"590 -257 CURVE SMOOTH",
"488 -219 OFFCURVE",
"396 -160 OFFCURVE",
"325 -79 CURVE SMOOTH",
"262 -11 OFFCURVE",
"219 71 OFFCURVE",
"191 159 CURVE SMOOTH",
"163 247 OFFCURVE",
"151 342 OFFCURVE",
"151 437 CURVE SMOOTH",
"151 562 OFFCURVE",
"172 696 OFFCURVE",
"217 821 CURVE SMOOTH",
"262 945 OFFCURVE",
"333 1062 OFFCURVE",
"432 1157 CURVE",
"525 1237 OFFCURVE",
"634 1297 OFFCURVE",
"748 1337 CURVE SMOOTH",
"862 1377 OFFCURVE",
"981 1396 OFFCURVE",
"1100 1396 CURVE SMOOTH",
"1224 1396 OFFCURVE",
"1344 1372 OFFCURVE",
"1449 1324 CURVE SMOOTH",
"1554 1275 OFFCURVE",
"1644 1202 OFFCURVE",
"1708 1105 CURVE SMOOTH",
"1772 1008 OFFCURVE",
"1809 887 OFFCURVE",
"1809 740 CURVE SMOOTH",
"1809 657 OFFCURVE",
"1797 567 OFFCURVE",
"1769 482 CURVE SMOOTH",
"1741 397 OFFCURVE",
"1696 316 OFFCURVE",
"1628 253 CURVE SMOOTH",
"1572 201 OFFCURVE",
"1506 166 OFFCURVE",
"1436 143 CURVE SMOOTH",
"1366 120 OFFCURVE",
"1291 110 OFFCURVE",
"1220 110 CURVE",
"1222 138 OFFCURVE",
"1224 166 OFFCURVE",
"1226 193 CURVE SMOOTH",
"1228 220 OFFCURVE",
"1230 248 OFFCURVE",
"1232 276 CURVE"
);
}
);
width = 1939;
}
);
unicode = 0040;
},
{
glyphname = A;
lastChange = "2013-03-08 02:08:16 -0500";
layers = (
{
anchors = (
{
name = _dotbelow;
position = "{700, 0}";
},
{
name = _hook;
position = "{829, 1544}";
},
{
name = ogonek;
position = "{1444, 77}";
},
{
name = top;
position = "{832, 1454}";
}
);
layerId = "16808965-E153-4B2B-ADB3-00196C646C32";
name = "Regular Italic";
paths = (
{
closed = 1;
nodes = (
"758 1175 OFFCURVE",
"701 1036 OFFCURVE",
"645 897 CURVE SMOOTH",
"589 758 OFFCURVE",
"531 619 OFFCURVE",
"472 480 CURVE",
"564 481 OFFCURVE",
"652 482 OFFCURVE",
"744 482 CURVE SMOOTH",
"790 482 OFFCURVE",
"835 482 OFFCURVE",
"880 482 CURVE SMOOTH",
"925 481 OFFCURVE",
"970 481 OFFCURVE",
"1016 481 CURVE",
"981 620 OFFCURVE",
"948 759 OFFCURVE",
"916 898 CURVE SMOOTH",
"884 1036 OFFCURVE",
"851 1175 OFFCURVE",
"817 1314 CURVE"
);
},
{
closed = 1;
nodes = (
"919 1454 LINE",
"955 1333 OFFCURVE",
"990 1211 OFFCURVE",
"1024 1089 CURVE SMOOTH",
"1091 845 OFFCURVE",
"1161 603 OFFCURVE",
"1241 364 CURVE SMOOTH",
"1281 244 OFFCURVE",
"1325 126 OFFCURVE",
"1374 10 CURVE",
"1286 18 OFFCURVE",
"1198 25 OFFCURVE",
"1109 29 CURVE",
"1090 107 OFFCURVE",
"1073 187 OFFCURVE",
"1058 268 CURVE",
"946 271 OFFCURVE",
"838 272 OFFCURVE",
"726 272 CURVE SMOOTH",
"614 272 OFFCURVE",
"505 271 OFFCURVE",
"394 268 CURVE",
"361 187 OFFCURVE",
"324 108 OFFCURVE",
"285 28 CURVE",
"201 23 OFFCURVE",
"117 17 OFFCURVE",
"34 10 CURVE",
"170 243 OFFCURVE",
"288 483 OFFCURVE",
"403 726 CURVE SMOOTH",
"460 847 OFFCURVE",
"517 969 OFFCURVE",
"573 1091 CURVE SMOOTH",
"628 1212 OFFCURVE",
"685 1333 OFFCURVE",
"744 1454 CURVE"
);
}
);
width = 1640;
}
);
unicode = 0041;
},
{
glyphname = B;
lastChange = "2012-10-20 12:59:19 -0400";
layers = (
{
layerId = "16808965-E153-4B2B-ADB3-00196C646C32";
name = "Regular Italic";
paths = (
{
closed = 1;
nodes = (
"484 723 LINE",
"477 652 OFFCURVE",
"470 581 OFFCURVE",
"463 510 CURVE SMOOTH",
"456 439 OFFCURVE",
"447 368 OFFCURVE",
"438 297 CURVE",
"546 301 OFFCURVE",
"653 304 OFFCURVE",
"761 304 CURVE SMOOTH",
"841 304 OFFCURVE",
"924 308 OFFCURVE",
"1000 347 CURVE",
"1032 366 OFFCURVE",
"1055 396 OFFCURVE",
"1071 431 CURVE SMOOTH",
"1086 466 OFFCURVE",
"1092 503 OFFCURVE",
"1092 538 CURVE SMOOTH",
"1092 589 OFFCURVE",
"1056 626 OFFCURVE",
"1024 657 CURVE",
"1025 657 LINE",
"996 685 OFFCURVE",
"959 701 OFFCURVE",
"920 710 CURVE SMOOTH",
"880 719 OFFCURVE",
"838 723 OFFCURVE",
"798 723 CURVE SMOOTH"
);
},
{
closed = 1;
nodes = (
"519 1188 OFFCURVE",
"509 1027 OFFCURVE",
"496 863 CURVE",
"545 862 OFFCURVE",
"593 861 OFFCURVE",
"642 861 CURVE SMOOTH",
"690 861 OFFCURVE",
"738 861 OFFCURVE",
"787 861 CURVE SMOOTH",
"858 861 OFFCURVE",
"933 868 OFFCURVE",
"996 911 CURVE SMOOTH",
"1036 938 OFFCURVE",
"1061 975 OFFCURVE",
"1077 1013 CURVE SMOOTH",
"1092 1051 OFFCURVE",
"1097 1090 OFFCURVE",
"1097 1125 CURVE SMOOTH",
"1097 1208 OFFCURVE",
"1063 1262 OFFCURVE",
"1012 1296 CURVE SMOOTH",
"961 1330 OFFCURVE",
"894 1342 OFFCURVE",
"827 1342 CURVE SMOOTH",
"725 1342 OFFCURVE",
"624 1345 OFFCURVE",
"524 1351 CURVE"
);
},
{
closed = 1;
nodes = (
"497 1463 OFFCURVE",
"649 1457 OFFCURVE",
"802 1454 CURVE SMOOTH",
"891 1453 OFFCURVE",
"980 1445 OFFCURVE",
"1061 1414 CURVE SMOOTH",
"1117 1393 OFFCURVE",
"1159 1358 OFFCURVE",
"1187 1315 CURVE SMOOTH",
"1214 1271 OFFCURVE",
"1228 1222 OFFCURVE",
"1228 1170 CURVE SMOOTH",
"1228 1091 OFFCURVE",
"1206 1006 OFFCURVE",
"1162 938 CURVE SMOOTH",
"1117 870 OFFCURVE",
"1050 819 OFFCURVE",
"959 811 CURVE",
"958 794 LINE",
"1046 787 OFFCURVE",
"1129 751 OFFCURVE",
"1190 693 CURVE SMOOTH",
"1250 635 OFFCURVE",
"1288 554 OFFCURVE",
"1288 465 CURVE SMOOTH",
"1288 404 OFFCURVE",
"1280 339 OFFCURVE",
"1258 280 CURVE SMOOTH",
"1236 221 OFFCURVE",
"1197 167 OFFCURVE",
"1140 130 CURVE SMOOTH",
"1080 91 OFFCURVE",
"1016 68 OFFCURVE",
"950 55 CURVE SMOOTH",
"884 42 OFFCURVE",
"814 38 OFFCURVE",
"749 38 CURVE SMOOTH",
"572 38 OFFCURVE",
"398 30 OFFCURVE",
"219 10 CURVE",
"308 503 OFFCURVE",
"348 991 OFFCURVE",
"348 1484 CURVE"
);
}
);
width = 1471;
}
);
unicode = 0042;
},
{
glyphname = C;
lastChange = "2012-10-20 12:59:19 -0400";
layers = (
{
anchors = (
{
name = bottom;
position = "{830, 0}";
},
{
name = top;
position = "{830, 1454}";
}
);
layerId = "16808965-E153-4B2B-ADB3-00196C646C32";
name = "Regular Italic";
paths = (
{
closed = 1;
nodes = (
"1380 1313 OFFCURVE",
"1370 1251 OFFCURVE",
"1361 1187 CURVE",
"1261 1288 OFFCURVE",
"1117 1339 OFFCURVE",
"969 1339 CURVE SMOOTH",
"897 1339 OFFCURVE",
"822 1331 OFFCURVE",
"750 1310 CURVE SMOOTH",
"678 1289 OFFCURVE",
"611 1253 OFFCURVE",
"555 1197 CURVE",
"486 1122 OFFCURVE",
"442 1033 OFFCURVE",
"416 941 CURVE SMOOTH",
"390 849 OFFCURVE",
"380 754 OFFCURVE",
"380 670 CURVE SMOOTH",
"380 617 OFFCURVE",
"385 562 OFFCURVE",
"400 513 CURVE SMOOTH",
"415 464 OFFCURVE",
"440 419 OFFCURVE",
"480 384 CURVE SMOOTH",
"532 341 OFFCURVE",
"596 318 OFFCURVE",
"663 303 CURVE SMOOTH",
"730 288 OFFCURVE",
"801 285 OFFCURVE",
"868 285 CURVE SMOOTH",
"943 285 OFFCURVE",
"1018 298 OFFCURVE",
"1090 326 CURVE SMOOTH",
"1162 353 OFFCURVE",
"1229 392 OFFCURVE",
"1288 444 CURVE",
"1283 347 OFFCURVE",
"1280 250 OFFCURVE",
"1280 154 CURVE SMOOTH",
"1280 121 LINE",
"1145 38 OFFCURVE",
"991 9 OFFCURVE",
"842 9 CURVE SMOOTH",
"746 9 OFFCURVE",
"648 21 OFFCURVE",
"558 50 CURVE SMOOTH",
"468 78 OFFCURVE",
"385 125 OFFCURVE",
"322 197 CURVE",
"275 257 OFFCURVE",
"244 326 OFFCURVE",
"225 399 CURVE SMOOTH",
"205 472 OFFCURVE",
"198 549 OFFCURVE",
"198 628 CURVE SMOOTH",
"198 733 OFFCURVE",
"208 857 OFFCURVE",
"241 974 CURVE SMOOTH",
"273 1091 OFFCURVE",
"328 1203 OFFCURVE",
"416 1290 CURVE SMOOTH",
"492 1366 OFFCURVE",
"584 1414 OFFCURVE",
"681 1443 CURVE SMOOTH",
"778 1471 OFFCURVE",
"881 1481 OFFCURVE",
"978 1481 CURVE SMOOTH",
"1051 1481 OFFCURVE",
"1126 1473 OFFCURVE",
"1198 1456 CURVE SMOOTH",
"1269 1439 OFFCURVE",
"1335 1410 OFFCURVE",
"1394 1369 CURVE",
"1394 1370 OFFCURVE",
"1393 1373 OFFCURVE",
"1392 1377 CURVE"
);
}
);
width = 1522;
}
);
unicode = 0043;
},
{
glyphname = D;
lastChange = "2013-05-03 04:09:34 -0400";
layers = (
{
anchors = (
{
name = bottom;
position = "{809, -21}";
},
{
name = center;
position = "{794, 727}";
},
{
name = top;
position = "{794, 1454}";
}
);
layerId = "16808965-E153-4B2B-ADB3-00196C646C32";
name = "Regular Italic";
paths = (
{
closed = 1;
nodes = (
"523 1005 OFFCURVE",
"500 691 OFFCURVE",
"461 374 CURVE",
"542 377 OFFCURVE",
"623 379 OFFCURVE",
"705 380 CURVE SMOOTH",
"740 381 OFFCURVE",
"775 383 OFFCURVE",
"811 384 CURVE SMOOTH",
"882 387 OFFCURVE",
"954 396 OFFCURVE",
"1023 416 CURVE SMOOTH",
"1057 426 OFFCURVE",
"1090 440 OFFCURVE",
"1123 459 CURVE",
"1175 495 OFFCURVE",
"1213 544 OFFCURVE",
"1242 598 CURVE SMOOTH",
"1271 652 OFFCURVE",
"1291 710 OFFCURVE",
"1310 766 CURVE",
"1313 798 OFFCURVE",
"1314 832 OFFCURVE",
"1314 865 CURVE SMOOTH",
"1314 921 OFFCURVE",
"1310 976 OFFCURVE",
"1296 1028 CURVE SMOOTH",
"1282 1080 OFFCURVE",
"1259 1129 OFFCURVE",
"1223 1170 CURVE",
"1166 1230 OFFCURVE",
"1094 1265 OFFCURVE",
"1018 1285 CURVE SMOOTH",
"941 1305 OFFCURVE",
"859 1311 OFFCURVE",
"782 1314 CURVE SMOOTH",
"699 1315 OFFCURVE",
"618 1318 OFFCURVE",
"534 1322 CURVE"
);
},
{
closed = 1;
nodes = (
"481 1468 OFFCURVE",
"614 1460 OFFCURVE",
"750 1457 CURVE SMOOTH",
"855 1452 OFFCURVE",
"968 1446 OFFCURVE",
"1073 1424 CURVE SMOOTH",
"1177 1402 OFFCURVE",
"1276 1363 OFFCURVE",
"1355 1291 CURVE",
"1407 1239 OFFCURVE",
"1439 1176 OFFCURVE",
"1459 1108 CURVE SMOOTH",
"1479 1039 OFFCURVE",
"1485 964 OFFCURVE",
"1485 891 CURVE SMOOTH",
"1485 788 OFFCURVE",
"1477 657 OFFCURVE",
"1445 532 CURVE SMOOTH",
"1413 407 OFFCURVE",
"1356 285 OFFCURVE",
"1257 201 CURVE",
"1165 130 OFFCURVE",
"1061 91 OFFCURVE",
"953 68 CURVE SMOOTH",
"845 45 OFFCURVE",
"733 39 OFFCURVE",
"626 35 CURVE SMOOTH",
"489 31 OFFCURVE",
"356 25 OFFCURVE",
"219 10 CURVE",
"307 459 OFFCURVE",
"349 906 OFFCURVE",
"349 1355 CURVE SMOOTH",
"349 1376 OFFCURVE",
"349 1398 OFFCURVE",
"349 1420 CURVE SMOOTH",
"349 1441 OFFCURVE",
"349 1463 OFFCURVE",
"348 1484 CURVE"
);
}
);
width = 1601;
}
);
unicode = 0044;
},
{
glyphname = E;
lastChange = "2013-03-08 01:35:01 -0500";
layers = (
{
anchors = (
{
name = bottom;
position = "{649, 74}";
},
{
name = ogonek;
position = "{1211, 78}";
},
{
name = top;
position = "{649, 1454}";
}
);
layerId = "16808965-E153-4B2B-ADB3-00196C646C32";
name = "Regular Italic";
paths = (
{
closed = 1;
nodes = (
"499 1463 OFFCURVE",
"650 1453 OFFCURVE",
"805 1453 CURVE SMOOTH",
"961 1453 OFFCURVE",
"1115 1463 OFFCURVE",
"1272 1482 CURVE",
"1268 1457 OFFCURVE",
"1264 1431 OFFCURVE",
"1259 1406 CURVE SMOOTH",
"1254 1381 OFFCURVE",
"1250 1355 OFFCURVE",
"1247 1330 CURVE",
"1102 1315 OFFCURVE",
"957 1308 OFFCURVE",
"812 1308 CURVE SMOOTH",
"715 1308 OFFCURVE",
"618 1311 OFFCURVE",
"522 1317 CURVE",
"515 1166 OFFCURVE",
"504 1018 OFFCURVE",
"492 867 CURVE",
"576 866 OFFCURVE",
"658 865 OFFCURVE",
"742 865 CURVE SMOOTH",
"883 865 OFFCURVE",
"1020 867 OFFCURVE",
"1161 870 CURVE",
"1158 845 OFFCURVE",
"1155 821 OFFCURVE",
"1153 796 CURVE SMOOTH",
"1151 771 OFFCURVE",
"1149 747 OFFCURVE",
"1147 722 CURVE",
"1035 722 OFFCURVE",
"924 722 OFFCURVE",
"814 722 CURVE SMOOTH",
"703 721 OFFCURVE",
"592 721 OFFCURVE",
"480 721 CURVE",
"468 584 OFFCURVE",
"454 449 OFFCURVE",
"439 312 CURVE",
"533 316 OFFCURVE",
"627 318 OFFCURVE",
"720 318 CURVE SMOOTH",
"869 318 OFFCURVE",
"1017 313 OFFCURVE",
"1166 301 CURVE",
"1161 204 OFFCURVE",
"1161 107 OFFCURVE",
"1161 10 CURVE",
"1008 29 OFFCURVE",
"853 38 OFFCURVE",
"696 38 CURVE SMOOTH",
"537 38 OFFCURVE",
"379 29 OFFCURVE",
"219 10 CURVE",
"303 503 OFFCURVE",
"343 991 OFFCURVE",
"348 1484 CURVE"
);
}
);
width = 1427;
}
);
unicode = 0045;
},
{
glyphname = F;
lastChange = "2012-10-20 12:59:19 -0400";
layers = (
{
layerId = "16808965-E153-4B2B-ADB3-00196C646C32";
name = "Regular Italic";
paths = (
{
closed = 1;
nodes = (
"467 1461 OFFCURVE",
"589 1453 OFFCURVE",
"713 1453 CURVE SMOOTH",
"858 1453 OFFCURVE",
"1000 1464 OFFCURVE",
"1145 1484 CURVE",
"1136 1429 OFFCURVE",
"1128 1377 OFFCURVE",
"1120 1322 CURVE",
"979 1305 OFFCURVE",
"840 1298 OFFCURVE",
"699 1298 CURVE SMOOTH",
"638 1298 OFFCURVE",
"577 1299 OFFCURVE",
"517 1302 CURVE",
"501 1157 OFFCURVE",
"485 1013 OFFCURVE",
"466 868 CURVE",
"497 868 OFFCURVE",
"527 868 OFFCURVE",
"557 868 CURVE SMOOTH",
"587 867 OFFCURVE",
"617 867 OFFCURVE",
"648 867 CURVE SMOOTH",
"771 867 OFFCURVE",
"891 868 OFFCURVE",
"1014 871 CURVE",
"1010 840 OFFCURVE",
"1007 809 OFFCURVE",
"1005 778 CURVE SMOOTH",
"1002 747 OFFCURVE",
"999 715 OFFCURVE",
"996 684 CURVE",
"966 685 OFFCURVE",
"936 685 OFFCURVE",
"907 685 CURVE SMOOTH",
"878 685 OFFCURVE",
"848 685 OFFCURVE",
"818 685 CURVE SMOOTH",
"758 685 OFFCURVE",
"698 685 OFFCURVE",
"639 685 CURVE SMOOTH",
"580 684 OFFCURVE",
"520 684 OFFCURVE",
"460 684 CURVE",
"445 465 OFFCURVE",
"432 252 OFFCURVE",
"411 33 CURVE",
"334 28 OFFCURVE",
"255 22 OFFCURVE",
"178 10 CURVE",
"270 501 OFFCURVE",
"322 986 OFFCURVE",
"346 1478 CURVE"
);
}
);
width = 1118;
}
);
unicode = 0046;
},
{
glyphname = G;
lastChange = "2012-10-20 12:59:19 -0400";
layers = (
{
anchors = (
{
name = bottom;
position = "{875, 0}";
},
{
name = top;
position = "{875, 1454}";
}
);
layerId = "16808965-E153-4B2B-ADB3-00196C646C32";
name = "Regular Italic";
paths = (
{
closed = 1;
nodes = (
"1185 410 OFFCURVE",
"1187 438 OFFCURVE",
"1189 466 CURVE SMOOTH",
"1191 493 OFFCURVE",
"1193 521 OFFCURVE",
"1195 549 CURVE",
"1145 550 OFFCURVE",
"1095 551 OFFCURVE",
"1045 551 CURVE SMOOTH",
"994 551 OFFCURVE",
"944 551 OFFCURVE",
"894 551 CURVE",
"910 740 LINE",
"993 740 OFFCURVE",
"1076 740 OFFCURVE",
"1158 741 CURVE SMOOTH",
"1240 741 OFFCURVE",
"1323 741 OFFCURVE",
"1406 741 CURVE",
"1389 541 OFFCURVE",
"1378 344 OFFCURVE",
"1378 145 CURVE",
"1299 94 OFFCURVE",
"1214 60 OFFCURVE",
"1126 40 CURVE SMOOTH",
"1037 19 OFFCURVE",
"946 10 OFFCURVE",
"857 10 CURVE SMOOTH",
"760 10 OFFCURVE",
"658 18 OFFCURVE",
"565 46 CURVE SMOOTH",
"472 73 OFFCURVE",
"387 119 OFFCURVE",
"323 194 CURVE SMOOTH",
"275 250 OFFCURVE",
"244 317 OFFCURVE",
"225 389 CURVE SMOOTH",
"205 461 OFFCURVE",
"199 538 OFFCURVE",
"199 614 CURVE SMOOTH",
"199 685 OFFCURVE",
"203 765 OFFCURVE",
"215 846 CURVE SMOOTH",
"227 927 OFFCURVE",
"247 1010 OFFCURVE",
"280 1087 CURVE SMOOTH",
"312 1163 OFFCURVE",
"358 1234 OFFCURVE",
"419 1293 CURVE SMOOTH",
"492 1366 OFFCURVE",
"584 1413 OFFCURVE",
"681 1442 CURVE SMOOTH",
"777 1470 OFFCURVE",
"878 1481 OFFCURVE",
"974 1481 CURVE SMOOTH",
"1058 1481 OFFCURVE",
"1143 1474 OFFCURVE",
"1224 1458 CURVE SMOOTH",
"1304 1441 OFFCURVE",
"1381 1413 OFFCURVE",
"1450 1369 CURVE",
"1445 1341 OFFCURVE",
"1441 1313 OFFCURVE",
"1436 1285 CURVE SMOOTH",
"1431 1257 OFFCURVE",
"1427 1229 OFFCURVE",
"1424 1201 CURVE",
"1365 1254 OFFCURVE",
"1296 1294 OFFCURVE",
"1220 1320 CURVE SMOOTH",
"1144 1346 OFFCURVE",
"1062 1358 OFFCURVE",
"981 1358 CURVE SMOOTH",
"909 1358 OFFCURVE",
"831 1351 OFFCURVE",
"758 1331 CURVE SMOOTH",
"685 1310 OFFCURVE",
"615 1275 OFFCURVE",
"558 1220 CURVE",
"489 1148 OFFCURVE",
"446 1060 OFFCURVE",
"420 969 CURVE SMOOTH",
"394 878 OFFCURVE",
"385 785 OFFCURVE",
"385 702 CURVE SMOOTH",
"385 646 OFFCURVE",
"388 587 OFFCURVE",
"403 535 CURVE SMOOTH",
"418 482 OFFCURVE",
"442 433 OFFCURVE",
"486 396 CURVE",
"539 357 OFFCURVE",
"603 335 OFFCURVE",
"669 323 CURVE SMOOTH",
"735 310 OFFCURVE",
"804 305 OFFCURVE",
"872 304 CURVE",
"897 305 OFFCURVE",
"924 305 OFFCURVE",
"953 306 CURVE SMOOTH",
"1010 307 OFFCURVE",
"1068 316 OFFCURVE",
"1117 335 CURVE SMOOTH",
"1142 344 OFFCURVE",
"1163 358 OFFCURVE",
"1180 375 CURVE SMOOTH",
"1181 376 OFFCURVE",
"1181 378 OFFCURVE",
"1182 379 CURVE SMOOTH",
"1183 380 OFFCURVE",
"1183 381 OFFCURVE",
"1184 382 CURVE"
);
}
);
width = 1615;
}
);
unicode = 0047;
},
{
glyphname = H;
lastChange = "2012-10-20 12:59:19 -0400";
layers = (
{
anchors = (
{
name = center;
position = "{778, 727}";
},
{
name = top;
position = "{778, 1454}";
}
);
layerId = "16808965-E153-4B2B-ADB3-00196C646C32";
name = "Regular Italic";
paths = (
{
closed = 1;
nodes = (
"410 1473 OFFCURVE",
"472 1468 OFFCURVE",
"536 1464 CURVE",
"529 1232 OFFCURVE",
"516 1003 OFFCURVE",
"496 770 CURVE",
"529 770 OFFCURVE",
"561 770 OFFCURVE",
"594 770 CURVE SMOOTH",
"627 769 OFFCURVE",
"659 769 OFFCURVE",
"692 769 CURVE SMOOTH",
"851 769 OFFCURVE",
"1008 770 OFFCURVE",
"1167 771 CURVE",
"1187 1004 OFFCURVE",
"1213 1233 OFFCURVE",
"1252 1465 CURVE",
"1284 1468 OFFCURVE",
"1316 1471 OFFCURVE",
"1349 1474 CURVE SMOOTH",
"1381 1476 OFFCURVE",
"1413 1479 OFFCURVE",
"1445 1482 CURVE",
"1372 1062 OFFCURVE",
"1332 646 OFFCURVE",
"1332 226 CURVE SMOOTH",
"1332 154 OFFCURVE",
"1333 82 OFFCURVE",
"1336 10 CURVE",
"1267 18 OFFCURVE",
"1198 23 OFFCURVE",
"1126 28 CURVE",
"1127 192 OFFCURVE",
"1134 353 OFFCURVE",
"1146 517 CURVE",
"1033 519 OFFCURVE",
"920 520 OFFCURVE",
"809 520 CURVE SMOOTH",
"697 520 OFFCURVE",
"585 519 OFFCURVE",
"473 517 CURVE",
"456 354 OFFCURVE",
"435 191 OFFCURVE",
"410 28 CURVE",
"339 23 OFFCURVE",
"268 17 OFFCURVE",
"198 10 CURVE",
"298 501 OFFCURVE",
"342 989 OFFCURVE",
"347 1482 CURVE"
);
}
);
width = 1602;
}
);
unicode = 0048;
},
{
glyphname = I;
lastChange = "2013-05-03 08:19:12 -0400";
layers = (
{
anchors = (
{
name = bottom;
position = "{287, -12}";
},
{
name = ogonek;
position = "{534, 119}";
},
{
name = top;
position = "{422, 1415}";
}
);
layerId = "16808965-E153-4B2B-ADB3-00196C646C32";
name = "Regular Italic";
paths = (
{
closed = 1;
nodes = (
"369 1459 OFFCURVE",
"395 1454 OFFCURVE",
"422 1454 CURVE SMOOTH",
"454 1454 OFFCURVE",
"485 1459 OFFCURVE",
"516 1474 CURVE",
"472 983 OFFCURVE",
"435 501 OFFCURVE",
"408 10 CURVE",
"376 29 OFFCURVE",
"340 38 OFFCURVE",
"301 38 CURVE SMOOTH",
"262 38 OFFCURVE",
"223 29 OFFCURVE",
"186 10 CURVE",
"249 499 OFFCURVE",
"297 979 OFFCURVE",
"344 1468 CURVE"
);
}
);
width = 674;
}
);
unicode = 0049;
},
{
glyphname = J;
lastChange = "2012-10-20 12:59:19 -0400";
layers = (
{
anchors = (
{
name = top;
position = "{377, 1454}";
}
);
layerId = "16808965-E153-4B2B-ADB3-00196C646C32";
name = "Regular Italic";
paths = (
{
closed = 1;
nodes = (
"613 1455 OFFCURVE",
"677 1457 OFFCURVE",
"741 1472 CURVE",
"664 1005 OFFCURVE",
"605 538 OFFCURVE",
"553 70 CURVE SMOOTH",
"546 9 OFFCURVE",
"539 -55 OFFCURVE",
"521 -117 CURVE SMOOTH",
"503 -179 OFFCURVE",
"474 -237 OFFCURVE",
"426 -284 CURVE",
"377 -327 OFFCURVE",
"321 -349 OFFCURVE",
"262 -365 CURVE SMOOTH",
"233 -373 OFFCURVE",
"203 -379 OFFCURVE",
"173 -384 CURVE SMOOTH",
"142 -389 OFFCURVE",
"113 -395 OFFCURVE",
"84 -400 CURVE",
"85 -400 LINE",
"49 -403 OFFCURVE",
"13 -406 OFFCURVE",
"-23 -410 CURVE",
"-10 -306 OFFCURVE",
"0 -205 OFFCURVE",
"11 -101 CURVE",
"25 -102 OFFCURVE",
"39 -103 OFFCURVE",
"54 -104 CURVE SMOOTH",
"68 -105 OFFCURVE",
"82 -107 OFFCURVE",
"96 -108 CURVE",
"152 -99 OFFCURVE",
"216 -82 OFFCURVE",
"269 -50 CURVE SMOOTH",
"322 -19 OFFCURVE",
"362 26 OFFCURVE",
"373 93 CURVE",
"429 549 OFFCURVE",
"482 996 OFFCURVE",
"549 1452 CURVE"
);
}
);
width = 815;
}
);
unicode = 004A;
},
{
glyphname = K;
lastChange = "2012-10-20 13:23:52 -0400";
layers = (
{
anchors = (
{
name = bottom;
position = "{723, 0}";
},
{
name = top;
position = "{723, 1454}";
}
);
layerId = "16808965-E153-4B2B-ADB3-00196C646C32";
name = "Regular Italic";
paths = (
{
closed = 1;
nodes = (
"408 1473 OFFCURVE",
"468 1468 OFFCURVE",
"528 1464 CURVE",
"516 1253 OFFCURVE",
"498 1046 OFFCURVE",
"475 835 CURVE",
"593 942 OFFCURVE",
"712 1048 OFFCURVE",
"832 1151 CURVE SMOOTH",
"952 1254 OFFCURVE",
"1072 1357 OFFCURVE",
"1193 1462 CURVE",
"1272 1465 OFFCURVE",
"1346 1471 OFFCURVE",
"1425 1478 CURVE",
"1294 1363 OFFCURVE",
"1164 1250 OFFCURVE",
"1035 1137 CURVE SMOOTH",
"906 1024 OFFCURVE",
"776 910 OFFCURVE",
"646 795 CURVE",
"764 663 OFFCURVE",
"881 532 OFFCURVE",
"997 401 CURVE SMOOTH",
"1113 270 OFFCURVE",
"1231 140 OFFCURVE",
"1351 10 CURVE",
"1204 26 OFFCURVE",
"1056 34 OFFCURVE",
"907 37 CURVE",
"751 272 OFFCURVE",
"610 509 OFFCURVE",
"466 752 CURVE",
"458 511 OFFCURVE",
"443 270 OFFCURVE",
"421 29 CURVE",
"381 26 OFFCURVE",
"341 24 OFFCURVE",
"301 21 CURVE SMOOTH",
"260 18 OFFCURVE",
"220 15 OFFCURVE",
"179 10 CURVE",
"283 499 OFFCURVE",
"338 987 OFFCURVE",
"347 1479 CURVE"
);
}
);
width = 1617;
}
);
unicode = 004B;
},
{
glyphname = L;
lastChange = "2013-03-08 01:36:11 -0500";
layers = (
{
anchors = (
{
name = bottom;
position = "{461, 0}";
},
{
name = top;
position = "{538, 1454}";
}
);
layerId = "16808965-E153-4B2B-ADB3-00196C646C32";
name = "Regular Italic";
paths = (
{
closed = 1;
nodes = (
"407 1472 OFFCURVE",
"466 1465 OFFCURVE",
"526 1462 CURVE",
"507 1078 OFFCURVE",
"474 695 OFFCURVE",
"427 312 CURVE",
"517 316 OFFCURVE",
"607 318 OFFCURVE",
"696 318 CURVE SMOOTH",
"840 318 OFFCURVE",
"980 313 OFFCURVE",
"1123 301 CURVE",
"1112 205 OFFCURVE",
"1104 109 OFFCURVE",
"1099 13 CURVE",
"954 30 OFFCURVE",
"810 38 OFFCURVE",
"663 38 CURVE SMOOTH",
"507 38 OFFCURVE",
"354 29 OFFCURVE",
"198 10 CURVE",
"287 502 OFFCURVE",
"334 988 OFFCURVE",
"347 1481 CURVE"
);
}
);
width = 1364;
}
);
unicode = 004C;
},
{
glyphname = M;
lastChange = "2012-10-20 12:59:19 -0400";
layers = (
{
layerId = "16808965-E153-4B2B-ADB3-00196C646C32";
name = "Regular Italic";
paths = (
{
closed = 1;
nodes = (
"440 1472 OFFCURVE",
"535 1466 OFFCURVE",
"628 1461 CURVE",
"741 1173 OFFCURVE",
"837 884 OFFCURVE",
"930 588 CURVE",
"1007 735 OFFCURVE",
"1084 882 OFFCURVE",
"1161 1029 CURVE SMOOTH",
"1238 1176 OFFCURVE",
"1319 1321 OFFCURVE",
"1406 1463 CURVE",
"1495 1468 OFFCURVE",
"1584 1474 OFFCURVE",
"1673 1481 CURVE",
"1602 1101 OFFCURVE",
"1563 724 OFFCURVE",
"1563 344 CURVE SMOOTH",
"1563 231 OFFCURVE",
"1567 122 OFFCURVE",
"1574 10 CURVE",
"1495 17 OFFCURVE",
"1419 23 OFFCURVE",
"1339 27 CURVE",
"1348 454 OFFCURVE",
"1399 876 OFFCURVE",
"1475 1301 CURVE",
"1472 1302 OFFCURVE",
"1469 1302 OFFCURVE",
"1467 1303 CURVE",
"1464 1303 OFFCURVE",
"1462 1303 OFFCURVE",
"1459 1304 CURVE",
"1294 964 OFFCURVE",
"1155 614 OFFCURVE",
"1012 266 CURVE",
"993 266 OFFCURVE",
"975 266 OFFCURVE",
"957 267 CURVE",
"939 267 OFFCURVE",
"921 267 OFFCURVE",
"902 267 CURVE SMOOTH",
"883 267 OFFCURVE",
"865 267 OFFCURVE",
"847 267 CURVE",
"828 266 OFFCURVE",
"810 266 OFFCURVE",
"792 266 CURVE",
"771 353 OFFCURVE",
"750 440 OFFCURVE",
"730 527 CURVE SMOOTH",
"689 701 OFFCURVE",
"646 874 OFFCURVE",
"600 1046 CURVE SMOOTH",
"577 1132 OFFCURVE",
"552 1218 OFFCURVE",
"526 1303 CURVE",
"523 1302 OFFCURVE",
"520 1302 OFFCURVE",
"518 1301 CURVE",
"515 1300 OFFCURVE",
"512 1300 OFFCURVE",
"509 1300 CURVE",
"509 1240 LINE SMOOTH",
"509 835 OFFCURVE",
"481 434 OFFCURVE",
"425 26 CURVE",
"346 23 OFFCURVE",
"268 17 OFFCURVE",
"188 10 CURVE",
"300 501 OFFCURVE",
"347 988 OFFCURVE",
"347 1481 CURVE"
);
}
);
width = 1840;
}
);
unicode = 004D;
},
{
glyphname = N;
lastChange = "2013-03-07 23:22:19 -0500";
layers = (
{
anchors = (
{
name = bottom;
position = "{759, 0}";
},
{
name = top;
position = "{954, 1454}";
}
);
layerId = "16808965-E153-4B2B-ADB3-00196C646C32";
name = "Regular Italic";
paths = (
{
closed = 1;
nodes = (
"379 1444 OFFCURVE",
"417 1441 OFFCURVE",
"456 1439 CURVE SMOOTH",
"495 1436 OFFCURVE",
"534 1434 OFFCURVE",
"573 1431 CURVE",
"670 1239 OFFCURVE",
"758 1043 OFFCURVE",
"846 846 CURVE SMOOTH",
"933 649 OFFCURVE",
"1019 451 OFFCURVE",
"1112 258 CURVE",
"1141 665 OFFCURVE",
"1188 1065 OFFCURVE",
"1264 1469 CURVE",
"1320 1473 OFFCURVE",
"1375 1477 OFFCURVE",
"1431 1484 CURVE",
"1347 1031 OFFCURVE",
"1301 580 OFFCURVE",
"1301 127 CURVE SMOOTH",
"1301 108 OFFCURVE",
"1301 88 OFFCURVE",
"1301 69 CURVE SMOOTH",
"1301 49 OFFCURVE",
"1301 29 OFFCURVE",
"1302 10 CURVE",
"1210 21 OFFCURVE",
"1120 27 OFFCURVE",
"1028 32 CURVE",
"929 229 OFFCURVE",
"840 432 OFFCURVE",
"752 636 CURVE SMOOTH",
"708 737 OFFCURVE",
"664 839 OFFCURVE",
"620 941 CURVE SMOOTH",
"576 1042 OFFCURVE",
"530 1143 OFFCURVE",
"483 1243 CURVE",
"467 1239 LINE",
"467 834 OFFCURVE",
"447 436 OFFCURVE",
"408 29 CURVE",
"329 24 OFFCURVE",
"252 19 OFFCURVE",
"172 10 CURVE",
"275 490 OFFCURVE",
"327 966 OFFCURVE",
"340 1449 CURVE"
);
}
);
width = 1568;
}
);
unicode = 004E;
},
{
glyphname = O;
lastChange = "2013-05-03 08:19:25 -0400";
layers = (
{
anchors = (
{
name = _hook;
position = "{1383.6, 983.473}";
},
{
name = bottom;
position = "{749, -84}";
},
{
name = top;
position = "{889, 1454}";
}
);
layerId = "16808965-E153-4B2B-ADB3-00196C646C32";
name = "Regular Italic";
paths = (
{
closed = 1;
nodes = (
"828 1340 OFFCURVE",
"762 1329 OFFCURVE",
"700 1303 CURVE SMOOTH",
"638 1277 OFFCURVE",
"581 1238 OFFCURVE",
"537 1182 CURVE SMOOTH",
"478 1111 OFFCURVE",
"439 1025 OFFCURVE",
"415 937 CURVE SMOOTH",
"391 848 OFFCURVE",
"381 756 OFFCURVE",
"381 673 CURVE SMOOTH",
"381 626 OFFCURVE",
"385 580 OFFCURVE",
"400 538 CURVE SMOOTH",
"415 496 OFFCURVE",
"439 459 OFFCURVE",
"478 434 CURVE SMOOTH",
"526 403 OFFCURVE",
"580 386 OFFCURVE",
"636 375 CURVE SMOOTH",
"692 364 OFFCURVE",
"751 361 OFFCURVE",
"808 361 CURVE SMOOTH",
"923 361 OFFCURVE",
"1042 375 OFFCURVE",
"1149 436 CURVE",
"1149 435 LINE",
"1220 478 OFFCURVE",
"1258 551 OFFCURVE",
"1279 628 CURVE SMOOTH",
"1299 704 OFFCURVE",
"1302 786 OFFCURVE",
"1302 846 CURVE SMOOTH",
"1302 967 OFFCURVE",
"1283 1083 OFFCURVE",
"1222 1183 CURVE",
"1150 1288 OFFCURVE",
"1026 1340 OFFCURVE",
"895 1340 CURVE SMOOTH"
);
},
{
closed = 1;
nodes = (
"996 1480 OFFCURVE",
"1086 1469 OFFCURVE",
"1167 1439 CURVE SMOOTH",
"1247 1409 OFFCURVE",
"1318 1362 OFFCURVE",
"1370 1290 CURVE SMOOTH",
"1414 1231 OFFCURVE",
"1443 1165 OFFCURVE",
"1460 1094 CURVE SMOOTH",
"1477 1023 OFFCURVE",
"1484 949 OFFCURVE",
"1484 874 CURVE SMOOTH",
"1484 763 OFFCURVE",
"1472 642 OFFCURVE",
"1440 524 CURVE SMOOTH",
"1408 406 OFFCURVE",
"1354 293 OFFCURVE",
"1273 200 CURVE SMOOTH",
"1206 128 OFFCURVE",
"1124 80 OFFCURVE",
"1037 51 CURVE SMOOTH",
"949 22 OFFCURVE",
"855 10 OFFCURVE",
"764 10 CURVE SMOOTH",
"677 10 OFFCURVE",
"591 24 OFFCURVE",
"513 54 CURVE SMOOTH",
"435 84 OFFCURVE",
"365 131 OFFCURVE",
"313 199 CURVE SMOOTH",
"269 258 OFFCURVE",
"239 323 OFFCURVE",
"222 394 CURVE SMOOTH",
"205 465 OFFCURVE",
"198 539 OFFCURVE",
"198 615 CURVE SMOOTH",
"198 723 OFFCURVE",
"207 845 OFFCURVE",
"238 965 CURVE SMOOTH",
"269 1084 OFFCURVE",
"321 1198 OFFCURVE",
"408 1289 CURVE SMOOTH",
"473 1360 OFFCURVE",
"555 1408 OFFCURVE",
"641 1438 CURVE SMOOTH",
"727 1468 OFFCURVE",
"819 1480 OFFCURVE",
"908 1480 CURVE SMOOTH"
);
}
);
width = 1598;
}
);
unicode = 004F;
},
{
glyphname = P;
lastChange = "2012-10-20 12:59:19 -0400";
layers = (
{
layerId = "16808965-E153-4B2B-ADB3-00196C646C32";
name = "Regular Italic";
paths = (
{
closed = 1;
nodes = (
"517 1206 OFFCURVE",
"500 1021 OFFCURVE",
"477 832 CURVE",
"576 831 OFFCURVE",
"671 830 OFFCURVE",
"770 830 CURVE SMOOTH",
"847 830 OFFCURVE",
"924 862 OFFCURVE",
"981 914 CURVE SMOOTH",
"1038 966 OFFCURVE",
"1078 1038 OFFCURVE",
"1079 1118 CURVE",
"1081 1133 OFFCURVE",
"1082 1148 OFFCURVE",
"1082 1165 CURVE SMOOTH",
"1082 1261 OFFCURVE",
"1039 1317 OFFCURVE",
"983 1349 CURVE SMOOTH",
"926 1381 OFFCURVE",
"854 1390 OFFCURVE",
"794 1390 CURVE SMOOTH",
"706 1390 OFFCURVE",
"621 1390 OFFCURVE",
"534 1395 CURVE"
);
},
{
closed = 1;
nodes = (
"490 1459 OFFCURVE",
"634 1454 OFFCURVE",
"781 1454 CURVE SMOOTH",
"837 1454 OFFCURVE",
"894 1451 OFFCURVE",
"948 1442 CURVE SMOOTH",
"1002 1433 OFFCURVE",
"1054 1417 OFFCURVE",
"1101 1389 CURVE",
"1146 1360 OFFCURVE",
"1176 1319 OFFCURVE",
"1196 1274 CURVE SMOOTH",
"1215 1229 OFFCURVE",
"1222 1178 OFFCURVE",
"1222 1127 CURVE SMOOTH",
"1222 1058 OFFCURVE",
"1211 980 OFFCURVE",
"1186 907 CURVE SMOOTH",
"1161 834 OFFCURVE",
"1121 764 OFFCURVE",
"1064 711 CURVE SMOOTH",
"1015 664 OFFCURVE",
"957 636 OFFCURVE",
"895 619 CURVE SMOOTH",
"833 602 OFFCURVE",
"767 596 OFFCURVE",
"706 596 CURVE SMOOTH",
"666 596 OFFCURVE",
"626 596 OFFCURVE",
"586 596 CURVE SMOOTH",
"546 596 OFFCURVE",
"506 595 OFFCURVE",
"465 594 CURVE",
"442 405 OFFCURVE",
"413 218 OFFCURVE",
"381 30 CURVE",
"308 25 OFFCURVE",
"234 19 OFFCURVE",
"159 10 CURVE",
"264 499 OFFCURVE",
"321 984 OFFCURVE",
"346 1476 CURVE"
);
}
);
width = 1266;
}
);
unicode = 0050;
},
{
glyphname = Q;
lastChange = "2012-10-20 12:59:19 -0400";
layers = (
{
layerId = "16808965-E153-4B2B-ADB3-00196C646C32";
name = "Regular Italic";
paths = (
{
closed = 1;
nodes = (
"760 1334 OFFCURVE",
"629 1287 OFFCURVE",
"537 1178 CURVE SMOOTH",
"480 1110 OFFCURVE",
"441 1026 OFFCURVE",
"417 940 CURVE SMOOTH",
"392 854 OFFCURVE",
"382 763 OFFCURVE",
"382 683 CURVE SMOOTH",
"382 635 OFFCURVE",
"386 586 OFFCURVE",
"401 542 CURVE SMOOTH",
"416 498 OFFCURVE",
"441 459 OFFCURVE",
"482 434 CURVE SMOOTH",
"573 377 OFFCURVE",
"665 357 OFFCURVE",
"781 341 CURVE",
"796 363 OFFCURVE",
"810 385 OFFCURVE",
"825 407 CURVE SMOOTH",
"840 428 OFFCURVE",
"854 450 OFFCURVE",
"869 472 CURVE",
"936 439 OFFCURVE",
"1009 417 OFFCURVE",
"1088 406 CURVE",
"1175 449 OFFCURVE",
"1230 516 OFFCURVE",
"1263 594 CURVE SMOOTH",
"1295 672 OFFCURVE",
"1306 760 OFFCURVE",
"1306 847 CURVE SMOOTH",
"1306 964 OFFCURVE",
"1287 1080 OFFCURVE",
"1224 1176 CURVE SMOOTH",
"1189 1229 OFFCURVE",
"1139 1270 OFFCURVE",
"1082 1296 CURVE SMOOTH",
"1025 1322 OFFCURVE",
"960 1334 OFFCURVE",
"895 1334 CURVE SMOOTH"
);
},
{
closed = 1;
nodes = (
"1205 95 LINE",
"1252 36 OFFCURVE",
"1300 -23 OFFCURVE",
"1349 -80 CURVE SMOOTH",
"1397 -137 OFFCURVE",
"1445 -195 OFFCURVE",
"1494 -254 CURVE",
"1346 -238 OFFCURVE",
"1198 -229 OFFCURVE",
"1049 -225 CURVE",
"1016 -186 OFFCURVE",
"984 -147 OFFCURVE",
"952 -108 CURVE SMOOTH",
"919 -69 OFFCURVE",
"887 -30 OFFCURVE",
"855 10 CURVE",
"831 7 OFFCURVE",
"806 6 OFFCURVE",
"781 6 CURVE SMOOTH",
"693 6 OFFCURVE",
"605 19 OFFCURVE",
"526 49 CURVE SMOOTH",
"446 79 OFFCURVE",
"376 125 OFFCURVE",
"323 196 CURVE SMOOTH",
"231 325 OFFCURVE",
"201 484 OFFCURVE",
"201 647 CURVE SMOOTH",
"201 751 OFFCURVE",
"211 868 OFFCURVE",
"243 980 CURVE SMOOTH",
"274 1092 OFFCURVE",
"324 1199 OFFCURVE",
"407 1286 CURVE SMOOTH",
"471 1353 OFFCURVE",
"548 1399 OFFCURVE",
"632 1430 CURVE SMOOTH",
"715 1461 OFFCURVE",
"804 1474 OFFCURVE",
"889 1474 CURVE SMOOTH",
"981 1474 OFFCURVE",
"1075 1464 OFFCURVE",
"1159 1435 CURVE SMOOTH",
"1243 1406 OFFCURVE",
"1318 1359 OFFCURVE",
"1373 1284 CURVE SMOOTH",
"1417 1228 OFFCURVE",
"1447 1163 OFFCURVE",
"1465 1093 CURVE SMOOTH",
"1483 1023 OFFCURVE",
"1489 948 OFFCURVE",
"1489 875 CURVE SMOOTH",
"1489 794 OFFCURVE",
"1483 701 OFFCURVE",
"1466 609 CURVE SMOOTH",
"1449 517 OFFCURVE",
"1421 425 OFFCURVE",
"1376 345 CURVE SMOOTH",
"1325 261 OFFCURVE",
"1273 181 OFFCURVE",
"1205 109 CURVE"
);
}
);
width = 1816;
}
);
unicode = 0051;
},
{
glyphname = R;
lastChange = "2012-10-20 12:59:19 -0400";
layers = (
{
anchors = (
{
name = bottom;
position = "{712, 0}";
},
{
name = top;
position = "{712, 1454}";
}
);
layerId = "16808965-E153-4B2B-ADB3-00196C646C32";
name = "Regular Italic";
paths = (
{
closed = 1;
nodes = (
"966 693 LINE",
"1023 669 OFFCURVE",
"1063 625 OFFCURVE",
"1095 574 CURVE SMOOTH",
"1111 549 OFFCURVE",
"1125 522 OFFCURVE",
"1138 495 CURVE",
"1150 467 OFFCURVE",
"1162 440 OFFCURVE",
"1174 413 CURVE SMOOTH",
"1231 276 OFFCURVE",
"1292 143 OFFCURVE",
"1357 10 CURVE",
"1269 21 OFFCURVE",
"1183 26 OFFCURVE",
"1095 31 CURVE",
"1048 154 OFFCURVE",
"1009 275 OFFCURVE",
"969 400 CURVE",
"954 436 OFFCURVE",
"938 472 OFFCURVE",
"919 506 CURVE SMOOTH",
"899 540 OFFCURVE",
"876 571 OFFCURVE",
"847 596 CURVE",
"795 633 OFFCURVE",
"732 644 OFFCURVE",
"667 644 CURVE SMOOTH",
"616 644 OFFCURVE",
"567 643 OFFCURVE",
"516 642 CURVE",
"497 435 OFFCURVE",
"473 235 OFFCURVE",
"442 28 CURVE",
"367 25 OFFCURVE",
"295 18 OFFCURVE",
"219 10 CURVE",
"307 482 OFFCURVE",
"348 948 OFFCURVE",
"348 1420 CURVE SMOOTH",
"348 1484 LINE",
"496 1465 OFFCURVE",
"643 1458 OFFCURVE",
"792 1455 CURVE SMOOTH",
"893 1452 OFFCURVE",
"994 1440 OFFCURVE",
"1081 1389 CURVE",
"1129 1357 OFFCURVE",
"1162 1314 OFFCURVE",
"1183 1267 CURVE SMOOTH",
"1203 1220 OFFCURVE",
"1211 1169 OFFCURVE",
"1211 1117 CURVE SMOOTH",
"1211 1041 OFFCURVE",
"1194 952 OFFCURVE",
"1155 876 CURVE SMOOTH",
"1116 800 OFFCURVE",
"1056 737 OFFCURVE",
"968 710 CURVE",
"967 699 LINE"
);
},
{
closed = 1;
nodes = (
"538 1193 OFFCURVE",
"529 1011 OFFCURVE",
"514 824 CURVE",
"556 823 OFFCURVE",
"598 823 OFFCURVE",
"640 823 CURVE SMOOTH",
"682 823 OFFCURVE",
"724 823 OFFCURVE",
"766 823 CURVE SMOOTH",
"831 823 OFFCURVE",
"909 845 OFFCURVE",
"972 885 CURVE SMOOTH",
"1035 925 OFFCURVE",
"1084 982 OFFCURVE",
"1089 1051 CURVE SMOOTH",
"1090 1062 OFFCURVE",
"1090 1072 OFFCURVE",
"1091 1083 CURVE SMOOTH",
"1092 1094 OFFCURVE",
"1092 1105 OFFCURVE",
"1092 1116 CURVE SMOOTH",
"1092 1189 OFFCURVE",
"1077 1261 OFFCURVE",
"1016 1304 CURVE",
"1017 1304 LINE",
"956 1347 OFFCURVE",
"882 1370 OFFCURVE",
"805 1371 CURVE SMOOTH",
"718 1372 OFFCURVE",
"633 1373 OFFCURVE",
"545 1380 CURVE"
);
}
);
width = 1623;
}
);
unicode = 0052;
},
{
glyphname = S;
lastChange = "2012-10-20 12:59:19 -0400";
layers = (
{
anchors = (
{
name = bottom;
position = "{676, 0}";
},
{
name = top;
position = "{676, 1454}";
}
);
layerId = "16808965-E153-4B2B-ADB3-00196C646C32";
name = "Regular Italic";
paths = (
{
closed = 1;
nodes = (
"1207 1405 OFFCURVE",
"1203 1375 OFFCURVE",
"1198 1345 CURVE SMOOTH",
"1193 1315 OFFCURVE",
"1189 1285 OFFCURVE",
"1185 1255 CURVE",
"1064 1306 OFFCURVE",
"938 1340 OFFCURVE",
"803 1340 CURVE SMOOTH",
"719 1340 OFFCURVE",
"633 1330 OFFCURVE",
"554 1287 CURVE",
"471 1234 OFFCURVE",
"443 1157 OFFCURVE",
"443 1081 CURVE SMOOTH",
"443 1030 OFFCURVE",
"455 979 OFFCURVE",
"491 944 CURVE",
"551 896 OFFCURVE",
"627 879 OFFCURVE",
"703 863 CURVE SMOOTH",
"732 856 OFFCURVE",
"762 850 OFFCURVE",
"793 844 CURVE SMOOTH",
"853 832 OFFCURVE",
"912 817 OFFCURVE",
"969 794 CURVE SMOOTH",
"997 783 OFFCURVE",
"1024 768 OFFCURVE",
"1049 751 CURVE SMOOTH",
"1149 680 OFFCURVE",
"1190 568 OFFCURVE",
"1190 452 CURVE SMOOTH",
"1190 392 OFFCURVE",
"1182 326 OFFCURVE",
"1161 266 CURVE SMOOTH",
"1140 206 OFFCURVE",
"1105 151 OFFCURVE",
"1049 111 CURVE",
"981 66 OFFCURVE",
"910 41 OFFCURVE",
"838 28 CURVE SMOOTH",
"765 15 OFFCURVE",
"691 11 OFFCURVE",
"620 10 CURVE SMOOTH",
"465 10 OFFCURVE",
"315 31 OFFCURVE",
"170 74 CURVE",
"186 173 OFFCURVE",
"201 268 OFFCURVE",
"213 367 CURVE",
"342 291 OFFCURVE",
"488 255 OFFCURVE",
"643 255 CURVE SMOOTH",
"734 255 OFFCURVE",
"828 268 OFFCURVE",
"908 320 CURVE SMOOTH",
"932 336 OFFCURVE",
"958 356 OFFCURVE",
"978 380 CURVE SMOOTH",
"998 404 OFFCURVE",
"1011 431 OFFCURVE",
"1011 462 CURVE SMOOTH",
"1011 521 OFFCURVE",
"980 565 OFFCURVE",
"936 597 CURVE SMOOTH",
"892 629 OFFCURVE",
"833 651 OFFCURVE",
"778 666 CURVE SMOOTH",
"750 673 OFFCURVE",
"723 679 OFFCURVE",
"698 684 CURVE SMOOTH",
"647 693 OFFCURVE",
"608 701 OFFCURVE",
"556 717 CURVE SMOOTH",
"503 732 OFFCURVE",
"452 752 OFFCURVE",
"407 781 CURVE SMOOTH",
"362 810 OFFCURVE",
"309 859 OFFCURVE",
"287 941 CURVE SMOOTH",
"276 982 OFFCURVE",
"270 1024 OFFCURVE",
"270 1067 CURVE SMOOTH",
"270 1124 OFFCURVE",
"280 1185 OFFCURVE",
"302 1241 CURVE SMOOTH",
"324 1297 OFFCURVE",
"359 1347 OFFCURVE",
"412 1384 CURVE SMOOTH",
"468 1423 OFFCURVE",
"531 1448 OFFCURVE",
"596 1462 CURVE SMOOTH",
"661 1476 OFFCURVE",
"728 1480 OFFCURVE",
"793 1480 CURVE SMOOTH",
"938 1480 OFFCURVE",
"1080 1462 OFFCURVE",
"1217 1426 CURVE",
"1216 1427 OFFCURVE",
"1216 1429 OFFCURVE",
"1215 1431 CURVE",
"1214 1432 OFFCURVE",
"1213 1434 OFFCURVE",
"1212 1435 CURVE"
);
}
);
width = 1376;
}
);
unicode = 0053;
},
{
glyphname = T;
lastChange = "2013-03-08 01:03:00 -0500";
layers = (
{
anchors = (
{
name = bottom;
position = "{763, 91}";
},
{
name = center;
position = "{979, 727}";
},
{
name = top;
position = "{979, 1454}";
}
);
layerId = "16808965-E153-4B2B-ADB3-00196C646C32";
name = "Regular Italic";
paths = (
{
closed = 1;
nodes = (
"549 1463 OFFCURVE",
"749 1453 OFFCURVE",
"952 1453 CURVE SMOOTH",
"1167 1453 OFFCURVE",
"1377 1464 OFFCURVE",
"1592 1484 CURVE",
"1581 1433 OFFCURVE",
"1571 1383 OFFCURVE",
"1563 1332 CURVE",
"1459 1328 OFFCURVE",
"1355 1325 OFFCURVE",
"1251 1325 CURVE SMOOTH",
"1182 1325 OFFCURVE",
"1114 1326 OFFCURVE",
"1046 1329 CURVE",
"1015 896 OFFCURVE",
"987 469 OFFCURVE",
"976 37 CURVE",
"957 38 OFFCURVE",
"939 38 OFFCURVE",
"921 38 CURVE SMOOTH",
"902 38 OFFCURVE",
"883 38 OFFCURVE",
"864 38 CURVE SMOOTH",
"839 38 OFFCURVE",
"813 38 OFFCURVE",
"788 38 CURVE",
"763 37 OFFCURVE",
"737 37 OFFCURVE",
"712 37 CURVE",
"771 469 OFFCURVE",
"821 896 OFFCURVE",
"866 1328 CURVE",
"788 1326 OFFCURVE",
"711 1325 OFFCURVE",
"634 1325 CURVE SMOOTH",
"538 1325 OFFCURVE",
"445 1326 OFFCURVE",
"350 1333 CURVE",
"350 1384 OFFCURVE",
"349 1433 OFFCURVE",
"348 1484 CURVE"
);
}
);
width = 1548;
}
);
unicode = 0054;
},
{
glyphname = U;
lastChange = "2013-05-03 08:19:41 -0400";
layers = (
{
anchors = (
{
name = _hook;
position = "{1984, 2658}";
},
{
name = bottom;
position = "{849, -35}";
},
{
name = ogonek;
position = "{1003, 35}";
},
{
name = top;
position = "{864, 1454}";
}
);
layerId = "16808965-E153-4B2B-ADB3-00196C646C32";
name = "Regular Italic";
paths = (
{
closed = 1;
nodes = (
"347 1483 LINE",
"407 1475 OFFCURVE",
"467 1469 OFFCURVE",
"528 1464 CURVE",
"523 1216 OFFCURVE",
"507 973 OFFCURVE",
"486 725 CURVE SMOOTH",
"483 689 OFFCURVE",
"481 652 OFFCURVE",
"481 616 CURVE SMOOTH",
"481 532 OFFCURVE",
"492 452 OFFCURVE",
"536 384 CURVE",
"565 343 OFFCURVE",
"607 318 OFFCURVE",
"655 303 CURVE SMOOTH",
"702 287 OFFCURVE",
"755 283 OFFCURVE",
"804 283 CURVE SMOOTH",
"853 283 OFFCURVE",
"907 288 OFFCURVE",
"956 303 CURVE SMOOTH",
"1005 318 OFFCURVE",
"1051 344 OFFCURVE",
"1087 384 CURVE",
"1127 432 OFFCURVE",
"1152 488 OFFCURVE",
"1168 548 CURVE SMOOTH",
"1184 607 OFFCURVE",
"1192 667 OFFCURVE",
"1197 726 CURVE SMOOTH",
"1220 974 OFFCURVE",
"1246 1218 OFFCURVE",
"1287 1466 CURVE",
"1318 1467 OFFCURVE",
"1348 1470 OFFCURVE",
"1379 1473 CURVE SMOOTH",
"1410 1476 OFFCURVE",
"1440 1480 OFFCURVE",
"1471 1483 CURVE",
"1411 1175 OFFCURVE",
"1378 870 OFFCURVE",
"1355 561 CURVE SMOOTH",
"1350 489 OFFCURVE",
"1340 415 OFFCURVE",
"1318 344 CURVE SMOOTH",
"1296 272 OFFCURVE",
"1262 204 OFFCURVE",
"1209 148 CURVE",
"1148 89 OFFCURVE",
"1076 55 OFFCURVE",
"1003 35 CURVE SMOOTH",
"930 15 OFFCURVE",
"853 9 OFFCURVE",
"781 9 CURVE SMOOTH",
"710 9 OFFCURVE",
"636 14 OFFCURVE",
"568 32 CURVE SMOOTH",
"499 50 OFFCURVE",
"436 79 OFFCURVE",
"388 131 CURVE SMOOTH",
"351 174 OFFCURVE",
"327 222 OFFCURVE",
"313 274 CURVE SMOOTH",
"299 325 OFFCURVE",
"294 378 OFFCURVE",
"294 433 CURVE SMOOTH",
"294 476 OFFCURVE",
"297 518 OFFCURVE",
"301 561 CURVE SMOOTH",
"330 848 OFFCURVE",
"347 1128 OFFCURVE",
"347 1413 CURVE SMOOTH"
);
}
);
width = 1516;
}
);
unicode = 0055;
},
{
glyphname = V;
lastChange = "2012-10-20 12:59:19 -0400";
layers = (
{
layerId = "16808965-E153-4B2B-ADB3-00196C646C32";
name = "Regular Italic";
paths = (
{
closed = 1;
nodes = (
"704 158 OFFCURVE",
"675 280 OFFCURVE",
"647 402 CURVE SMOOTH",
"590 646 OFFCURVE",
"530 889 OFFCURVE",
"462 1129 CURVE SMOOTH",
"428 1248 OFFCURVE",
"390 1367 OFFCURVE",
"348 1484 CURVE",
"411 1477 OFFCURVE",
"471 1472 OFFCURVE",
"535 1468 CURVE",
"608 1288 OFFCURVE",
"675 1105 OFFCURVE",
"737 921 CURVE SMOOTH",
"768 829 OFFCURVE",
"798 737 OFFCURVE",
"828 644 CURVE SMOOTH",
"858 551 OFFCURVE",
"888 459 OFFCURVE",
"919 367 CURVE",
"966 459 OFFCURVE",
"1012 552 OFFCURVE",
"1059 645 CURVE SMOOTH",
"1151 831 OFFCURVE",
"1244 1015 OFFCURVE",
"1343 1198 CURVE SMOOTH",
"1392 1289 OFFCURVE",
"1444 1380 OFFCURVE",
"1497 1469 CURVE",
"1529 1471 OFFCURVE",
"1561 1473 OFFCURVE",
"1593 1476 CURVE SMOOTH",
"1624 1479 OFFCURVE",
"1656 1481 OFFCURVE",
"1688 1484 CURVE",
"1561 1251 OFFCURVE",
"1452 1011 OFFCURVE",
"1349 768 CURVE SMOOTH",
"1297 647 OFFCURVE",
"1247 525 OFFCURVE",
"1198 403 CURVE SMOOTH",
"1149 281 OFFCURVE",
"1099 159 OFFCURVE",
"1050 37 CURVE",
"1027 38 OFFCURVE",
"1005 38 OFFCURVE",
"983 38 CURVE SMOOTH",
"961 38 OFFCURVE",
"939 38 OFFCURVE",
"916 38 CURVE SMOOTH",
"885 38 OFFCURVE",
"855 38 OFFCURVE",
"825 38 CURVE SMOOTH",
"794 37 OFFCURVE",
"764 37 OFFCURVE",
"734 37 CURVE"
);
}
);
width = 1640;
}
);
unicode = 0056;
},
{
glyphname = W;
lastChange = "2012-10-20 13:16:55 -0400";
layers = (
{
anchors = (
{
name = top;
position = "{1289, 1454}";
}
);
layerId = "16808965-E153-4B2B-ADB3-00196C646C32";
name = "Regular Italic";
paths = (
{
closed = 1;
nodes = (
"405 1480 OFFCURVE",
"463 1476 OFFCURVE",
"519 1472 CURVE",
"576 1300 OFFCURVE",
"621 1123 OFFCURVE",
"659 944 CURVE SMOOTH",
"697 765 OFFCURVE",
"728 585 OFFCURVE",
"756 404 CURVE",
"827 517 OFFCURVE",
"895 631 OFFCURVE",
"961 745 CURVE SMOOTH",
"1026 859 OFFCURVE",
"1093 973 OFFCURVE",
"1162 1087 CURVE",
"1319 1087 LINE",
"1361 969 OFFCURVE",
"1402 852 OFFCURVE",
"1443 735 CURVE SMOOTH",
"1484 618 OFFCURVE",
"1527 501 OFFCURVE",
"1573 385 CURVE",
"1706 754 OFFCURVE",
"1851 1123 OFFCURVE",
"2040 1474 CURVE",
"2070 1475 OFFCURVE",
"2099 1477 OFFCURVE",
"2128 1479 CURVE SMOOTH",
"2156 1481 OFFCURVE",
"2185 1483 OFFCURVE",
"2214 1484 CURVE",
"2098 1252 OFFCURVE",
"2002 1012 OFFCURVE",
"1922 768 CURVE SMOOTH",
"1841 524 OFFCURVE",
"1775 277 OFFCURVE",
"1718 29 CURVE",
"1671 30 OFFCURVE",
"1625 32 OFFCURVE",
"1578 33 CURVE SMOOTH",
"1531 34 OFFCURVE",
"1485 35 OFFCURVE",
"1439 36 CURVE",
"1352 295 OFFCURVE",
"1290 563 OFFCURVE",
"1223 830 CURVE",
"1103 562 OFFCURVE",
"983 298 OFFCURVE",
"850 35 CURVE",
"749 34 OFFCURVE",
"649 31 OFFCURVE",
"549 27 CURVE",
"540 274 OFFCURVE",
"523 521 OFFCURVE",
"492 765 CURVE SMOOTH",
"461 1009 OFFCURVE",
"416 1249 OFFCURVE",
"348 1484 CURVE"
);
}
);
width = 2166;
}
);
unicode = 0057;
},
{
glyphname = X;
lastChange = "2012-10-20 12:59:19 -0400";
layers = (
{
layerId = "16808965-E153-4B2B-ADB3-00196C646C32";
name = "Regular Italic";
paths = (
{
closed = 1;
nodes = (
"378 1474 OFFCURVE",
"410 1471 OFFCURVE",
"442 1469 CURVE SMOOTH",
"474 1467 OFFCURVE",
"506 1465 OFFCURVE",
"538 1462 CURVE",
"651 1255 OFFCURVE",
"755 1046 OFFCURVE",
"859 833 CURVE",
"1002 1048 OFFCURVE",
"1144 1258 OFFCURVE",
"1297 1466 CURVE",
"1329 1467 OFFCURVE",
"1361 1470 OFFCURVE",
"1394 1473 CURVE SMOOTH",
"1427 1476 OFFCURVE",
"1459 1478 OFFCURVE",
"1491 1481 CURVE",
"1302 1225 OFFCURVE",
"1131 963 OFFCURVE",
"958 698 CURVE",
"1099 465 OFFCURVE",
"1238 234 OFFCURVE",
"1393 10 CURVE",
"1293 21 OFFCURVE",
"1194 27 OFFCURVE",
"1093 32 CURVE",
"996 207 OFFCURVE",
"909 383 OFFCURVE",
"822 563 CURVE",
"703 382 OFFCURVE",
"583 206 OFFCURVE",
"456 31 CURVE",
"356 27 OFFCURVE",
"254 21 OFFCURVE",
"153 10 CURVE",
"349 237 OFFCURVE",
"536 465 OFFCURVE",
"725 698 CURVE",
"602 962 OFFCURVE",
"483 1221 OFFCURVE",
"346 1477 CURVE"
);
}
);
width = 1659;
}
);
unicode = 0058;
},
{
glyphname = Y;
lastChange = "2012-10-20 12:59:19 -0400";
layers = (
{
anchors = (
{
name = top;
position = "{977, 1454}";
}
);
layerId = "16808965-E153-4B2B-ADB3-00196C646C32";
name = "Regular Italic";
paths = (
{
closed = 1;
nodes = (
"380 1480 OFFCURVE",
"412 1477 OFFCURVE",
"444 1474 CURVE SMOOTH",
"476 1471 OFFCURVE",
"508 1469 OFFCURVE",
"540 1466 CURVE",
"668 1217 OFFCURVE",
"781 964 OFFCURVE",
"894 708 CURVE",
"1051 965 OFFCURVE",
"1207 1219 OFFCURVE",
"1379 1468 CURVE",
"1444 1471 OFFCURVE",
"1509 1477 OFFCURVE",
"1574 1484 CURVE",
"1469 1329 OFFCURVE",
"1369 1170 OFFCURVE",
"1275 1009 CURVE SMOOTH",
"1180 847 OFFCURVE",
"1086 685 OFFCURVE",
"991 523 CURVE",
"976 360 OFFCURVE",
"966 200 OFFCURVE",
"957 37 CURVE",
"939 38 OFFCURVE",
"921 38 OFFCURVE",
"903 38 CURVE SMOOTH",
"885 38 OFFCURVE",
"867 38 OFFCURVE",
"849 38 CURVE SMOOTH",
"825 38 OFFCURVE",
"801 38 OFFCURVE",
"777 38 CURVE",
"752 37 OFFCURVE",
"728 37 OFFCURVE",
"703 37 CURVE",
"720 200 OFFCURVE",
"736 359 OFFCURVE",
"752 522 CURVE",
"623 847 OFFCURVE",
"497 1168 OFFCURVE",
"348 1484 CURVE"
);
}
);
width = 1526;
}
);
unicode = 0059;
},
{
glyphname = Z;
lastChange = "2012-10-20 12:59:19 -0400";
layers = (
{
anchors = (
{
name = top;
position = "{848, 1454}";
}
);
layerId = "16808965-E153-4B2B-ADB3-00196C646C32";
name = "Regular Italic";
paths = (
{
closed = 1;
nodes = (
"347 1481 LINE",
"534 1462 OFFCURVE",
"718 1454 OFFCURVE",
"906 1454 CURVE SMOOTH",
"1105 1454 OFFCURVE",
"1302 1463 OFFCURVE",
"1501 1482 CURVE",
"1496 1459 OFFCURVE",
"1492 1435 OFFCURVE",
"1488 1411 CURVE SMOOTH",
"1484 1387 OFFCURVE",
"1480 1363 OFFCURVE",
"1475 1340 CURVE",
"1303 1167 OFFCURVE",
"1133 994 OFFCURVE",
"965 821 CURVE SMOOTH",
"796 648 OFFCURVE",
"626 474 OFFCURVE",
"454 301 CURVE",
"583 305 OFFCURVE",
"710 308 OFFCURVE",
"839 308 CURVE SMOOTH",
"1026 308 OFFCURVE",
"1208 303 OFFCURVE",
"1393 291 CURVE",
"1392 274 OFFCURVE",
"1392 258 OFFCURVE",
"1392 241 CURVE SMOOTH",
"1392 224 OFFCURVE",
"1392 208 OFFCURVE",
"1392 191 CURVE SMOOTH",
"1392 130 OFFCURVE",
"1393 70 OFFCURVE",
"1395 10 CURVE",
"1196 29 OFFCURVE",
"999 38 OFFCURVE",
"798 38 CURVE SMOOTH",
"597 38 OFFCURVE",
"398 29 OFFCURVE",
"195 10 CURVE",
"214 101 OFFCURVE",
"228 190 OFFCURVE",
"243 281 CURVE",
"579 632 OFFCURVE",
"913 973 OFFCURVE",
"1258 1316 CURVE",
"1133 1311 OFFCURVE",
"1012 1308 OFFCURVE",
"888 1308 CURVE SMOOTH",
"705 1308 OFFCURVE",
"527 1314 OFFCURVE",
"347 1330 CURVE",
"347 1431 LINE"
);
}
);
width = 1661;
}
);
unicode = 005A;
},
{
glyphname = bracketleft;
lastChange = "2012-10-20 12:59:19 -0400";
layers = (
{
layerId = "16808965-E153-4B2B-ADB3-00196C646C32";
name = "Regular Italic";
paths = (
{
closed = 1;
nodes = (
"421 1519 OFFCURVE",
"485 1508 OFFCURVE",
"553 1508 CURVE SMOOTH",
"625 1508 OFFCURVE",
"697 1522 OFFCURVE",
"765 1546 CURVE",
"762 1525 OFFCURVE",
"760 1504 OFFCURVE",
"757 1484 CURVE SMOOTH",
"754 1463 OFFCURVE",
"752 1442 OFFCURVE",
"750 1421 CURVE",
"682 1398 OFFCURVE",
"614 1389 OFFCURVE",
"545 1389 CURVE SMOOTH",
"540 1389 OFFCURVE",
"534 1389 OFFCURVE",
"528 1389 CURVE SMOOTH",
"522 1389 OFFCURVE",
"516 1389 OFFCURVE",
"511 1390 CURVE",
"472 914 OFFCURVE",
"432 445 OFFCURVE",
"388 -31 CURVE",
"425 -31 LINE SMOOTH",
"492 -31 OFFCURVE",
"558 -36 OFFCURVE",
"619 -56 CURVE",
"616 -90 OFFCURVE",
"614 -124 OFFCURVE",
"613 -158 CURVE SMOOTH",
"611 -192 OFFCURVE",
"609 -226 OFFCURVE",
"607 -260 CURVE",
"544 -237 OFFCURVE",
"478 -226 OFFCURVE",
"410 -226 CURVE SMOOTH",
"341 -226 OFFCURVE",
"271 -237 OFFCURVE",
"203 -260 CURVE",
"274 345 OFFCURVE",
"325 941 OFFCURVE",
"361 1546 CURVE"
);
}
);
width = 930;
}
);
unicode = 005B;
},
{
glyphname = backslash;
lastChange = "2012-10-20 12:59:19 -0400";
layers = (
{
layerId = "16808965-E153-4B2B-ADB3-00196C646C32";
name = "Regular Italic";
paths = (
{
closed = 1;
nodes = (
"549 1175 OFFCURVE",
"599 899 OFFCURVE",
"648 623 CURVE SMOOTH",
"697 346 OFFCURVE",
"747 69 OFFCURVE",
"806 -204 CURVE",
"743 -189 OFFCURVE",
"684 -173 OFFCURVE",
"620 -168 CURVE",
"571 105 OFFCURVE",
"528 381 OFFCURVE",
"485 657 CURVE SMOOTH",
"441 933 OFFCURVE",
"398 1207 OFFCURVE",
"347 1482 CURVE",
"394 1466 OFFCURVE",
"443 1457 OFFCURVE",
"492 1450 CURVE"
);
}
);
width = 1117;
}
);
unicode = 005C;
},
{
glyphname = bracketright;
lastChange = "2012-10-20 12:59:19 -0400";
layers = (
{
layerId = "16808965-E153-4B2B-ADB3-00196C646C32";
name = "Regular Italic";
paths = (
{
closed = 1;
nodes = (
"694 941 OFFCURVE",
"640 345 OFFCURVE",
"607 -260 CURVE",
"544 -237 OFFCURVE",
"478 -226 OFFCURVE",
"410 -226 CURVE SMOOTH",
"341 -226 OFFCURVE",
"271 -237 OFFCURVE",
"203 -260 CURVE",
"206 -227 OFFCURVE",
"210 -195 OFFCURVE",
"214 -163 CURVE SMOOTH",
"218 -131 OFFCURVE",
"222 -99 OFFCURVE",
"225 -66 CURVE",
"293 -47 OFFCURVE",
"359 -40 OFFCURVE",
"427 -40 CURVE SMOOTH",
"459 -40 LINE",
"499 440 OFFCURVE",
"541 910 OFFCURVE",
"585 1390 CURVE",
"578 1389 OFFCURVE",
"571 1389 OFFCURVE",
"564 1389 CURVE SMOOTH",
"557 1389 OFFCURVE",
"551 1389 OFFCURVE",
"544 1389 CURVE SMOOTH",
"477 1389 OFFCURVE",
"413 1396 OFFCURVE",
"353 1421 CURVE",
"354 1442 OFFCURVE",
"356 1463 OFFCURVE",
"357 1484 CURVE SMOOTH",
"358 1504 OFFCURVE",
"360 1525 OFFCURVE",
"361 1546 CURVE",
"421 1519 OFFCURVE",
"485 1508 OFFCURVE",
"553 1508 CURVE SMOOTH",
"625 1508 OFFCURVE",
"697 1522 OFFCURVE",
"765 1546 CURVE"
);
}
);
width = 930;
}
);
unicode = 005D;
},
{
glyphname = asciicircum;
lastChange = "2012-10-20 12:59:19 -0400";
layers = (
{
layerId = "16808965-E153-4B2B-ADB3-00196C646C32";
name = "Regular Italic";
paths = (
{
closed = 1;
nodes = (
"970 1473 LINE",
"1011 1428 OFFCURVE",
"1051 1383 OFFCURVE",
"1090 1337 CURVE SMOOTH",
"1168 1244 OFFCURVE",
"1248 1154 OFFCURVE",
"1333 1068 CURVE SMOOTH",
"1375 1025 OFFCURVE",
"1420 984 OFFCURVE",
"1467 946 CURVE",
"1420 948 OFFCURVE",
"1374 950 OFFCURVE",
"1327 951 CURVE SMOOTH",
"1280 952 OFFCURVE",
"1233 953 OFFCURVE",
"1186 954 CURVE",
"1127 1022 OFFCURVE",
"1078 1095 OFFCURVE",
"1030 1171 CURVE SMOOTH",
"1006 1209 OFFCURVE",
"983 1247 OFFCURVE",
"960 1286 CURVE SMOOTH",
"937 1325 OFFCURVE",
"913 1363 OFFCURVE",
"889 1400 CURVE",
"858 1363 OFFCURVE",
"827 1325 OFFCURVE",
"797 1287 CURVE SMOOTH",
"737 1210 OFFCURVE",
"677 1133 OFFCURVE",
"614 1060 CURVE SMOOTH",
"582 1023 OFFCURVE",
"549 988 OFFCURVE",
"514 953 CURVE",
"467 952 OFFCURVE",
"421 951 OFFCURVE",
"374 950 CURVE SMOOTH",
"327 949 OFFCURVE",
"280 947 OFFCURVE",
"233 946 CURVE",
"340 1025 OFFCURVE",
"438 1112 OFFCURVE",
"534 1202 CURVE SMOOTH",
"582 1247 OFFCURVE",
"630 1292 OFFCURVE",
"678 1338 CURVE SMOOTH",
"725 1384 OFFCURVE",
"773 1429 OFFCURVE",
"822 1473 CURVE"
);
}
);
width = 1534;
}
);
unicode = 005E;
},
{
glyphname = underscore;
lastChange = "2012-10-20 12:59:19 -0400";
layers = (
{
layerId = "16808965-E153-4B2B-ADB3-00196C646C32";
name = "Regular Italic";
paths = (
{
closed = 1;
nodes = (
"984 -336 OFFCURVE",
"969 -372 OFFCURVE",
"969 -405 CURVE SMOOTH",
"969 -432 OFFCURVE",
"977 -456 OFFCURVE",
"996 -473 CURVE",
"822 -471 OFFCURVE",
"648 -470 OFFCURVE",
"474 -470 CURVE SMOOTH",
"299 -470 OFFCURVE",
"126 -471 OFFCURVE",
"-47 -473 CURVE",
"-20 -449 OFFCURVE",
"-8 -416 OFFCURVE",
"-8 -384 CURVE SMOOTH",
"-8 -357 OFFCURVE",
"-17 -332 OFFCURVE",
"-34 -313 CURVE",
"131 -316 OFFCURVE",
"294 -317 OFFCURVE",
"459 -317 CURVE SMOOTH",
"644 -317 OFFCURVE",
"826 -316 OFFCURVE",
"1011 -313 CURVE"
);
}
);
width = 1364;
}
);
unicode = 005F;
},
{
glyphname = grave;
lastChange = "2013-03-07 23:14:14 -0500";
layers = (
{
anchors = (
{
name = _top;
position = "{664, 1009}";
}
);
layerId = "16808965-E153-4B2B-ADB3-00196C646C32";
name = "Regular Italic";
paths = (
{
closed = 1;
nodes = (
"573 1592 OFFCURVE",
"592 1563 OFFCURVE",
"611 1534 CURVE SMOOTH",
"648 1474 OFFCURVE",
"686 1416 OFFCURVE",
"726 1358 CURVE SMOOTH",
"746 1329 OFFCURVE",
"767 1301 OFFCURVE",
"789 1274 CURVE",
"717 1278 OFFCURVE",
"647 1281 OFFCURVE",
"575 1281 CURVE SMOOTH",
"543 1281 LINE",
"516 1338 OFFCURVE",
"490 1397 OFFCURVE",
"465 1456 CURVE SMOOTH",
"440 1515 OFFCURVE",
"411 1573 OFFCURVE",
"378 1628 CURVE",
"435 1623 OFFCURVE",
"493 1622 OFFCURVE",
"552 1621 CURVE"
);
}
);
width = 786;
}
);
unicode = 0060;
},
{
glyphname = a;
lastChange = "2013-06-15 12:04:29 -0400";
layers = (
{
anchors = (
{
name = bottom;
position = "{430, -52}";
},
{
name = ogonek;
position = "{1179, 101}";
},
{
name = top;
position = "{627, 1108}";
}
);
layerId = "16808965-E153-4B2B-ADB3-00196C646C32";
name = "Regular Italic";
paths = (
{
closed = 1;
nodes = (
"1037 600 OFFCURVE",
"1037 556 OFFCURVE",
"1060.82 11.998 CURVE",
"1033.83 15.997 OFFCURVE",
"1006.83 18.997 OFFCURVE",
"979.837 20.996 CURVE SMOOTH",
"952.841 22.996 OFFCURVE",
"925.846 24.996 OFFCURVE",
"898.85 27.995 CURVE",
"899.85 59.99 OFFCURVE",
"900.85 91.985 OFFCURVE",
"901.85 123.979 CURVE SMOOTH",
"902.85 155.974 OFFCURVE",
"903.85 187.969 OFFCURVE",
"905.849 219.963 CURVE",
"868.855 154.974 OFFCURVE",
"814.864 101.983 OFFCURVE",
"751.875 65.989 CURVE SMOOTH",
"687.885 29.995 OFFCURVE",
"617 9 OFFCURVE",
"545 9 CURVE SMOOTH",
"507 9 OFFCURVE",
"533 9 OFFCURVE",
"509.915 8.999 CURVE SMOOTH",
"394.934 8.999 OFFCURVE",
"287.952 57.99 OFFCURVE",
"226.962 149.975 CURVE SMOOTH",
"169.972 236.961 OFFCURVE",
"151.975 337.944 OFFCURVE",
"151.975 442.926 CURVE SMOOTH",
"151.975 526.912 OFFCURVE",
"160.973 622.896 OFFCURVE",
"184.969 715.881 CURVE SMOOTH",
"208.965 808.865 OFFCURVE",
"248.959 898.85 OFFCURVE",
"311.948 973.838 CURVE SMOOTH",
"348.942 1020.83 OFFCURVE",
"396.934 1056.82 OFFCURVE",
"449.925 1081.82 CURVE SMOOTH",
"501.916 1106.82 OFFCURVE",
"559.907 1119.81 OFFCURVE",
"615.897 1119.81 CURVE SMOOTH",
"627.896 1119.81 LINE",
"644.893 1119.81 LINE SMOOTH",
"708.882 1119.81 OFFCURVE",
"770.872 1104.82 OFFCURVE",
"823.863 1073.82 CURVE SMOOTH",
"875.854 1042.83 OFFCURVE",
"901 1012 OFFCURVE",
"945 940 CURVE",
"967 901 OFFCURVE",
"978 873 OFFCURVE",
"977.837 885.853 CURVE",
"1007 1049 OFFCURVE",
"995.834 1122.81 OFFCURVE",
"995.834 1122.81 CURVE",
"996 1123 OFFCURVE",
"1070 1096 OFFCURVE",
"1151 1123 CURVE"
);
},
{
closed = 1;
nodes = (
"603.899 1010.83 LINE",
"592.901 1010.83 LINE SMOOTH",
"517.914 1010.83 OFFCURVE",
"458.924 983.836 OFFCURVE",
"411.931 940.843 CURVE SMOOTH",
"364.939 897.851 OFFCURVE",
"330.945 839.86 OFFCURVE",
"306.949 775.871 CURVE SMOOTH",
"282.953 711.882 OFFCURVE",
"266 623 OFFCURVE",
"266 581 CURVE",
"266 505 OFFCURVE",
"277 418 OFFCURVE",
"329.945 372.938 CURVE",
"356.941 345.942 OFFCURVE",
"389.935 331.945 OFFCURVE",
"425.929 323.946 CURVE SMOOTH",
"461.923 315.947 OFFCURVE",
"499.917 312.948 OFFCURVE",
"536.911 312.948 CURVE",
"609.898 315.947 OFFCURVE",
"689.885 320.947 OFFCURVE",
"754.874 363.939 CURVE",
"799.867 396.934 OFFCURVE",
"823.863 450.925 OFFCURVE",
"836.861 506.916 CURVE SMOOTH",
"849.859 561.906 OFFCURVE",
"851.858 617.897 OFFCURVE",
"851.858 657.891 CURVE SMOOTH",
"851.858 713.881 OFFCURVE",
"846.859 768.872 OFFCURVE",
"835.861 821.863 CURVE SMOOTH",
"823.863 878.854 OFFCURVE",
"795.868 926.846 OFFCURVE",
"757.874 959.84 CURVE SMOOTH",
"719.88 992.835 OFFCURVE",
"670.888 1010.83 OFFCURVE",
"617.897 1010.83 CURVE SMOOTH"
);
}
);
width = 1264;
}
);
unicode = 0061;
},
{
glyphname = b;
lastChange = "2013-05-01 02:35:17 -0400";
layers = (
{
anchors = (
{
name = bottom;
position = "{679, -56}";
}
);
layerId = "16808965-E153-4B2B-ADB3-00196C646C32";
name = "Regular Italic";
paths = (
{
closed = 1;
nodes = (
"1117 604 LINE SMOOTH",
"1117 612 OFFCURVE",
"1117 620 OFFCURVE",
"1118 628 CURVE",
"1118 635 OFFCURVE",
"1118 643 OFFCURVE",
"1118 651 CURVE SMOOTH",
"1118 736 OFFCURVE",
"1106 828 OFFCURVE",
"1070 897 CURVE SMOOTH",
"1033 966 OFFCURVE",
"972 1014 OFFCURVE",
"873 1014 CURVE SMOOTH",
"781 1014 OFFCURVE",
"690 980 OFFCURVE",
"630 904 CURVE SMOOTH",
"559 813 OFFCURVE",
"532 702 OFFCURVE",
"523 595 CURVE",
"526 522 OFFCURVE",
"535 445 OFFCURVE",
"580 388 CURVE",
"611 355 OFFCURVE",
"646 334 OFFCURVE",
"685 322 CURVE SMOOTH",
"724 310 OFFCURVE",
"764 306 OFFCURVE",
"803 306 CURVE",
"874 310 OFFCURVE",
"943 329 OFFCURVE",
"1003 370 CURVE",
"1039 399 OFFCURVE",
"1063 437 OFFCURVE",
"1080 478 CURVE SMOOTH",
"1096 518 OFFCURVE",
"1108 562 OFFCURVE",
"1117 603 CURVE"
);
},
{
closed = 1;
nodes = (
"475 938 OFFCURVE",
"479 937 OFFCURVE",
"481 937 CURVE",
"483 936 OFFCURVE",
"485 936 OFFCURVE",
"486 935 CURVE",
"519 994 OFFCURVE",
"571 1040 OFFCURVE",
"629 1072 CURVE SMOOTH",
"687 1103 OFFCURVE",
"752 1120 OFFCURVE",
"816 1120 CURVE SMOOTH",
"832 1120 LINE",
"847 1120 LINE SMOOTH",
"974 1120 OFFCURVE",
"1064 1061 OFFCURVE",
"1123 973 CURVE SMOOTH",
"1182 884 OFFCURVE",
"1208 765 OFFCURVE",
"1208 648 CURVE SMOOTH",
"1208 568 OFFCURVE",
"1201 479 OFFCURVE",
"1180 392 CURVE SMOOTH",
"1159 305 OFFCURVE",
"1123 220 OFFCURVE",
"1064 151 CURVE SMOOTH",
"985 59 OFFCURVE",
"870 9 OFFCURVE",
"754 10 CURVE SMOOTH",
"738 10 LINE SMOOTH",
"735 10 OFFCURVE",
"732 10 OFFCURVE",
"729 10 CURVE",
"726 9 OFFCURVE",
"723 9 OFFCURVE",
"720 9 CURVE SMOOTH",
"649 9 OFFCURVE",
"582 29 OFFCURVE",
"526 66 CURVE SMOOTH",
"469 102 OFFCURVE",
"423 155 OFFCURVE",
"398 219 CURVE",
"271 381 LINE SMOOTH",
"346 894 OFFCURVE",
"348 1029 OFFCURVE",
"360 1544 CURVE",
"387 1539 OFFCURVE",
"413 1536 OFFCURVE",
"440 1534 CURVE",
"467 1531 OFFCURVE",
"494 1528 OFFCURVE",
"522 1525 CURVE",
"507 1329 OFFCURVE",
"493 1135 OFFCURVE",
"470 939 CURVE"
);
}
);
width = 1365;
}
);
unicode = 0062;
},
{
glyphname = c;
lastChange = "2012-10-20 13:21:33 -0400";
layers = (
{
anchors = (
{
name = bottom;
position = "{640, 0}";
},
{
name = top;
position = "{640, 1108}";
}
);
layerId = "16808965-E153-4B2B-ADB3-00196C646C32";
name = "Regular Italic";
paths = (
{
closed = 1;
nodes = (
"1034 1050 OFFCURVE",
"1029 1026 OFFCURVE",
"1026 1002 CURVE",
"1022 978 OFFCURVE",
"1018 954 OFFCURVE",
"1014 929 CURVE",
"930 972 OFFCURVE",
"837 993 OFFCURVE",
"741 993 CURVE SMOOTH",
"689 993 OFFCURVE",
"633 986 OFFCURVE",
"582 967 CURVE SMOOTH",
"530 947 OFFCURVE",
"483 918 OFFCURVE",
"446 874 CURVE SMOOTH",
"407 830 OFFCURVE",
"380 778 OFFCURVE",
"363 724 CURVE SMOOTH",
"346 670 OFFCURVE",
"336 612 OFFCURVE",
"331 557 CURVE",
"331 520 OFFCURVE",
"335 480 OFFCURVE",
"347 445 CURVE SMOOTH",
"358 409 OFFCURVE",
"376 377 OFFCURVE",
"407 354 CURVE",
"479 305 OFFCURVE",
"567 295 OFFCURVE",
"655 288 CURVE",
"807 285 LINE",
"819 285 LINE SMOOTH",
"863 285 OFFCURVE",
"909 295 OFFCURVE",
"950 315 CURVE",
"947 260 OFFCURVE",
"946 209 OFFCURVE",
"946 154 CURVE SMOOTH",
"946 119 OFFCURVE",
"947 85 OFFCURVE",
"948 50 CURVE",
"852 15 OFFCURVE",
"754 1 OFFCURVE",
"657 1 CURVE SMOOTH",
"582 1 OFFCURVE",
"505 8 OFFCURVE",
"434 29 CURVE SMOOTH",
"362 50 OFFCURVE",
"297 87 OFFCURVE",
"250 146 CURVE SMOOTH",
"177 234 OFFCURVE",
"156 349 OFFCURVE",
"156 466 CURVE SMOOTH",
"156 546 OFFCURVE",
"164 640 OFFCURVE",
"189 729 CURVE SMOOTH",
"213 818 OFFCURVE",
"255 905 OFFCURVE",
"323 970 CURVE SMOOTH",
"384 1029 OFFCURVE",
"457 1065 OFFCURVE",
"534 1087 CURVE SMOOTH",
"611 1109 OFFCURVE",
"692 1116 OFFCURVE",
"768 1116 CURVE SMOOTH",
"864 1116 OFFCURVE",
"955 1100 OFFCURVE",
"1043 1067 CURVE",
"1041 1070 OFFCURVE",
"1040 1072 OFFCURVE",
"1039 1075 CURVE"
);
}
);
width = 1205;
}
);
unicode = 0063;
},
{
glyphname = d;
lastChange = "2013-05-01 02:35:06 -0400";
layers = (
{
anchors = (
{
name = bottom;
position = "{540, -40}";
},
{
name = center;
position = "{772, 554}";
},
{
name = top;
position = "{703, 1232}";
}
);
layerId = "16808965-E153-4B2B-ADB3-00196C646C32";
name = "Regular Italic";
paths = (
{
closed = 1;
nodes = (
"985 1141 OFFCURVE",
"1017 1334 OFFCURVE",
"1052 1529 CURVE",
"1080 1531 OFFCURVE",
"1108 1534 OFFCURVE",
"1135 1537 CURVE SMOOTH",
"1162 1540 OFFCURVE",
"1190 1544 OFFCURVE",
"1218 1547 CURVE",
"1125 1034 OFFCURVE",
"1069 527 OFFCURVE",
"1061 12 CURVE",
"1034 16 OFFCURVE",
"1007 19 OFFCURVE",
"980 21 CURVE SMOOTH",
"953 23 OFFCURVE",
"926 25 OFFCURVE",
"899 28 CURVE",
"900 60 OFFCURVE",
"901 92 OFFCURVE",
"902 124 CURVE SMOOTH",
"903 156 OFFCURVE",
"904 188 OFFCURVE",
"906 220 CURVE",
"869 155 OFFCURVE",
"815 102 OFFCURVE",
"752 66 CURVE SMOOTH",
"688 30 OFFCURVE",
"617 10 OFFCURVE",
"545 10 CURVE SMOOTH",
"530 10 LINE SMOOTH",
"527 10 OFFCURVE",
"523 10 OFFCURVE",
"520 10 CURVE",
"517 9 OFFCURVE",
"513 9 OFFCURVE",
"510 9 CURVE SMOOTH",
"395 9 OFFCURVE",
"288 58 OFFCURVE",
"227 150 CURVE SMOOTH",
"170 237 OFFCURVE",
"152 338 OFFCURVE",
"152 443 CURVE SMOOTH",
"152 527 OFFCURVE",
"161 623 OFFCURVE",
"185 716 CURVE SMOOTH",
"209 809 OFFCURVE",
"249 899 OFFCURVE",
"312 974 CURVE SMOOTH",
"349 1021 OFFCURVE",
"397 1057 OFFCURVE",
"450 1082 CURVE SMOOTH",
"502 1107 OFFCURVE",
"560 1120 OFFCURVE",
"616 1120 CURVE SMOOTH",
"628 1120 LINE",
"645 1120 LINE SMOOTH",
"709 1120 OFFCURVE",
"771 1105 OFFCURVE",
"824 1074 CURVE SMOOTH",
"876 1043 OFFCURVE",
"919 999 OFFCURVE",
"943 940 CURVE",
"946 941 OFFCURVE",
"949 942 OFFCURVE",
"952 943 CURVE",
"955 943 OFFCURVE",
"958 944 OFFCURVE",
"961 945 CURVE"
);
},
{
closed = 1;
nodes = (
"262 579 LINE",
"265 504 OFFCURVE",
"279 428 OFFCURVE",
"330 373 CURVE",
"357 346 OFFCURVE",
"390 332 OFFCURVE",
"426 324 CURVE SMOOTH",
"462 316 OFFCURVE",
"500 313 OFFCURVE",
"537 313 CURVE",
"610 316 OFFCURVE",
"690 321 OFFCURVE",
"755 364 CURVE",
"800 397 OFFCURVE",
"824 451 OFFCURVE",
"837 507 CURVE SMOOTH",
"850 562 OFFCURVE",
"852 618 OFFCURVE",
"852 658 CURVE SMOOTH",
"852 714 OFFCURVE",
"847 769 OFFCURVE",
"836 822 CURVE SMOOTH",
"824 879 OFFCURVE",
"796 927 OFFCURVE",
"758 960 CURVE SMOOTH",
"720 993 OFFCURVE",
"671 1011 OFFCURVE",
"618 1011 CURVE SMOOTH",
"604 1011 LINE",
"593 1011 LINE SMOOTH",
"518 1011 OFFCURVE",
"459 984 OFFCURVE",
"412 941 CURVE SMOOTH",
"365 898 OFFCURVE",
"331 840 OFFCURVE",
"307 776 CURVE SMOOTH",
"283 712 OFFCURVE",
"269 644 OFFCURVE",
"262 581 CURVE"
);
}
);
width = 1326;
}
);
unicode = 0064;
},
{
glyphname = e;
lastChange = "2012-10-20 13:28:10 -0400";
layers = (
{
anchors = (
{
name = bottom;
position = "{647, 3}";
},
{
name = ogonek;
position = "{782, 3}";
},
{
name = top;
position = "{675, 1108}";
}
);
layerId = "16808965-E153-4B2B-ADB3-00196C646C32";
name = "Regular Italic";
paths = (
{
closed = 1;
nodes = (
"1111 675 LINE",
"1110 665 OFFCURVE",
"1109 655 OFFCURVE",
"1108 646 CURVE SMOOTH",
"1107 636 OFFCURVE",
"1105 626 OFFCURVE",
"1104 616 CURVE",
"938 614 OFFCURVE",
"772 613 OFFCURVE",
"607 613 CURVE SMOOTH",
"559 613 OFFCURVE",
"511 613 OFFCURVE",
"464 614 CURVE SMOOTH",
"416 614 OFFCURVE",
"368 614 OFFCURVE",
"320 614 CURVE",
"319 589 OFFCURVE",
"317 563 OFFCURVE",
"317 536 CURVE SMOOTH",
"317 493 OFFCURVE",
"320 452 OFFCURVE",
"332 414 CURVE SMOOTH",
"344 376 OFFCURVE",
"363 341 OFFCURVE",
"398 316 CURVE",
"442 288 OFFCURVE",
"493 271 OFFCURVE",
"546 260 CURVE SMOOTH",
"598 249 OFFCURVE",
"653 246 OFFCURVE",
"704 246 CURVE SMOOTH",
"763 246 OFFCURVE",
"822 246 OFFCURVE",
"880 251 CURVE SMOOTH",
"938 256 OFFCURVE",
"994 268 OFFCURVE",
"1047 295 CURVE",
"1046 276 OFFCURVE",
"1046 257 OFFCURVE",
"1046 238 CURVE SMOOTH",
"1046 219 OFFCURVE",
"1046 200 OFFCURVE",
"1046 181 CURVE SMOOTH",
"1046 162 OFFCURVE",
"1046 143 OFFCURVE",
"1046 124 CURVE SMOOTH",
"1046 105 OFFCURVE",
"1047 86 OFFCURVE",
"1048 67 CURVE",
"917 23 OFFCURVE",
"782 3 OFFCURVE",
"647 3 CURVE",
"575 8 OFFCURVE",
"500 18 OFFCURVE",
"432 39 CURVE SMOOTH",
"363 60 OFFCURVE",
"300 93 OFFCURVE",
"252 148 CURVE SMOOTH",
"213 191 OFFCURVE",
"188 241 OFFCURVE",
"173 297 CURVE SMOOTH",
"157 352 OFFCURVE",
"152 410 OFFCURVE",
"152 469 CURVE SMOOTH",
"152 548 OFFCURVE",
"163 639 OFFCURVE",
"190 728 CURVE SMOOTH",
"217 816 OFFCURVE",
"259 902 OFFCURVE",
"320 967 CURVE SMOOTH",
"372 1020 OFFCURVE",
"436 1057 OFFCURVE",
"504 1080 CURVE SMOOTH",
"572 1103 OFFCURVE",
"645 1113 OFFCURVE",
"713 1114 CURVE",
"769 1111 OFFCURVE",
"828 1105 OFFCURVE",
"883 1089 CURVE SMOOTH",
"938 1073 OFFCURVE",
"989 1049 OFFCURVE",
"1029 1009 CURVE",
"1064 970 OFFCURVE",
"1084 924 OFFCURVE",
"1096 875 CURVE SMOOTH",
"1108 826 OFFCURVE",
"1111 772 OFFCURVE",
"1111 720 CURVE SMOOTH",
"1111 713 OFFCURVE",
"1111 705 OFFCURVE",
"1111 697 CURVE",
"1110 689 OFFCURVE",
"1110 681 OFFCURVE",
"1110 674 CURVE"
);
},
{
closed = 1;
nodes = (
"986 830 OFFCURVE",
"957 902 OFFCURVE",
"908 954 CURVE SMOOTH",
"859 1006 OFFCURVE",
"790 1039 OFFCURVE",
"706 1039 CURVE SMOOTH",
"617 1039 OFFCURVE",
"521 1014 OFFCURVE",
"452 949 CURVE",
"392 897 OFFCURVE",
"353 825 OFFCURVE",
"349 749 CURVE",
"386 748 OFFCURVE",
"422 747 OFFCURVE",
"459 747 CURVE SMOOTH",
"496 747 OFFCURVE",
"533 747 OFFCURVE",
"570 747 CURVE SMOOTH",
"711 747 OFFCURVE",
"848 748 OFFCURVE",
"989 751 CURVE"
);
}
);
width = 1302;
}
);
unicode = 0065;
},
{
glyphname = f;
lastChange = "2012-10-20 12:59:19 -0400";
layers = (
{
layerId = "16808965-E153-4B2B-ADB3-00196C646C32";
name = "Regular Italic";
paths = (
{
closed = 1;
nodes = (
"915 1482 OFFCURVE",
"911 1460 OFFCURVE",
"908 1438 CURVE SMOOTH",
"905 1415 OFFCURVE",
"902 1393 OFFCURVE",
"899 1370 CURVE",
"890 1369 OFFCURVE",
"880 1369 OFFCURVE",
"871 1369 CURVE SMOOTH",
"861 1369 OFFCURVE",
"851 1369 OFFCURVE",
"842 1369 CURVE SMOOTH",
"811 1369 OFFCURVE",
"780 1370 OFFCURVE",
"749 1371 CURVE",
"712 1368 OFFCURVE",
"672 1361 OFFCURVE",
"641 1334 CURVE",
"609 1295 OFFCURVE",
"604 1244 OFFCURVE",
"599 1197 CURVE",
"599 1180 OFFCURVE",
"599 1163 OFFCURVE",
"599 1146 CURVE SMOOTH",
"599 1129 OFFCURVE",
"599 1111 OFFCURVE",
"600 1094 CURVE",
"692 1095 OFFCURVE",
"786 1099 OFFCURVE",
"878 1108 CURVE",
"871 1053 OFFCURVE",
"866 1001 OFFCURVE",
"861 946 CURVE",
"769 941 OFFCURVE",
"678 939 OFFCURVE",
"586 938 CURVE",
"567 637 OFFCURVE",
"550 339 OFFCURVE",
"539 38 CURVE",
"528 39 OFFCURVE",
"518 39 OFFCURVE",
"508 39 CURVE SMOOTH",
"497 39 OFFCURVE",
"487 39 OFFCURVE",
"476 39 CURVE SMOOTH",
"415 39 OFFCURVE",
"354 36 OFFCURVE",
"292 30 CURVE",
"339 335 OFFCURVE",
"376 635 OFFCURVE",
"411 940 CURVE",
"359 941 OFFCURVE",
"308 943 OFFCURVE",
"256 947 CURVE",
"258 974 OFFCURVE",
"260 1001 OFFCURVE",
"263 1028 CURVE",
"265 1055 OFFCURVE",
"267 1082 OFFCURVE",
"268 1109 CURVE",
"319 1102 OFFCURVE",
"371 1100 OFFCURVE",
"422 1097 CURVE",
"428 1122 OFFCURVE",
"433 1149 OFFCURVE",
"437 1179 CURVE SMOOTH",
"444 1239 OFFCURVE",
"456 1300 OFFCURVE",
"484 1354 CURVE SMOOTH",
"511 1408 OFFCURVE",
"574 1454 OFFCURVE",
"650 1479 CURVE SMOOTH",
"687 1491 OFFCURVE",
"726 1499 OFFCURVE",
"765 1502 CURVE",
"764 1502 LINE",
"775 1501 OFFCURVE",
"785 1501 OFFCURVE",
"796 1501 CURVE SMOOTH",
"806 1501 OFFCURVE",
"816 1501 OFFCURVE",
"827 1501 CURVE SMOOTH",
"858 1501 OFFCURVE",
"887 1502 OFFCURVE",
"918 1505 CURVE"
);
}
);
width = 928;
}
);
unicode = 0066;
},
{
glyphname = g;
lastChange = "2012-10-20 13:12:33 -0400";
layers = (
{
anchors = (
{
name = top;
position = "{697, 1108}";
}
);
layerId = "16808965-E153-4B2B-ADB3-00196C646C32";
name = "Regular Italic";
paths = (
{
closed = 1;
nodes = (
"864 602 OFFCURVE",
"865 626 OFFCURVE",
"865 653 CURVE SMOOTH",
"865 769 OFFCURVE",
"836 851 OFFCURVE",
"786 906 CURVE SMOOTH",
"736 961 OFFCURVE",
"664 986 OFFCURVE",
"580 986 CURVE SMOOTH",
"495 986 OFFCURVE",
"404 953 OFFCURVE",
"348 884 CURVE SMOOTH",
"312 840 OFFCURVE",
"290 789 OFFCURVE",
"275 737 CURVE SMOOTH",
"260 685 OFFCURVE",
"254 630 OFFCURVE",
"250 578 CURVE",
"251 557 OFFCURVE",
"253 535 OFFCURVE",
"254 512 CURVE SMOOTH",
"257 467 OFFCURVE",
"263 423 OFFCURVE",
"279 384 CURVE SMOOTH",
"287 364 OFFCURVE",
"299 346 OFFCURVE",
"314 331 CURVE",
"371 292 OFFCURVE",
"446 289 OFFCURVE",
"517 289 CURVE SMOOTH",
"594 289 OFFCURVE",
"675 300 OFFCURVE",
"748 331 CURVE",
"791 356 OFFCURVE",
"817 396 OFFCURVE",
"833 440 CURVE SMOOTH",
"849 484 OFFCURVE",
"856 532 OFFCURVE",
"861 575 CURVE SMOOTH"
);
},
{
closed = 1;
nodes = (
"1031 61 OFFCURVE",
"1022 -24 OFFCURVE",
"1002 -106 CURVE SMOOTH",
"981 -188 OFFCURVE",
"948 -268 OFFCURVE",
"888 -333 CURVE",
"832 -389 OFFCURVE",
"763 -419 OFFCURVE",
"691 -435 CURVE SMOOTH",
"619 -452 OFFCURVE",
"543 -455 OFFCURVE",
"474 -455 CURVE SMOOTH",
"370 -455 OFFCURVE",
"267 -446 OFFCURVE",
"168 -419 CURVE",
"184 -319 OFFCURVE",
"196 -218 OFFCURVE",
"208 -118 CURVE",
"296 -166 OFFCURVE",
"395 -185 OFFCURVE",
"499 -185 CURVE SMOOTH",
"546 -184 OFFCURVE",
"596 -179 OFFCURVE",
"644 -163 CURVE SMOOTH",
"691 -148 OFFCURVE",
"735 -124 OFFCURVE",
"770 -85 CURVE SMOOTH",
"823 -29 OFFCURVE",
"866 37 OFFCURVE",
"886 110 CURVE",
"887 125 OFFCURVE",
"888 141 OFFCURVE",
"890 157 CURVE",
"891 172 OFFCURVE",
"892 188 OFFCURVE",
"892 203 CURVE",
"803 80 OFFCURVE",
"675 22 OFFCURVE",
"527 22 CURVE SMOOTH",
"414 22 OFFCURVE",
"307 72 OFFCURVE",
"247 165 CURVE SMOOTH",
"182 261 OFFCURVE",
"164 378 OFFCURVE",
"164 497 CURVE SMOOTH",
"164 573 OFFCURVE",
"170 658 OFFCURVE",
"190 742 CURVE SMOOTH",
"210 825 OFFCURVE",
"244 905 OFFCURVE",
"303 970 CURVE SMOOTH",
"343 1017 OFFCURVE",
"392 1051 OFFCURVE",
"447 1073 CURVE SMOOTH",
"502 1095 OFFCURVE",
"561 1105 OFFCURVE",
"617 1105 CURVE SMOOTH",
"632 1105 LINE",
"648 1105 LINE SMOOTH",
"717 1105 OFFCURVE",
"786 1086 OFFCURVE",
"843 1051 CURVE SMOOTH",
"899 1016 OFFCURVE",
"944 966 OFFCURVE",
"971 902 CURVE",
"979 934 OFFCURVE",
"987 966 OFFCURVE",
"995 998 CURVE SMOOTH",
"1003 1029 OFFCURVE",
"1011 1061 OFFCURVE",
"1019 1093 CURVE",
"1047 1096 OFFCURVE",
"1075 1099 OFFCURVE",
"1102 1102 CURVE",
"1129 1104 OFFCURVE",
"1157 1107 OFFCURVE",
"1185 1111 CURVE",
"1120 787 OFFCURVE",
"1077 466 OFFCURVE",
"1042 141 CURVE SMOOTH"
);
}
);
width = 1293;
}
);
unicode = 0067;
},
{
glyphname = h;
lastChange = "2013-05-01 02:36:07 -0400";
layers = (
{
anchors = (
{
name = bottom;
position = "{630, -3}";
},
{
name = center;
position = "{585, 554}";
},
{
name = top;
position = "{825, 1120}";
}
);
layerId = "16808965-E153-4B2B-ADB3-00196C646C32";
name = "Regular Italic";
paths = (
{
closed = 1;
nodes = (
"1145 532 OFFCURVE",
"1141 389 OFFCURVE",
"1141 247 CURVE SMOOTH",
"1141 167 OFFCURVE",
"1142 90 OFFCURVE",
"1145 10 CURVE",
"1078 19 OFFCURVE",
"1010 26 OFFCURVE",
"943 31 CURVE",
"956 246 OFFCURVE",
"976 457 OFFCURVE",
"999 672 CURVE SMOOTH",
"1001 693 OFFCURVE",
"1002 714 OFFCURVE",
"1002 737 CURVE SMOOTH",
"1002 796 OFFCURVE",
"994 852 OFFCURVE",
"971 903 CURVE",
"928 979 OFFCURVE",
"859 1005 OFFCURVE",
"783 1005 CURVE SMOOTH",
"699 1005 OFFCURVE",
"609 971 OFFCURVE",
"549 902 CURVE SMOOTH",
"484 826 OFFCURVE",
"450 730 OFFCURVE",
"443 635 CURVE SMOOTH",
"435 534 OFFCURVE",
"428 433 OFFCURVE",
"421 333 CURVE SMOOTH",
"414 232 OFFCURVE",
"404 131 OFFCURVE",
"393 30 CURVE",
"325 25 OFFCURVE",
"256 19 OFFCURVE",
"187 10 CURVE",
"286 521 OFFCURVE",
"341 1027 OFFCURVE",
"360 1540 CURVE",
"416 1533 OFFCURVE",
"468 1527 OFFCURVE",
"524 1523 CURVE",
"508 1316 OFFCURVE",
"490 1114 OFFCURVE",
"466 907 CURVE",
"506 967 OFFCURVE",
"561 1021 OFFCURVE",
"623 1059 CURVE SMOOTH",
"685 1097 OFFCURVE",
"753 1120 OFFCURVE",
"825 1120 CURVE SMOOTH",
"836 1120 LINE",
"852 1120 LINE SMOOTH",
"903 1120 OFFCURVE",
"955 1111 OFFCURVE",
"1000 1091 CURVE SMOOTH",
"1045 1070 OFFCURVE",
"1084 1037 OFFCURVE",
"1107 992 CURVE SMOOTH",
"1146 913 OFFCURVE",
"1156 833 OFFCURVE",
"1156 757 CURVE SMOOTH",
"1156 730 OFFCURVE",
"1155 703 OFFCURVE",
"1153 676 CURVE SMOOTH"
);
}
);
width = 1411;
}
);
unicode = 0068;
},
{
glyphname = i;
lastChange = "2013-05-01 02:34:56 -0400";
layers = (
{
anchors = (
{
name = bottom;
position = "{315, -1}";
}
);
layerId = "16808965-E153-4B2B-ADB3-00196C646C32";
name = "Regular Italic";
paths = (
{
closed = 1;
nodes = (
"346 1097 OFFCURVE",
"367 1093 OFFCURVE",
"389 1093 CURVE SMOOTH",
"413 1093 OFFCURVE",
"437 1098 OFFCURVE",
"461 1105 CURVE",
"430 738 OFFCURVE",
"403 377 OFFCURVE",
"379 10 CURVE",
"358 29 OFFCURVE",
"332 39 OFFCURVE",
"302 39 CURVE SMOOTH",
"271 39 OFFCURVE",
"240 29 OFFCURVE",
"215 10 CURVE",
"255 377 OFFCURVE",
"292 737 OFFCURVE",
"325 1104 CURVE"
);
},
{
closed = 1;
nodes = (
"378 1522 OFFCURVE",
"402 1515 OFFCURVE",
"427 1515 CURVE SMOOTH",
"454 1515 OFFCURVE",
"480 1523 OFFCURVE",
"503 1539 CURVE",
"501 1504 OFFCURVE",
"499 1469 OFFCURVE",
"498 1435 CURVE SMOOTH",
"497 1400 OFFCURVE",
"495 1365 OFFCURVE",
"492 1330 CURVE",
"465 1315 OFFCURVE",
"437 1307 OFFCURVE",
"408 1307 CURVE SMOOTH",
"379 1307 OFFCURVE",
"355 1315 OFFCURVE",
"334 1331 CURVE",
"338 1366 OFFCURVE",
"342 1400 OFFCURVE",
"347 1435 CURVE SMOOTH",
"351 1469 OFFCURVE",
"355 1503 OFFCURVE",
"359 1538 CURVE"
);
}
);
width = 645;
}
);
unicode = 0069;
},
{
glyphname = j;
lastChange = "2012-10-20 12:59:19 -0400";
layers = (
{
layerId = "16808965-E153-4B2B-ADB3-00196C646C32";
name = "Regular Italic";
paths = (
{
closed = 1;
nodes = (
"456 1081 OFFCURVE",
"506 1085 OFFCURVE",
"555 1092 CURVE",
"505 725 OFFCURVE",
"460 357 OFFCURVE",
"420 -14 CURVE SMOOTH",
"415 -62 OFFCURVE",
"409 -113 OFFCURVE",
"394 -161 CURVE SMOOTH",
"379 -210 OFFCURVE",
"357 -256 OFFCURVE",
"318 -293 CURVE",
"267 -338 OFFCURVE",
"207 -359 OFFCURVE",
"146 -374 CURVE SMOOTH",
"115 -381 OFFCURVE",
"84 -388 OFFCURVE",
"53 -393 CURVE SMOOTH",
"22 -398 OFFCURVE",
"-8 -406 OFFCURVE",
"-37 -416 CURVE",
"-31 -373 OFFCURVE",
"-25 -330 OFFCURVE",
"-18 -287 CURVE SMOOTH",
"-12 -244 OFFCURVE",
"-6 -201 OFFCURVE",
"-1 -158 CURVE",
"16 -154 OFFCURVE",
"35 -150 OFFCURVE",
"54 -147 CURVE SMOOTH",
"93 -141 OFFCURVE",
"131 -132 OFFCURVE",
"167 -115 CURVE SMOOTH",
"185 -107 OFFCURVE",
"202 -96 OFFCURVE",
"217 -82 CURVE",
"216 -82 LINE",
"237 -54 OFFCURVE",
"251 -21 OFFCURVE",
"259 12 CURVE SMOOTH",
"267 45 OFFCURVE",
"272 80 OFFCURVE",
"276 113 CURVE SMOOTH",
"298 275 OFFCURVE",
"320 436 OFFCURVE",
"341 597 CURVE SMOOTH",
"362 757 OFFCURVE",
"384 918 OFFCURVE",
"407 1080 CURVE"
);
},
{
closed = 1;
nodes = (
"540 1519 OFFCURVE",
"589 1528 OFFCURVE",
"637 1543 CURVE",
"634 1507 OFFCURVE",
"631 1472 OFFCURVE",
"629 1437 CURVE SMOOTH",
"627 1402 OFFCURVE",
"625 1366 OFFCURVE",
"622 1330 CURVE",
"569 1315 OFFCURVE",
"515 1308 OFFCURVE",
"459 1303 CURVE",
"464 1338 OFFCURVE",
"470 1373 OFFCURVE",
"475 1408 CURVE SMOOTH",
"480 1442 OFFCURVE",
"486 1477 OFFCURVE",
"491 1512 CURVE"
);
}
);
width = 698;
}
);
unicode = 006A;
},
{
glyphname = k;
lastChange = "2012-10-20 12:59:19 -0400";
layers = (
{
anchors = (
{
name = bottom;
position = "{573, 0}";
}
);
layerId = "16808965-E153-4B2B-ADB3-00196C646C32";
name = "Regular Italic";
paths = (
{
closed = 1;
nodes = (
"416 1533 OFFCURVE",
"468 1527 OFFCURVE",
"524 1524 CURVE",
"509 1233 OFFCURVE",
"486 942 OFFCURVE",
"455 651 CURVE",
"524 726 OFFCURVE",
"592 800 OFFCURVE",
"660 874 CURVE SMOOTH",
"727 947 OFFCURVE",
"796 1021 OFFCURVE",
"866 1094 CURVE",
"933 1095 OFFCURVE",
"997 1096 OFFCURVE",
"1065 1099 CURVE",
"991 1016 OFFCURVE",
"918 933 OFFCURVE",
"846 850 CURVE SMOOTH",
"773 767 OFFCURVE",
"700 684 OFFCURVE",
"627 601 CURVE",
"814 404 OFFCURVE",
"996 211 OFFCURVE",
"1177 10 CURVE",
"1063 25 OFFCURVE",
"947 34 OFFCURVE",
"830 37 CURVE",
"698 212 OFFCURVE",
"570 384 OFFCURVE",
"445 563 CURVE",
"442 474 OFFCURVE",
"437 385 OFFCURVE",
"431 297 CURVE SMOOTH",
"424 209 OFFCURVE",
"418 120 OFFCURVE",
"412 31 CURVE",
"375 28 OFFCURVE",
"337 25 OFFCURVE",
"300 22 CURVE SMOOTH",
"263 19 OFFCURVE",
"225 15 OFFCURVE",
"187 10 CURVE",
"287 521 OFFCURVE",
"343 1027 OFFCURVE",
"360 1540 CURVE"
);
}
);
width = 1443;
}
);
unicode = 006B;
},
{
glyphname = l;
lastChange = "2013-05-03 04:17:55 -0400";
layers = (
{
anchors = (
{
name = bottom;
position = "{362, -33}";
},
{
name = center;
position = "{635, 824}";
},
{
name = top;
position = "{533, 1409}";
},
{
name = topright;
position = "{573, 1108}";
}
);
layerId = "16808965-E153-4B2B-ADB3-00196C646C32";
name = "Regular Italic";
paths = (
{
closed = 1;
nodes = (
"396 1520 OFFCURVE",
"438 1515 OFFCURVE",
"479 1515 CURVE SMOOTH",
"484 1515 OFFCURVE",
"490 1515 OFFCURVE",
"496 1515 CURVE SMOOTH",
"501 1515 OFFCURVE",
"507 1515 OFFCURVE",
"512 1516 CURVE",
"473 1088 OFFCURVE",
"435 667 OFFCURVE",
"399 239 CURVE",
"475 239 OFFCURVE",
"543 220 OFFCURVE",
"582 208 CURVE",
"577 139 OFFCURVE",
"572 69 OFFCURVE",
"568 0 CURVE",
"523 20 OFFCURVE",
"446 39 OFFCURVE",
"360 39 CURVE SMOOTH",
"308 39 OFFCURVE",
"257 29 OFFCURVE",
"206 10 CURVE",
"270 522 OFFCURVE",
"320 1025 OFFCURVE",
"359 1537 CURVE"
);
}
);
width = 770;
}
);
unicode = 006C;
},
{
glyphname = m;
lastChange = "2012-10-20 12:59:19 -0400";
layers = (
{
layerId = "16808965-E153-4B2B-ADB3-00196C646C32";
name = "Regular Italic";
paths = (
{
closed = 1;
nodes = (
"1162 954 OFFCURVE",
"1218 1018 OFFCURVE",
"1287 1061 CURVE SMOOTH",
"1359 1109 OFFCURVE",
"1450 1123 OFFCURVE",
"1530 1123 CURVE SMOOTH",
"1579 1123 OFFCURVE",
"1630 1110 OFFCURVE",
"1671 1086 CURVE SMOOTH",
"1711 1061 OFFCURVE",
"1743 1023 OFFCURVE",
"1758 974 CURVE SMOOTH",
"1774 918 OFFCURVE",
"1779 865 OFFCURVE",
"1779 810 CURVE SMOOTH",
"1779 765 OFFCURVE",
"1775 720 OFFCURVE",
"1771 676 CURVE SMOOTH",
"1760 573 OFFCURVE",
"1755 471 OFFCURVE",
"1755 370 CURVE SMOOTH",
"1755 247 OFFCURVE",
"1764 129 OFFCURVE",
"1784 10 CURVE",
"1745 12 OFFCURVE",
"1707 14 OFFCURVE",
"1669 16 CURVE SMOOTH",
"1630 18 OFFCURVE",
"1591 20 OFFCURVE",
"1552 21 CURVE",
"1552 52 LINE SMOOTH",
"1552 268 OFFCURVE",
"1581 481 OFFCURVE",
"1618 697 CURVE",
"1620 720 OFFCURVE",
"1622 742 OFFCURVE",
"1625 765 CURVE",
"1627 788 OFFCURVE",
"1628 811 OFFCURVE",
"1628 834 CURVE SMOOTH",
"1628 958 OFFCURVE",
"1582 1013 OFFCURVE",
"1481 1013 CURVE SMOOTH",
"1386 1013 OFFCURVE",
"1291 979 OFFCURVE",
"1227 899 CURVE SMOOTH",
"1162 822 OFFCURVE",
"1132 726 OFFCURVE",
"1125 630 CURVE",
"1102 429 OFFCURVE",
"1084 230 OFFCURVE",
"1071 31 CURVE",
"836 31 LINE",
"883 256 OFFCURVE",
"926 478 OFFCURVE",
"966 703 CURVE",
"968 724 OFFCURVE",
"969 745 OFFCURVE",
"969 768 CURVE SMOOTH",
"969 825 OFFCURVE",
"962 881 OFFCURVE",
"935 930 CURVE",
"911 966 OFFCURVE",
"881 989 OFFCURVE",
"847 1002 CURVE SMOOTH",
"813 1015 OFFCURVE",
"775 1020 OFFCURVE",
"739 1020 CURVE SMOOTH",
"640 1020 OFFCURVE",
"564 968 OFFCURVE",
"511 893 CURVE SMOOTH",
"458 817 OFFCURVE",
"428 720 OFFCURVE",
"424 632 CURVE SMOOTH",
"413 427 OFFCURVE",
"395 224 OFFCURVE",
"352 20 CURVE",
"277 17 OFFCURVE",
"204 14 OFFCURVE",
"128 10 CURVE",
"225 321 OFFCURVE",
"271 639 OFFCURVE",
"271 956 CURVE SMOOTH",
"271 1006 OFFCURVE",
"270 1057 OFFCURVE",
"268 1108 CURVE",
"295 1107 OFFCURVE",
"322 1106 OFFCURVE",
"349 1105 CURVE SMOOTH",
"376 1104 OFFCURVE",
"403 1102 OFFCURVE",
"430 1101 CURVE",
"427 1045 OFFCURVE",
"422 992 OFFCURVE",
"415 936 CURVE",
"418 935 OFFCURVE",
"421 934 OFFCURVE",
"424 933 CURVE",
"426 932 OFFCURVE",
"429 931 OFFCURVE",
"432 930 CURVE",
"463 989 OFFCURVE",
"511 1036 OFFCURVE",
"568 1068 CURVE SMOOTH",
"624 1100 OFFCURVE",
"688 1118 OFFCURVE",
"751 1118 CURVE SMOOTH",
"831 1118 OFFCURVE",
"910 1101 OFFCURVE",
"974 1064 CURVE SMOOTH",
"1037 1027 OFFCURVE",
"1085 969 OFFCURVE",
"1101 888 CURVE",
"1108 888 OFFCURVE",
"1111 887 OFFCURVE",
"1118 886 CURVE"
);
}
);
width = 2050;
}
);
unicode = 006D;
},
{
glyphname = n;
lastChange = "2012-10-20 13:27:51 -0400";
layers = (
{
anchors = (
{
name = bottom;
position = "{626, 0}";
},
{
name = top;
position = "{626, 1108}";
}
);
layerId = "16808965-E153-4B2B-ADB3-00196C646C32";
name = "Regular Italic";
paths = (
{
closed = 1;
nodes = (
"1121 554 OFFCURVE",
"1116 434 OFFCURVE",
"1116 313 CURVE SMOOTH",
"1116 210 OFFCURVE",
"1120 110 OFFCURVE",
"1129 10 CURVE",
"1049 18 OFFCURVE",
"970 23 OFFCURVE",
"889 26 CURVE",
"905 245 OFFCURVE",
"933 459 OFFCURVE",
"966 676 CURVE",
"969 707 OFFCURVE",
"971 738 OFFCURVE",
"971 769 CURVE SMOOTH",
"971 816 OFFCURVE",
"965 861 OFFCURVE",
"946 904 CURVE",
"929 937 OFFCURVE",
"902 958 OFFCURVE",
"874 971 CURVE SMOOTH",
"845 984 OFFCURVE",
"812 989 OFFCURVE",
"780 989 CURVE SMOOTH",
"735 989 OFFCURVE",
"686 984 OFFCURVE",
"640 971 CURVE SMOOTH",
"594 958 OFFCURVE",
"550 934 OFFCURVE",
"515 897 CURVE SMOOTH",
"450 825 OFFCURVE",
"425 731 OFFCURVE",
"418 640 CURVE",
"411 436 OFFCURVE",
"397 231 OFFCURVE",
"376 26 CURVE",
"296 22 OFFCURVE",
"221 18 OFFCURVE",
"141 10 CURVE",
"225 379 OFFCURVE",
"265 747 OFFCURVE",
"270 1118 CURVE",
"325 1111 OFFCURVE",
"377 1108 OFFCURVE",
"432 1105 CURVE",
"431 1082 OFFCURVE",
"431 1058 OFFCURVE",
"430 1035 CURVE SMOOTH",
"429 1011 OFFCURVE",
"429 987 OFFCURVE",
"428 964 CURVE",
"551 1055 OFFCURVE",
"681 1116 OFFCURVE",
"829 1116 CURVE SMOOTH",
"881 1116 OFFCURVE",
"933 1107 OFFCURVE",
"978 1087 CURVE SMOOTH",
"1023 1066 OFFCURVE",
"1062 1034 OFFCURVE",
"1086 989 CURVE",
"1122 909 OFFCURVE",
"1131 830 OFFCURVE",
"1131 750 CURVE SMOOTH",
"1131 725 OFFCURVE",
"1130 700 OFFCURVE",
"1129 675 CURVE SMOOTH"
);
}
);
width = 1395;
}
);
unicode = 006E;
},
{
glyphname = o;
lastChange = "2013-05-01 02:34:40 -0400";
layers = (
{
anchors = (
{
name = bottom;
position = "{575, -31}";
},
{
name = top;
position = "{670, 1108}";
}
);
layerId = "16808965-E153-4B2B-ADB3-00196C646C32";
name = "Regular Italic";
paths = (
{
closed = 1;
nodes = (
"582 1002 OFFCURVE",
"491 967 OFFCURVE",
"431 891 CURVE SMOOTH",
"388 836 OFFCURVE",
"361 772 OFFCURVE",
"345 707 CURVE SMOOTH",
"329 642 OFFCURVE",
"324 573 OFFCURVE",
"324 512 CURVE SMOOTH",
"324 479 OFFCURVE",
"327 446 OFFCURVE",
"336 416 CURVE SMOOTH",
"344 386 OFFCURVE",
"360 359 OFFCURVE",
"387 339 CURVE",
"452 298 OFFCURVE",
"532 289 OFFCURVE",
"611 289 CURVE SMOOTH",
"688 289 OFFCURVE",
"769 300 OFFCURVE",
"840 340 CURVE",
"891 375 OFFCURVE",
"919 434 OFFCURVE",
"933 495 CURVE SMOOTH",
"947 555 OFFCURVE",
"948 617 OFFCURVE",
"948 658 CURVE SMOOTH",
"948 739 OFFCURVE",
"934 822 OFFCURVE",
"894 890 CURVE SMOOTH",
"849 966 OFFCURVE",
"762 1001 OFFCURVE",
"673 1002 CURVE SMOOTH"
);
},
{
closed = 1;
nodes = (
"749 1114 OFFCURVE",
"816 1105 OFFCURVE",
"876 1084 CURVE SMOOTH",
"936 1063 OFFCURVE",
"990 1027 OFFCURVE",
"1029 974 CURVE SMOOTH",
"1093 886 OFFCURVE",
"1111 780 OFFCURVE",
"1111 669 CURVE SMOOTH",
"1111 586 OFFCURVE",
"1105 491 OFFCURVE",
"1082 399 CURVE SMOOTH",
"1058 306 OFFCURVE",
"1019 215 OFFCURVE",
"955 143 CURVE SMOOTH",
"907 87 OFFCURVE",
"847 52 OFFCURVE",
"782 32 CURVE SMOOTH",
"717 11 OFFCURVE",
"646 3 OFFCURVE",
"581 3 CURVE SMOOTH",
"517 3 OFFCURVE",
"449 11 OFFCURVE",
"389 32 CURVE SMOOTH",
"329 53 OFFCURVE",
"276 89 OFFCURVE",
"239 142 CURVE SMOOTH",
"175 230 OFFCURVE",
"157 339 OFFCURVE",
"157 451 CURVE SMOOTH",
"157 532 OFFCURVE",
"163 627 OFFCURVE",
"186 720 CURVE SMOOTH",
"209 813 OFFCURVE",
"247 903 OFFCURVE",
"312 974 CURVE SMOOTH",
"360 1027 OFFCURVE",
"421 1062 OFFCURVE",
"485 1084 CURVE SMOOTH",
"549 1106 OFFCURVE",
"617 1114 OFFCURVE",
"684 1114 CURVE SMOOTH"
);
}
);
width = 1265;
}
);
unicode = 006F;
},
{
glyphname = p;
lastChange = "2012-11-04 23:02:34 -0500";
layers = (
{
layerId = "16808965-E153-4B2B-ADB3-00196C646C32";
name = "Regular Italic";
paths = (
{
closed = 1;
nodes = (
"322 -19 OFFCURVE",
"291 -208 OFFCURVE",
"258 -399 CURVE",
"202 -404 OFFCURVE",
"148 -409 OFFCURVE",
"92 -416 CURVE",
"191 92 OFFCURVE",
"246 594 OFFCURVE",
"267 1105 CURVE",
"322 1098 OFFCURVE",
"373 1093 OFFCURVE",
"428 1090 CURVE",
"424 1063 OFFCURVE",
"420 1037 OFFCURVE",
"416 1010 CURVE",
"411 983 OFFCURVE",
"407 957 OFFCURVE",
"403 930 CURVE",
"406 929 OFFCURVE",
"409 928 OFFCURVE",
"412 927 CURVE",
"414 926 OFFCURVE",
"416 925 OFFCURVE",
"418 924 CURVE",
"454 985 OFFCURVE",
"508 1032 OFFCURVE",
"569 1062 CURVE SMOOTH",
"630 1092 OFFCURVE",
"698 1107 OFFCURVE",
"765 1107 CURVE SMOOTH",
"778 1107 LINE",
"795 1107 LINE SMOOTH",
"910 1107 OFFCURVE",
"1019 1060 OFFCURVE",
"1079 967 CURVE SMOOTH",
"1136 883 OFFCURVE",
"1155 780 OFFCURVE",
"1155 676 CURVE SMOOTH",
"1155 589 OFFCURVE",
"1146 494 OFFCURVE",
"1122 401 CURVE SMOOTH",
"1097 308 OFFCURVE",
"1057 217 OFFCURVE",
"994 144 CURVE SMOOTH",
"918 51 OFFCURVE",
"804 -4 OFFCURVE",
"689 -4 CURVE SMOOTH",
"677 -4 LINE",
"662 -4 LINE SMOOTH",
"598 -4 OFFCURVE",
"535 11 OFFCURVE",
"482 42 CURVE SMOOTH",
"429 73 OFFCURVE",
"387 117 OFFCURVE",
"364 177 CURVE",
"361 176 OFFCURVE",
"358 175 OFFCURVE",
"355 175 CURVE",
"352 174 OFFCURVE",
"349 173 OFFCURVE",
"346 172 CURVE"
);
},
{
closed = 1;
nodes = (
"1063 618 OFFCURVE",
"1065 650 OFFCURVE",
"1065 682 CURVE SMOOTH",
"1065 767 OFFCURVE",
"1047 850 OFFCURVE",
"1005 910 CURVE SMOOTH",
"963 970 OFFCURVE",
"899 1009 OFFCURVE",
"808 1009 CURVE SMOOTH",
"712 1009 OFFCURVE",
"618 974 OFFCURVE",
"555 893 CURVE SMOOTH",
"511 840 OFFCURVE",
"484 776 OFFCURVE",
"469 709 CURVE SMOOTH",
"453 642 OFFCURVE",
"448 574 OFFCURVE",
"448 513 CURVE SMOOTH",
"448 477 OFFCURVE",
"452 441 OFFCURVE",
"462 408 CURVE SMOOTH",
"472 375 OFFCURVE",
"489 345 OFFCURVE",
"517 324 CURVE",
"581 281 OFFCURVE",
"657 267 OFFCURVE",
"736 267 CURVE SMOOTH",
"812 267 OFFCURVE",
"890 279 OFFCURVE",
"957 324 CURVE",
"997 356 OFFCURVE",
"1020 400 OFFCURVE",
"1034 446 CURVE SMOOTH",
"1048 492 OFFCURVE",
"1053 542 OFFCURVE",
"1060 587 CURVE"
);
}
);
width = 1305;
}
);
unicode = 0070;
},
{
glyphname = q;
lastChange = "2012-11-04 18:55:36 -0500";
layers = (
{
layerId = "16808965-E153-4B2B-ADB3-00196C646C32";
name = "Regular Italic";
paths = (
{
closed = 1;
nodes = (
"258 557 OFFCURVE",
"256 532 OFFCURVE",
"256 508 CURVE SMOOTH",
"256 437 OFFCURVE",
"267 369 OFFCURVE",
"319 322 CURVE",
"379 279 OFFCURVE",
"456 271 OFFCURVE",
"532 271 CURVE SMOOTH",
"608 271 OFFCURVE",
"689 283 OFFCURVE",
"760 323 CURVE",
"813 362 OFFCURVE",
"842 425 OFFCURVE",
"857 490 CURVE SMOOTH",
"872 554 OFFCURVE",
"874 620 OFFCURVE",
"874 664 CURVE SMOOTH",
"874 744 OFFCURVE",
"860 820 OFFCURVE",
"820 888 CURVE SMOOTH",
"771 969 OFFCURVE",
"680 1003 OFFCURVE",
"583 1002 CURVE SMOOTH",
"499 1002 OFFCURVE",
"412 962 OFFCURVE",
"359 893 CURVE SMOOTH",
"323 846 OFFCURVE",
"301 795 OFFCURVE",
"286 742 CURVE SMOOTH",
"270 689 OFFCURVE",
"263 633 OFFCURVE",
"259 580 CURVE SMOOTH"
);
},
{
closed = 1;
nodes = (
"892 179 OFFCURVE",
"886 180 OFFCURVE",
"882 183 CURVE",
"847 123 OFFCURVE",
"798 77 OFFCURVE",
"739 45 CURVE SMOOTH",
"680 13 OFFCURVE",
"614 -4 OFFCURVE",
"550 -4 CURVE SMOOTH",
"534 -4 LINE",
"522 -4 LINE SMOOTH",
"407 -4 OFFCURVE",
"302 49 OFFCURVE",
"243 142 CURVE SMOOTH",
"178 241 OFFCURVE",
"160 360 OFFCURVE",
"160 481 CURVE SMOOTH",
"160 560 OFFCURVE",
"167 648 OFFCURVE",
"188 733 CURVE SMOOTH",
"209 817 OFFCURVE",
"245 898 OFFCURVE",
"302 966 CURVE SMOOTH",
"381 1058 OFFCURVE",
"497 1108 OFFCURVE",
"612 1107 CURVE SMOOTH",
"629 1107 LINE",
"647 1107 LINE SMOOTH",
"716 1107 OFFCURVE",
"784 1088 OFFCURVE",
"840 1053 CURVE SMOOTH",
"896 1017 OFFCURVE",
"941 966 OFFCURVE",
"968 903 CURVE",
"975 935 OFFCURVE",
"983 967 OFFCURVE",
"992 999 CURVE SMOOTH",
"1000 1030 OFFCURVE",
"1008 1062 OFFCURVE",
"1016 1094 CURVE",
"1072 1099 OFFCURVE",
"1126 1104 OFFCURVE",
"1182 1111 CURVE",
"1092 648 OFFCURVE",
"956 -185 OFFCURVE",
"1116 -296 CURVE SMOOTH",
"1161 -327 OFFCURVE",
"1011 -324 OFFCURVE",
"1011 -411 CURVE",
"955 -404 OFFCURVE",
"904 -399 OFFCURVE",
"848 -396 CURVE",
"859 -204 OFFCURVE",
"874 -14 OFFCURVE",
"897 178 CURVE"
);
}
);
width = 1366;
}
);
unicode = 0071;
},
{
glyphname = r;
lastChange = "2012-10-20 12:59:19 -0400";
layers = (
{
anchors = (
{
name = bottom;
position = "{340, 0}";
},
{
name = top;
position = "{340, 1108}";
}
);
layerId = "16808965-E153-4B2B-ADB3-00196C646C32";
name = "Regular Italic";
paths = (
{
closed = 1;
nodes = (
"796 952 OFFCURVE",
"775 954 OFFCURVE",
"752 954 CURVE SMOOTH",
"700 954 OFFCURVE",
"644 949 OFFCURVE",
"592 933 CURVE SMOOTH",
"540 916 OFFCURVE",
"491 887 OFFCURVE",
"458 839 CURVE SMOOTH",
"398 755 OFFCURVE",
"377 655 OFFCURVE",
"368 559 CURVE",
"359 380 OFFCURVE",
"350 208 OFFCURVE",
"335 29 CURVE",
"263 26 OFFCURVE",
"191 21 OFFCURVE",
"119 10 CURVE",
"192 371 OFFCURVE",
"238 729 OFFCURVE",
"265 1093 CURVE",
"313 1086 OFFCURVE",
"359 1085 OFFCURVE",
"407 1082 CURVE",
"406 1061 OFFCURVE",
"404 1041 OFFCURVE",
"403 1021 CURVE SMOOTH",
"402 1001 OFFCURVE",
"400 981 OFFCURVE",
"399 960 CURVE",
"422 975 OFFCURVE",
"445 990 OFFCURVE",
"469 1003 CURVE SMOOTH",
"493 1016 OFFCURVE",
"517 1029 OFFCURVE",
"541 1043 CURVE SMOOTH",
"581 1067 OFFCURVE",
"627 1083 OFFCURVE",
"674 1095 CURVE SMOOTH",
"721 1106 OFFCURVE",
"768 1110 OFFCURVE",
"811 1110 CURVE SMOOTH",
"840 1110 LINE",
"831 1054 OFFCURVE",
"823 1000 OFFCURVE",
"816 944 CURVE"
);
}
);
width = 883;
}
);
unicode = 0072;
},
{
glyphname = s;
lastChange = "2012-10-20 13:17:31 -0400";
layers = (
{
anchors = (
{
name = bottom;
position = "{530, 0}";
},
{
name = top;
position = "{530, 1108}";
}
);
layerId = "16808965-E153-4B2B-ADB3-00196C646C32";
name = "Regular Italic";
paths = (
{
closed = 1;
nodes = (
"976 1080 LINE",
"973 1057 OFFCURVE",
"969 1034 OFFCURVE",
"965 1011 CURVE SMOOTH",
"961 988 OFFCURVE",
"957 965 OFFCURVE",
"954 942 CURVE",
"853 989 OFFCURVE",
"744 1003 OFFCURVE",
"629 1003 CURVE SMOOTH",
"569 1003 OFFCURVE",
"499 993 OFFCURVE",
"444 964 CURVE SMOOTH",
"388 935 OFFCURVE",
"349 886 OFFCURVE",
"349 810 CURVE SMOOTH",
"349 761 OFFCURVE",
"372 726 OFFCURVE",
"405 700 CURVE SMOOTH",
"438 674 OFFCURVE",
"482 655 OFFCURVE",
"526 643 CURVE SMOOTH",
"570 631 OFFCURVE",
"611 623 OFFCURVE",
"642 618 CURVE",
"686 607 OFFCURVE",
"731 596 OFFCURVE",
"773 579 CURVE SMOOTH",
"815 562 OFFCURVE",
"854 540 OFFCURVE",
"887 509 CURVE SMOOTH",
"934 464 OFFCURVE",
"950 398 OFFCURVE",
"950 333 CURVE SMOOTH",
"950 285 OFFCURVE",
"941 236 OFFCURVE",
"921 192 CURVE SMOOTH",
"901 147 OFFCURVE",
"870 107 OFFCURVE",
"825 79 CURVE SMOOTH",
"772 46 OFFCURVE",
"714 27 OFFCURVE",
"654 16 CURVE SMOOTH",
"594 5 OFFCURVE",
"532 3 OFFCURVE",
"475 3 CURVE SMOOTH",
"354 3 OFFCURVE",
"235 21 OFFCURVE",
"120 49 CURVE",
"135 132 OFFCURVE",
"145 211 OFFCURVE",
"156 294 CURVE",
"259 239 OFFCURVE",
"373 210 OFFCURVE",
"493 210 CURVE SMOOTH",
"515 210 LINE",
"520 209 OFFCURVE",
"524 209 OFFCURVE",
"529 209 CURVE SMOOTH",
"533 209 OFFCURVE",
"537 209 OFFCURVE",
"542 209 CURVE SMOOTH",
"591 209 OFFCURVE",
"648 218 OFFCURVE",
"693 242 CURVE SMOOTH",
"738 265 OFFCURVE",
"771 303 OFFCURVE",
"774 363 CURVE",
"759 394 OFFCURVE",
"745 424 OFFCURVE",
"725 451 CURVE",
"693 476 OFFCURVE",
"649 493 OFFCURVE",
"605 505 CURVE SMOOTH",
"583 511 OFFCURVE",
"561 516 OFFCURVE",
"540 521 CURVE",
"497 529 OFFCURVE",
"464 538 OFFCURVE",
"425 548 CURVE SMOOTH",
"385 558 OFFCURVE",
"347 572 OFFCURVE",
"312 592 CURVE SMOOTH",
"277 612 OFFCURVE",
"235 645 OFFCURVE",
"221 705 CURVE SMOOTH",
"214 735 OFFCURVE",
"210 766 OFFCURVE",
"210 797 CURVE SMOOTH",
"210 850 OFFCURVE",
"221 907 OFFCURVE",
"246 955 CURVE SMOOTH",
"270 1003 OFFCURVE",
"310 1043 OFFCURVE",
"366 1066 CURVE SMOOTH",
"465 1105 OFFCURVE",
"548 1114 OFFCURVE",
"635 1114 CURVE SMOOTH",
"752 1114 OFFCURVE",
"869 1107 OFFCURVE",
"980 1072 CURVE"
);
}
);
width = 1155;
}
);
unicode = 0073;
},
{
glyphname = t;
lastChange = "2013-04-20 12:39:49 -0400";
layers = (
{
anchors = (
{
name = bottom;
position = "{596, 0}";
},
{
name = center;
position = "{596, 554}";
},
{
name = top;
position = "{514.042, 1292.59}";
}
);
layerId = "16808965-E153-4B2B-ADB3-00196C646C32";
name = "Regular Italic";
paths = (
{
closed = 1;
nodes = (
"584 1269 OFFCURVE",
"574 1180 OFFCURVE",
"563 1091 CURVE",
"603 1091 LINE SMOOTH",
"674 1091 OFFCURVE",
"742 1093 OFFCURVE",
"813 1098 CURVE",
"810 1078 OFFCURVE",
"808 1058 OFFCURVE",
"807 1038 CURVE",
"805 1018 OFFCURVE",
"802 998 OFFCURVE",
"799 978 CURVE",
"731 975 OFFCURVE",
"663 973 OFFCURVE",
"595 973 CURVE SMOOTH",
"553 973 LINE",
"544 893 OFFCURVE",
"536 814 OFFCURVE",
"528 735 CURVE SMOOTH",
"520 656 OFFCURVE",
"511 576 OFFCURVE",
"502 496 CURVE",
"501 473 OFFCURVE",
"499 450 OFFCURVE",
"499 426 CURVE SMOOTH",
"499 387 OFFCURVE",
"504 352 OFFCURVE",
"525 321 CURVE",
"544 302 OFFCURVE",
"567 293 OFFCURVE",
"594 287 CURVE SMOOTH",
"621 281 OFFCURVE",
"648 279 OFFCURVE",
"675 278 CURVE SMOOTH",
"732 275 OFFCURVE",
"788 272 OFFCURVE",
"845 265 CURVE",
"841 180 OFFCURVE",
"838 95 OFFCURVE",
"837 10 CURVE",
"808 15 OFFCURVE",
"778 19 OFFCURVE",
"749 22 CURVE SMOOTH",
"720 25 OFFCURVE",
"690 28 OFFCURVE",
"660 31 CURVE SMOOTH",
"635 33 OFFCURVE",
"610 35 OFFCURVE",
"585 37 CURVE SMOOTH",
"534 41 OFFCURVE",
"485 51 OFFCURVE",
"439 69 CURVE SMOOTH",
"416 78 OFFCURVE",
"395 90 OFFCURVE",
"376 106 CURVE",
"329 153 OFFCURVE",
"319 217 OFFCURVE",
"319 285 CURVE SMOOTH",
"319 316 OFFCURVE",
"321 348 OFFCURVE",
"324 377 CURVE SMOOTH",
"347 578 OFFCURVE",
"370 776 OFFCURVE",
"387 977 CURVE",
"366 978 OFFCURVE",
"345 980 OFFCURVE",
"324 981 CURVE SMOOTH",
"303 982 OFFCURVE",
"282 983 OFFCURVE",
"261 986 CURVE",
"262 1007 OFFCURVE",
"263 1027 OFFCURVE",
"264 1048 CURVE SMOOTH",
"265 1068 OFFCURVE",
"267 1088 OFFCURVE",
"268 1109 CURVE",
"311 1104 OFFCURVE",
"351 1099 OFFCURVE",
"394 1096 CURVE",
"403 1187 OFFCURVE",
"412 1276 OFFCURVE",
"420 1367 CURVE",
"480 1362 OFFCURVE",
"535 1360 OFFCURVE",
"595 1360 CURVE"
);
}
);
width = 1103;
}
);
unicode = 0074;
},
{
glyphname = u;
lastChange = "2013-05-01 02:34:27 -0400";
layers = (
{
anchors = (
{
name = bottom;
position = "{523, -22}";
},
{
name = ogonek;
position = "{708, 24}";
},
{
name = top;
position = "{711, 1108}";
}
);
layerId = "16808965-E153-4B2B-ADB3-00196C646C32";
name = "Regular Italic";
paths = (
{
closed = 1;
nodes = (
"258 637 OFFCURVE",
"269 828 OFFCURVE",
"269 1021 CURVE SMOOTH",
"269 1036 OFFCURVE",
"269 1051 OFFCURVE",
"269 1066 CURVE",
"268 1081 OFFCURVE",
"268 1096 OFFCURVE",
"268 1111 CURVE",
"289 1108 OFFCURVE",
"311 1105 OFFCURVE",
"334 1104 CURVE SMOOTH",
"356 1103 OFFCURVE",
"378 1101 OFFCURVE",
"400 1098 CURVE",
"397 933 OFFCURVE",
"389 771 OFFCURVE",
"377 606 CURVE",
"377 601 OFFCURVE",
"377 595 OFFCURVE",
"377 590 CURVE",
"376 584 OFFCURVE",
"376 578 OFFCURVE",
"376 572 CURVE SMOOTH",
"376 507 OFFCURVE",
"383 440 OFFCURVE",
"411 383 CURVE",
"450 315 OFFCURVE",
"515 291 OFFCURVE",
"580 291 CURVE SMOOTH",
"668 291 OFFCURVE",
"758 314 OFFCURVE",
"823 385 CURVE SMOOTH",
"888 457 OFFCURVE",
"919 549 OFFCURVE",
"934 641 CURVE",
"950 794 OFFCURVE",
"973 944 OFFCURVE",
"1000 1096 CURVE",
"1065 1099 OFFCURVE",
"1131 1104 OFFCURVE",
"1196 1111 CURVE",
"1117 744 OFFCURVE",
"1077 380 OFFCURVE",
"1076 12 CURVE",
"1021 17 OFFCURVE",
"967 20 OFFCURVE",
"914 23 CURVE",
"918 88 OFFCURVE",
"924 152 OFFCURVE",
"931 217 CURVE",
"891 154 OFFCURVE",
"836 100 OFFCURVE",
"772 62 CURVE SMOOTH",
"708 24 OFFCURVE",
"636 1 OFFCURVE",
"563 1 CURVE SMOOTH",
"554 1 LINE",
"536 1 LINE SMOOTH",
"484 1 OFFCURVE",
"430 9 OFFCURVE",
"383 29 CURVE SMOOTH",
"336 49 OFFCURVE",
"296 80 OFFCURVE",
"272 127 CURVE",
"241 199 OFFCURVE",
"232 269 OFFCURVE",
"232 338 CURVE SMOOTH",
"232 373 OFFCURVE",
"234 407 OFFCURVE",
"237 442 CURVE SMOOTH"
);
}
);
width = 1341;
}
);
unicode = 0075;
},
{
glyphname = v;
lastChange = "2012-10-20 13:22:27 -0400";
layers = (
{
layerId = "16808965-E153-4B2B-ADB3-00196C646C32";
name = "Regular Italic";
paths = (
{
closed = 1;
nodes = (
"297 1107 OFFCURVE",
"325 1105 OFFCURVE",
"354 1102 CURVE SMOOTH",
"382 1099 OFFCURVE",
"410 1097 OFFCURVE",
"439 1096 CURVE",
"494 964 OFFCURVE",
"545 830 OFFCURVE",
"590 695 CURVE SMOOTH",
"635 559 OFFCURVE",
"680 423 OFFCURVE",
"726 286 CURVE",
"795 423 OFFCURVE",
"864 559 OFFCURVE",
"933 695 CURVE SMOOTH",
"1001 831 OFFCURVE",
"1075 965 OFFCURVE",
"1154 1097 CURVE",
"1214 1101 OFFCURVE",
"1270 1105 OFFCURVE",
"1330 1110 CURVE",
"1231 937 OFFCURVE",
"1145 757 OFFCURVE",
"1065 577 CURVE SMOOTH",
"1025 486 OFFCURVE",
"986 395 OFFCURVE",
"948 304 CURVE SMOOTH",
"909 212 OFFCURVE",
"871 121 OFFCURVE",
"832 30 CURVE",
"814 31 OFFCURVE",
"796 31 OFFCURVE",
"778 31 CURVE SMOOTH",
"759 31 OFFCURVE",
"741 31 OFFCURVE",
"723 31 CURVE SMOOTH",
"698 31 OFFCURVE",
"674 31 OFFCURVE",
"650 31 CURVE",
"625 30 OFFCURVE",
"600 30 OFFCURVE",
"575 30 CURVE",
"551 121 OFFCURVE",
"528 212 OFFCURVE",
"505 303 CURVE SMOOTH",
"460 485 OFFCURVE",
"413 666 OFFCURVE",
"358 845 CURVE SMOOTH",
"331 934 OFFCURVE",
"301 1023 OFFCURVE",
"268 1110 CURVE"
);
}
);
width = 1362;
}
);
unicode = 0076;
},
{
glyphname = w;
lastChange = "2012-10-20 12:59:19 -0400";
layers = (
{
anchors = (
{
name = top;
position = "{1020, 1108}";
}
);
layerId = "16808965-E153-4B2B-ADB3-00196C646C32";
name = "Regular Italic";
paths = (
{
closed = 1;
nodes = (
"321 1106 OFFCURVE",
"374 1103 OFFCURVE",
"429 1100 CURVE",
"516 845 OFFCURVE",
"568 584 OFFCURVE",
"611 316 CURVE",
"654 385 OFFCURVE",
"695 454 OFFCURVE",
"735 523 CURVE SMOOTH",
"775 592 OFFCURVE",
"816 662 OFFCURVE",
"857 732 CURVE",
"909 732 LINE",
"1001 732 LINE SMOOTH",
"1016 732 OFFCURVE",
"1030 732 OFFCURVE",
"1044 732 CURVE SMOOTH",
"1058 732 OFFCURVE",
"1072 732 OFFCURVE",
"1087 733 CURVE",
"1143 592 OFFCURVE",
"1199 455 OFFCURVE",
"1259 316 CURVE",
"1351 584 OFFCURVE",
"1447 848 OFFCURVE",
"1582 1101 CURVE",
"1637 1104 OFFCURVE",
"1690 1106 OFFCURVE",
"1746 1110 CURVE",
"1655 938 OFFCURVE",
"1581 759 OFFCURVE",
"1519 577 CURVE SMOOTH",
"1457 395 OFFCURVE",
"1406 209 OFFCURVE",
"1363 24 CURVE",
"1322 25 OFFCURVE",
"1282 26 OFFCURVE",
"1242 27 CURVE SMOOTH",
"1202 28 OFFCURVE",
"1162 29 OFFCURVE",
"1121 30 CURVE",
"1058 197 OFFCURVE",
"1004 364 OFFCURVE",
"955 535 CURVE",
"871 364 OFFCURVE",
"786 196 OFFCURVE",
"693 29 CURVE",
"654 29 OFFCURVE",
"615 28 OFFCURVE",
"577 27 CURVE SMOOTH",
"538 26 OFFCURVE",
"499 25 OFFCURVE",
"460 24 CURVE",
"445 209 OFFCURVE",
"427 394 OFFCURVE",
"397 576 CURVE SMOOTH",
"367 758 OFFCURVE",
"325 937 OFFCURVE",
"268 1110 CURVE"
);
}
);
width = 1778;
}
);
unicode = 0077;
},
{
glyphname = x;
lastChange = "2012-10-20 13:26:25 -0400";
layers = (
{
layerId = "16808965-E153-4B2B-ADB3-00196C646C32";
name = "Regular Italic";
paths = (
{
closed = 1;
nodes = (
"1102 918 OFFCURVE",
"958 724 OFFCURVE",
"811 525 CURVE",
"939 349 OFFCURVE",
"1065 178 OFFCURVE",
"1202 10 CURVE",
"1113 18 OFFCURVE",
"1024 23 OFFCURVE",
"933 26 CURVE",
"852 153 OFFCURVE",
"776 280 OFFCURVE",
"704 412 CURVE",
"600 280 OFFCURVE",
"498 153 OFFCURVE",
"389 26 CURVE",
"298 23 OFFCURVE",
"210 17 OFFCURVE",
"118 10 CURVE",
"285 183 OFFCURVE",
"446 355 OFFCURVE",
"605 535 CURVE",
"497 730 OFFCURVE",
"388 918 OFFCURVE",
"267 1105 CURVE",
"326 1100 OFFCURVE",
"380 1097 OFFCURVE",
"439 1094 CURVE",
"535 945 OFFCURVE",
"624 795 OFFCURVE",
"712 640 CURVE",
"837 796 OFFCURVE",
"962 947 OFFCURVE",
"1095 1096 CURVE",
"1151 1099 OFFCURVE",
"1204 1102 OFFCURVE",
"1259 1107 CURVE"
);
}
);
width = 1468;
}
);
unicode = 0078;
},
{
glyphname = y;
lastChange = "2012-10-20 13:29:44 -0400";
layers = (
{
anchors = (
{
name = top;
position = "{644, 1108}";
}
);
layerId = "16808965-E153-4B2B-ADB3-00196C646C32";
name = "Regular Italic";
paths = (
{
closed = 1;
nodes = (
"741 -107 OFFCURVE",
"727 -131 OFFCURVE",
"714 -156 CURVE",
"686 -205 OFFCURVE",
"655 -251 OFFCURVE",
"618 -293 CURVE SMOOTH",
"581 -335 OFFCURVE",
"530 -375 OFFCURVE",
"470 -393 CURVE SMOOTH",
"410 -411 OFFCURVE",
"347 -419 OFFCURVE",
"283 -422 CURVE SMOOTH",
"251 -424 OFFCURVE",
"219 -427 OFFCURVE",
"188 -430 CURVE",
"195 -393 OFFCURVE",
"201 -355 OFFCURVE",
"206 -318 CURVE SMOOTH",
"211 -281 OFFCURVE",
"217 -244 OFFCURVE",
"223 -207 CURVE",
"244 -205 OFFCURVE",
"265 -204 OFFCURVE",
"286 -203 CURVE",
"328 -203 OFFCURVE",
"368 -199 OFFCURVE",
"408 -187 CURVE SMOOTH",
"447 -175 OFFCURVE",
"482 -144 OFFCURVE",
"516 -109 CURVE SMOOTH",
"533 -92 OFFCURVE",
"549 -74 OFFCURVE",
"565 -57 CURVE",
"580 -30 OFFCURVE",
"596 -4 OFFCURVE",
"611 22 CURVE SMOOTH",
"626 48 OFFCURVE",
"642 74 OFFCURVE",
"657 101 CURVE",
"532 441 OFFCURVE",
"409 777 OFFCURVE",
"268 1110 CURVE",
"324 1102 OFFCURVE",
"380 1095 OFFCURVE",
"439 1091 CURVE",
"558 875 OFFCURVE",
"672 662 OFFCURVE",
"783 442 CURVE",
"904 662 OFFCURVE",
"1022 877 OFFCURVE",
"1153 1092 CURVE",
"1212 1097 OFFCURVE",
"1270 1103 OFFCURVE",
"1330 1110 CURVE",
"1223 915 OFFCURVE",
"1127 717 OFFCURVE",
"1033 518 CURVE SMOOTH",
"986 418 OFFCURVE",
"939 318 OFFCURVE",
"893 218 CURVE SMOOTH",
"847 117 OFFCURVE",
"801 17 OFFCURVE",
"754 -83 CURVE"
);
}
);
width = 1362;
}
);
unicode = 0079;
},
{
glyphname = z;
lastChange = "2013-05-03 04:17:15 -0400";
layers = (
{
anchors = (
{
name = bottom;
position = "{558, -32}";
},
{
name = top;
position = "{627, 1108}";
}
);
layerId = "16808965-E153-4B2B-ADB3-00196C646C32";
name = "Regular Italic";
paths = (
{
closed = 1;
nodes = (
"267 1105 LINE",
"397 1093 OFFCURVE",
"528 1087 OFFCURVE",
"660 1087 CURVE SMOOTH",
"811 1087 OFFCURVE",
"961 1095 OFFCURVE",
"1113 1110 CURVE",
"1102 1058 OFFCURVE",
"1093 1007 OFFCURVE",
"1084 955 CURVE",
"969 836 OFFCURVE",
"855 718 OFFCURVE",
"743 601 CURVE SMOOTH",
"630 483 OFFCURVE",
"516 365 OFFCURVE",
"400 248 CURVE",
"472 250 OFFCURVE",
"544 251 OFFCURVE",
"615 251 CURVE SMOOTH",
"746 251 OFFCURVE",
"876 247 OFFCURVE",
"1005 239 CURVE",
"1004 224 OFFCURVE",
"1004 210 OFFCURVE",
"1004 196 CURVE SMOOTH",
"1004 181 OFFCURVE",
"1004 167 OFFCURVE",
"1004 152 CURVE SMOOTH",
"1004 105 OFFCURVE",
"1005 58 OFFCURVE",
"1006 11 CURVE",
"863 26 OFFCURVE",
"721 31 OFFCURVE",
"576 31 CURVE SMOOTH",
"426 31 OFFCURVE",
"276 24 OFFCURVE",
"126 10 CURVE",
"145 94 OFFCURVE",
"157 179 OFFCURVE",
"170 264 CURVE",
"421 508 OFFCURVE",
"674 744 OFFCURVE",
"930 981 CURVE",
"831 977 OFFCURVE",
"736 974 OFFCURVE",
"637 974 CURVE SMOOTH",
"512 974 OFFCURVE",
"390 977 OFFCURVE",
"267 988 CURVE",
"267 1066 LINE"
);
}
);
width = 1271;
}
);
unicode = 007A;
},
{
glyphname = braceleft;
lastChange = "2012-10-20 12:59:19 -0400";
layers = (
{
layerId = "16808965-E153-4B2B-ADB3-00196C646C32";
name = "Regular Italic";
paths = (
{
closed = 1;
nodes = (
"826 -179 OFFCURVE",
"824 -209 OFFCURVE",
"822 -240 CURVE SMOOTH",
"820 -271 OFFCURVE",
"819 -301 OFFCURVE",
"818 -332 CURVE",
"791 -327 OFFCURVE",
"761 -323 OFFCURVE",
"728 -318 CURVE SMOOTH",
"663 -310 OFFCURVE",
"596 -297 OFFCURVE",
"535 -273 CURVE SMOOTH",
"504 -262 OFFCURVE",
"478 -246 OFFCURVE",
"455 -226 CURVE",
"407 -170 OFFCURVE",
"398 -97 OFFCURVE",
"398 -21 CURVE SMOOTH",
"398 34 OFFCURVE",
"404 90 OFFCURVE",
"412 146 CURVE SMOOTH",
"419 202 OFFCURVE",
"425 257 OFFCURVE",
"425 313 CURVE SMOOTH",
"425 373 OFFCURVE",
"421 435 OFFCURVE",
"390 486 CURVE",
"370 511 OFFCURVE",
"341 527 OFFCURVE",
"309 536 CURVE SMOOTH",
"277 545 OFFCURVE",
"242 548 OFFCURVE",
"210 549 CURVE SMOOTH",
"204 549 LINE SMOOTH",
"199 549 OFFCURVE",
"194 549 OFFCURVE",
"189 550 CURVE",
"184 550 OFFCURVE",
"178 550 OFFCURVE",
"173 550 CURVE SMOOTH",
"163 550 LINE",
"164 571 OFFCURVE",
"166 591 OFFCURVE",
"169 612 CURVE SMOOTH",
"172 632 OFFCURVE",
"174 652 OFFCURVE",
"175 673 CURVE",
"182 673 OFFCURVE",
"189 673 OFFCURVE",
"196 672 CURVE SMOOTH",
"203 671 OFFCURVE",
"210 670 OFFCURVE",
"217 670 CURVE SMOOTH",
"250 670 OFFCURVE",
"287 673 OFFCURVE",
"322 681 CURVE SMOOTH",
"357 689 OFFCURVE",
"391 703 OFFCURVE",
"419 726 CURVE",
"446 753 OFFCURVE",
"462 785 OFFCURVE",
"473 820 CURVE SMOOTH",
"484 855 OFFCURVE",
"489 891 OFFCURVE",
"493 926 CURVE",
"496 965 OFFCURVE",
"500 1003 OFFCURVE",
"505 1041 CURVE SMOOTH",
"509 1079 OFFCURVE",
"513 1117 OFFCURVE",
"516 1156 CURVE",
"523 1203 OFFCURVE",
"529 1254 OFFCURVE",
"544 1302 CURVE SMOOTH",
"559 1349 OFFCURVE",
"583 1394 OFFCURVE",
"623 1427 CURVE",
"683 1463 OFFCURVE",
"748 1483 OFFCURVE",
"816 1497 CURVE SMOOTH",
"849 1504 OFFCURVE",
"883 1510 OFFCURVE",
"917 1515 CURVE SMOOTH",
"950 1520 OFFCURVE",
"983 1526 OFFCURVE",
"1015 1533 CURVE",
"1007 1490 OFFCURVE",
"1001 1451 OFFCURVE",
"994 1408 CURVE",
"974 1403 OFFCURVE",
"953 1399 OFFCURVE",
"930 1396 CURVE SMOOTH",
"885 1390 OFFCURVE",
"839 1381 OFFCURVE",
"796 1366 CURVE SMOOTH",
"774 1358 OFFCURVE",
"754 1347 OFFCURVE",
"736 1332 CURVE",
"713 1307 OFFCURVE",
"700 1277 OFFCURVE",
"692 1246 CURVE",
"687 1230 OFFCURVE",
"684 1214 OFFCURVE",
"682 1198 CURVE",
"679 1181 OFFCURVE",
"677 1165 OFFCURVE",
"674 1150 CURVE",
"669 1110 OFFCURVE",
"665 1070 OFFCURVE",
"661 1031 CURVE SMOOTH",
"652 952 OFFCURVE",
"644 877 OFFCURVE",
"628 803 CURVE SMOOTH",
"620 766 OFFCURVE",
"605 731 OFFCURVE",
"584 699 CURVE",
"547 650 OFFCURVE",
"487 625 OFFCURVE",
"430 613 CURVE",
"429 595 LINE",
"454 588 OFFCURVE",
"481 579 OFFCURVE",
"505 564 CURVE",
"528 548 OFFCURVE",
"548 528 OFFCURVE",
"559 503 CURVE SMOOTH",
"580 452 OFFCURVE",
"583 399 OFFCURVE",
"583 343 CURVE SMOOTH",
"583 307 LINE",
"583 308 LINE",
"579 268 OFFCURVE",
"575 228 OFFCURVE",
"572 189 CURVE SMOOTH",
"568 149 OFFCURVE",
"564 109 OFFCURVE",
"560 69 CURVE",
"560 18 OFFCURVE",
"563 -36 OFFCURVE",
"594 -77 CURVE",
"594 -76 LINE",
"615 -100 OFFCURVE",
"644 -113 OFFCURVE",
"675 -121 CURVE",
"690 -126 OFFCURVE",
"706 -129 OFFCURVE",
"723 -132 CURVE SMOOTH",
"739 -135 OFFCURVE",
"755 -137 OFFCURVE",
"770 -140 CURVE",
"779 -141 OFFCURVE",
"789 -142 OFFCURVE",
"799 -144 CURVE SMOOTH",
"808 -146 OFFCURVE",
"818 -147 OFFCURVE",
"827 -148 CURVE"
);
}
);
width = 1156;
}
);
unicode = 007B;
},
{
glyphname = bar;
lastChange = "2012-10-20 12:59:19 -0400";
layers = (
{
layerId = "16808965-E153-4B2B-ADB3-00196C646C32";
name = "Regular Italic";
paths = (
{
closed = 1;
nodes = (
"246 -437 OFFCURVE",
"231 -435 OFFCURVE",
"217 -435 CURVE SMOOTH",
"173 -435 OFFCURVE",
"129 -448 OFFCURVE",
"90 -473 CURVE",
"141 -142 OFFCURVE",
"187 183 OFFCURVE",
"230 514 CURVE",
"253 514 OFFCURVE",
"277 514 OFFCURVE",
"300 514 CURVE SMOOTH",
"323 514 OFFCURVE",
"347 514 OFFCURVE",
"371 515 CURVE",
"334 195 OFFCURVE",
"298 -120 OFFCURVE",
"263 -440 CURVE"
);
},
{
closed = 1;
nodes = (
"261 784 OFFCURVE",
"280 931 OFFCURVE",
"298 1077 CURVE SMOOTH",
"316 1222 OFFCURVE",
"335 1369 OFFCURVE",
"354 1516 CURVE",
"359 1515 OFFCURVE",
"363 1514 OFFCURVE",
"368 1514 CURVE SMOOTH",
"373 1514 OFFCURVE",
"377 1514 OFFCURVE",
"382 1514 CURVE SMOOTH",
"426 1514 OFFCURVE",
"471 1528 OFFCURVE",
"508 1555 CURVE",
"464 1248 OFFCURVE",
"422 946 OFFCURVE",
"382 638 CURVE",
"370 637 OFFCURVE",
"358 636 OFFCURVE",
"347 636 CURVE SMOOTH",
"335 636 OFFCURVE",
"323 636 OFFCURVE",
"312 636 CURVE SMOOTH",
"301 636 OFFCURVE",
"289 636 OFFCURVE",
"277 636 CURVE SMOOTH",
"265 636 OFFCURVE",
"253 636 OFFCURVE",
"242 637 CURVE"
);
}
);
width = 624;
}
);
unicode = 007C;
},
{
glyphname = braceright;
lastChange = "2012-10-20 12:59:19 -0400";
layers = (
{
layerId = "16808965-E153-4B2B-ADB3-00196C646C32";
name = "Regular Italic";
paths = (
{
closed = 1;
nodes = (
"233 -186 OFFCURVE",
"253 -184 OFFCURVE",
"275 -181 CURVE",
"319 -177 OFFCURVE",
"364 -168 OFFCURVE",
"408 -151 CURVE SMOOTH",
"430 -143 OFFCURVE",
"450 -132 OFFCURVE",
"467 -118 CURVE",
"491 -93 OFFCURVE",
"505 -61 OFFCURVE",
"514 -29 CURVE SMOOTH",
"522 3 OFFCURVE",
"526 37 OFFCURVE",
"530 69 CURVE",
"537 149 OFFCURVE",
"544 227 OFFCURVE",
"552 307 CURVE SMOOTH",
"556 340 OFFCURVE",
"560 376 OFFCURVE",
"569 412 CURVE SMOOTH",
"577 447 OFFCURVE",
"590 479 OFFCURVE",
"611 510 CURVE SMOOTH",
"646 561 OFFCURVE",
"707 586 OFFCURVE",
"764 601 CURVE",
"766 619 LINE",
"711 630 OFFCURVE",
"655 655 OFFCURVE",
"628 706 CURVE",
"605 746 OFFCURVE",
"602 794 OFFCURVE",
"602 841 CURVE SMOOTH",
"602 904 OFFCURVE",
"608 968 OFFCURVE",
"615 1033 CURVE SMOOTH",
"622 1097 OFFCURVE",
"628 1160 OFFCURVE",
"628 1223 CURVE SMOOTH",
"628 1267 OFFCURVE",
"622 1310 OFFCURVE",
"595 1345 CURVE",
"566 1373 OFFCURVE",
"522 1390 OFFCURVE",
"478 1400 CURVE SMOOTH",
"455 1405 OFFCURVE",
"433 1409 OFFCURVE",
"412 1412 CURVE SMOOTH",
"391 1415 OFFCURVE",
"372 1418 OFFCURVE",
"356 1421 CURVE",
"357 1442 OFFCURVE",
"358 1463 OFFCURVE",
"359 1484 CURVE",
"359 1504 OFFCURVE",
"360 1525 OFFCURVE",
"361 1546 CURVE",
"390 1539 OFFCURVE",
"420 1533 OFFCURVE",
"453 1528 CURVE SMOOTH",
"518 1519 OFFCURVE",
"585 1506 OFFCURVE",
"646 1484 CURVE SMOOTH",
"677 1473 OFFCURVE",
"704 1457 OFFCURVE",
"729 1438 CURVE",
"776 1387 OFFCURVE",
"786 1321 OFFCURVE",
"786 1250 CURVE SMOOTH",
"786 1219 OFFCURVE",
"785 1191 OFFCURVE",
"782 1162 CURVE SMOOTH",
"762 931 LINE SMOOTH",
"760 911 OFFCURVE",
"759 891 OFFCURVE",
"759 870 CURVE SMOOTH",
"759 818 OFFCURVE",
"766 768 OFFCURVE",
"797 727 CURVE",
"820 702 OFFCURVE",
"849 688 OFFCURVE",
"882 681 CURVE",
"914 673 OFFCURVE",
"949 672 OFFCURVE",
"982 672 CURVE SMOOTH",
"990 672 OFFCURVE",
"998 672 OFFCURVE",
"1007 673 CURVE SMOOTH",
"1015 674 OFFCURVE",
"1023 674 OFFCURVE",
"1031 673 CURVE",
"1021 550 LINE",
"988 550 LINE SMOOTH",
"953 550 OFFCURVE",
"915 550 OFFCURVE",
"878 542 CURVE SMOOTH",
"841 534 OFFCURVE",
"806 520 OFFCURVE",
"777 492 CURVE",
"750 464 OFFCURVE",
"735 430 OFFCURVE",
"724 394 CURVE SMOOTH",
"713 358 OFFCURVE",
"708 321 OFFCURVE",
"704 285 CURVE",
"699 209 OFFCURVE",
"693 132 OFFCURVE",
"686 56 CURVE SMOOTH",
"681 8 OFFCURVE",
"676 -43 OFFCURVE",
"662 -91 CURVE SMOOTH",
"648 -139 OFFCURVE",
"625 -184 OFFCURVE",
"585 -220 CURVE",
"534 -255 OFFCURVE",
"479 -272 OFFCURVE",
"422 -284 CURVE SMOOTH",
"393 -290 OFFCURVE",
"365 -295 OFFCURVE",
"336 -299 CURVE SMOOTH",
"307 -304 OFFCURVE",
"278 -309 OFFCURVE",
"250 -315 CURVE",
"241 -316 OFFCURVE",
"232 -318 OFFCURVE",
"223 -319 CURVE",
"214 -321 OFFCURVE",
"206 -323 OFFCURVE",
"197 -324 CURVE",
"200 -301 OFFCURVE",
"204 -279 OFFCURVE",
"207 -256 CURVE SMOOTH",
"210 -234 OFFCURVE",
"213 -212 OFFCURVE",
"216 -189 CURVE"
);
}
);
width = 1172;
}
);
unicode = 007D;
},
{
glyphname = asciitilde;
lastChange = "2012-10-20 12:59:19 -0400";
layers = (
{
layerId = "16808965-E153-4B2B-ADB3-00196C646C32";
name = "Regular Italic";
paths = (
{
closed = 1;
nodes = (
"1395 771 OFFCURVE",
"1377 718 OFFCURVE",
"1370 665 CURVE",
"1343 645 OFFCURVE",
"1315 624 OFFCURVE",
"1288 602 CURVE SMOOTH",
"1232 558 OFFCURVE",
"1175 520 OFFCURVE",
"1115 496 CURVE SMOOTH",
"1054 472 OFFCURVE",
"991 476 OFFCURVE",
"944 489 CURVE SMOOTH",
"896 502 OFFCURVE",
"852 523 OFFCURVE",
"809 545 CURVE SMOOTH",
"787 556 OFFCURVE",
"764 566 OFFCURVE",
"741 576 CURVE",
"743 576 LINE",
"672 617 OFFCURVE",
"597 654 OFFCURVE",
"512 657 CURVE",
"448 656 OFFCURVE",
"389 627 OFFCURVE",
"336 591 CURVE SMOOTH",
"268 544 OFFCURVE",
"199 499 OFFCURVE",
"130 458 CURVE",
"163 515 OFFCURVE",
"181 576 OFFCURVE",
"185 640 CURVE",
"232 680 OFFCURVE",
"285 714 OFFCURVE",
"341 739 CURVE SMOOTH",
"397 764 OFFCURVE",
"457 779 OFFCURVE",
"517 779 CURVE SMOOTH",
"606 779 OFFCURVE",
"696 757 OFFCURVE",
"777 722 CURVE",
"781 719 OFFCURVE",
"786 717 OFFCURVE",
"791 716 CURVE",
"790 716 LINE",
"798 714 OFFCURVE",
"805 711 OFFCURVE",
"811 708 CURVE",
"810 708 LINE",
"886 677 OFFCURVE",
"961 647 OFFCURVE",
"1045 647 CURVE SMOOTH",
"1117 647 OFFCURVE",
"1183 671 OFFCURVE",
"1247 703 CURVE SMOOTH",
"1279 719 OFFCURVE",
"1311 737 OFFCURVE",
"1342 756 CURVE SMOOTH",
"1373 775 OFFCURVE",
"1403 793 OFFCURVE",
"1434 810 CURVE",
"1432 813 OFFCURVE",
"1429 815 OFFCURVE",
"1424 818 CURVE"
);
}
);
width = 1530;
}
);
unicode = 007E;
},
{
glyphname = exclamdown;
lastChange = "2012-10-20 12:59:19 -0400";
layers = (
{
layerId = "16808965-E153-4B2B-ADB3-00196C646C32";
name = "Regular Italic";
paths = (
{
closed = 1;
nodes = (
"543 1225 LINE",
"506 1214 OFFCURVE",
"469 1207 OFFCURVE",
"430 1207 CURVE SMOOTH",
"395 1207 OFFCURVE",
"361 1213 OFFCURVE",
"328 1224 CURVE",
"331 1267 OFFCURVE",
"334 1309 OFFCURVE",
"337 1351 CURVE SMOOTH",
"340 1393 OFFCURVE",
"343 1435 OFFCURVE",
"346 1478 CURVE",
"378 1462 OFFCURVE",
"414 1454 OFFCURVE",
"453 1454 CURVE SMOOTH",
"493 1454 OFFCURVE",
"533 1461 OFFCURVE",
"570 1480 CURVE"
);
},
{
closed = 1;
nodes = (
"415 29 OFFCURVE",
"374 38 OFFCURVE",
"331 38 CURVE SMOOTH",
"288 38 OFFCURVE",
"246 29 OFFCURVE",
"207 10 CURVE",
"234 225 OFFCURVE",
"258 438 OFFCURVE",
"281 654 CURVE SMOOTH",
"289 711 OFFCURVE",
"297 768 OFFCURVE",
"306 825 CURVE SMOOTH",
"314 882 OFFCURVE",
"322 939 OFFCURVE",
"329 996 CURVE",
"356 992 OFFCURVE",
"383 990 OFFCURVE",
"410 990 CURVE SMOOTH",
"441 990 OFFCURVE",
"472 993 OFFCURVE",
"503 997 CURVE",
"500 940 OFFCURVE",
"498 883 OFFCURVE",
"497 826 CURVE SMOOTH",
"496 769 OFFCURVE",
"494 712 OFFCURVE",
"491 655 CURVE",
"491 656 LINE",
"476 439 OFFCURVE",
"462 226 OFFCURVE",
"451 9 CURVE"
);
}
);
width = 717;
}
);
unicode = 00A1;
},
{
glyphname = cent;
lastChange = "2012-10-20 12:59:19 -0400";
layers = (
{
layerId = "16808965-E153-4B2B-ADB3-00196C646C32";
name = "Regular Italic";
paths = (
{
closed = 1;
nodes = (
"611 346 OFFCURVE",
"625 477 OFFCURVE",
"638 607 CURVE SMOOTH",
"651 737 OFFCURVE",
"665 868 OFFCURVE",
"680 999 CURVE",
"596 995 OFFCURVE",
"528 962 OFFCURVE",
"475 912 CURVE SMOOTH",
"422 862 OFFCURVE",
"382 795 OFFCURVE",
"357 723 CURVE SMOOTH",
"332 651 OFFCURVE",
"319 575 OFFCURVE",
"319 507 CURVE SMOOTH",
"319 419 OFFCURVE",
"346 349 OFFCURVE",
"394 298 CURVE SMOOTH",
"441 247 OFFCURVE",
"507 217 OFFCURVE",
"587 206 CURVE",
"589 207 OFFCURVE",
"591 209 OFFCURVE",
"593 211 CURVE SMOOTH",
"594 212 OFFCURVE",
"596 214 OFFCURVE",
"598 215 CURVE"
);
},
{
closed = 1;
nodes = (
"1029 1038 OFFCURVE",
"1027 1017 OFFCURVE",
"1024 997 CURVE SMOOTH",
"1021 977 OFFCURVE",
"1018 956 OFFCURVE",
"1015 935 CURVE",
"938 976 OFFCURVE",
"852 1000 OFFCURVE",
"760 1003 CURVE",
"728 734 OFFCURVE",
"701 467 OFFCURVE",
"674 198 CURVE",
"766 202 OFFCURVE",
"856 223 OFFCURVE",
"943 262 CURVE",
"941 224 OFFCURVE",
"938 186 OFFCURVE",
"934 149 CURVE SMOOTH",
"930 112 OFFCURVE",
"927 74 OFFCURVE",
"926 36 CURVE",
"837 5 OFFCURVE",
"747 -6 OFFCURVE",
"655 -10 CURVE",
"652 -56 OFFCURVE",
"648 -102 OFFCURVE",
"644 -147 CURVE SMOOTH",
"639 -192 OFFCURVE",
"635 -238 OFFCURVE",
"632 -284 CURVE",
"619 -283 OFFCURVE",
"605 -282 OFFCURVE",
"591 -281 CURVE",
"577 -281 OFFCURVE",
"563 -280 OFFCURVE",
"550 -279 CURVE",
"555 -233 OFFCURVE",
"559 -187 OFFCURVE",
"563 -140 CURVE SMOOTH",
"567 -94 OFFCURVE",
"571 -48 OFFCURVE",
"576 -2 CURVE",
"512 5 OFFCURVE",
"445 19 OFFCURVE",
"386 45 CURVE SMOOTH",
"326 71 OFFCURVE",
"273 107 OFFCURVE",
"234 160 CURVE SMOOTH",
"173 244 OFFCURVE",
"153 351 OFFCURVE",
"153 459 CURVE SMOOTH",
"153 536 OFFCURVE",
"161 626 OFFCURVE",
"186 714 CURVE SMOOTH",
"210 801 OFFCURVE",
"251 884 OFFCURVE",
"316 948 CURVE",
"365 1000 OFFCURVE",
"427 1036 OFFCURVE",
"492 1060 CURVE SMOOTH",
"557 1084 OFFCURVE",
"626 1096 OFFCURVE",
"693 1103 CURVE",
"698 1149 OFFCURVE",
"704 1195 OFFCURVE",
"709 1242 CURVE SMOOTH",
"714 1288 OFFCURVE",
"720 1334 OFFCURVE",
"725 1380 CURVE",
"739 1381 OFFCURVE",
"753 1381 OFFCURVE",
"767 1381 CURVE",
"780 1380 OFFCURVE",
"794 1380 OFFCURVE",
"808 1381 CURVE",
"796 1288 OFFCURVE",
"785 1196 OFFCURVE",
"774 1103 CURVE",
"866 1100 OFFCURVE",
"956 1086 OFFCURVE",
"1037 1051 CURVE",
"1036 1052 OFFCURVE",
"1036 1054 OFFCURVE",
"1035 1055 CURVE SMOOTH",
"1034 1056 OFFCURVE",
"1033 1058 OFFCURVE",
"1032 1059 CURVE"
);
}
);
width = 1186;
}
);
unicode = 00A2;
},
{
glyphname = sterling;
lastChange = "2012-10-20 13:00:11 -0400";
layers = (
{
layerId = "16808965-E153-4B2B-ADB3-00196C646C32";
name = "Regular Italic";
paths = (
{
closed = 1;
nodes = (
"1154 1414 OFFCURVE",
"1148 1386 OFFCURVE",
"1143 1359 CURVE",
"1137 1332 OFFCURVE",
"1132 1304 OFFCURVE",
"1127 1276 CURVE",
"1055 1311 OFFCURVE",
"978 1337 OFFCURVE",
"894 1337 CURVE SMOOTH",
"855 1337 OFFCURVE",
"812 1330 OFFCURVE",
"772 1317 CURVE SMOOTH",
"731 1304 OFFCURVE",
"692 1281 OFFCURVE",
"663 1252 CURVE",
"631 1212 OFFCURVE",
"611 1167 OFFCURVE",
"599 1119 CURVE SMOOTH",
"587 1071 OFFCURVE",
"580 1021 OFFCURVE",
"575 974 CURVE SMOOTH",
"570 938 OFFCURVE",
"565 902 OFFCURVE",
"562 867 CURVE SMOOTH",
"558 831 OFFCURVE",
"554 795 OFFCURVE",
"550 759 CURVE",
"673 756 OFFCURVE",
"793 754 OFFCURVE",
"916 753 CURVE",
"914 736 OFFCURVE",
"912 719 OFFCURVE",
"911 703 CURVE",
"909 687 OFFCURVE",
"907 670 OFFCURVE",
"905 653 CURVE",
"844 654 OFFCURVE",
"783 656 OFFCURVE",
"722 657 CURVE SMOOTH",
"661 658 OFFCURVE",
"600 659 OFFCURVE",
"539 660 CURVE",
"530 587 OFFCURVE",
"522 514 OFFCURVE",
"514 441 CURVE SMOOTH",
"505 368 OFFCURVE",
"496 295 OFFCURVE",
"487 222 CURVE",
"668 221 OFFCURVE",
"846 215 OFFCURVE",
"1025 195 CURVE",
"1022 161 OFFCURVE",
"1021 128 OFFCURVE",
"1020 95 CURVE SMOOTH",
"1019 62 OFFCURVE",
"1018 29 OFFCURVE",
"1017 -4 CURVE",
"836 19 OFFCURVE",
"656 30 OFFCURVE",
"469 30 CURVE SMOOTH",
"328 30 OFFCURVE",
"187 23 OFFCURVE",
"46 10 CURVE",
"61 78 OFFCURVE",
"72 144 OFFCURVE",
"84 212 CURVE",
"160 217 OFFCURVE",
"236 219 OFFCURVE",
"312 222 CURVE",
"333 370 OFFCURVE",
"352 514 OFFCURVE",
"369 662 CURVE",
"306 662 OFFCURVE",
"246 663 OFFCURVE",
"183 664 CURVE",
"195 766 LINE",
"226 765 OFFCURVE",
"257 764 OFFCURVE",
"288 764 CURVE SMOOTH",
"319 763 OFFCURVE",
"350 763 OFFCURVE",
"381 762 CURVE",
"386 802 OFFCURVE",
"390 842 OFFCURVE",
"394 882 CURVE SMOOTH",
"401 962 OFFCURVE",
"408 1032 OFFCURVE",
"420 1096 CURVE SMOOTH",
"431 1159 OFFCURVE",
"451 1221 OFFCURVE",
"483 1277 CURVE SMOOTH",
"498 1305 OFFCURVE",
"518 1331 OFFCURVE",
"542 1355 CURVE",
"590 1399 OFFCURVE",
"650 1428 OFFCURVE",
"714 1448 CURVE SMOOTH",
"777 1467 OFFCURVE",
"843 1474 OFFCURVE",
"902 1474 CURVE SMOOTH",
"993 1474 OFFCURVE",
"1079 1458 OFFCURVE",
"1163 1434 CURVE",
"1161 1437 OFFCURVE",
"1160 1439 OFFCURVE",
"1159 1442 CURVE"
);
}
);
width = 1286;
}
);
unicode = 00A3;
},
{
glyphname = currency;
lastChange = "2012-10-20 12:59:19 -0400";
layers = (
{
layerId = "16808965-E153-4B2B-ADB3-00196C646C32";
name = "Regular Italic";
paths = (
{
closed = 1;
nodes = (
"1094 1042 OFFCURVE",
"1170 1112 OFFCURVE",
"1247 1180 CURVE",
"1260 1165 OFFCURVE",
"1274 1149 OFFCURVE",
"1287 1134 CURVE SMOOTH",
"1300 1118 OFFCURVE",
"1313 1102 OFFCURVE",
"1326 1086 CURVE",
"1287 1050 OFFCURVE",
"1249 1015 OFFCURVE",
"1211 981 CURVE SMOOTH",
"1173 946 OFFCURVE",
"1135 911 OFFCURVE",
"1097 875 CURVE",
"1128 814 OFFCURVE",
"1144 748 OFFCURVE",
"1144 678 CURVE SMOOTH",
"1144 582 OFFCURVE",
"1110 489 OFFCURVE",
"1050 412 CURVE",
"1114 340 OFFCURVE",
"1178 269 OFFCURVE",
"1245 200 CURVE",
"1228 185 OFFCURVE",
"1213 169 OFFCURVE",
"1198 154 CURVE SMOOTH",
"1183 138 OFFCURVE",
"1167 122 OFFCURVE",
"1150 107 CURVE",
"1082 178 OFFCURVE",
"1018 245 OFFCURVE",
"951 317 CURVE",
"880 270 OFFCURVE",
"800 242 OFFCURVE",
"719 242 CURVE SMOOTH",
"636 242 OFFCURVE",
"559 272 OFFCURVE",
"494 313 CURVE",
"455 278 OFFCURVE",
"416 243 OFFCURVE",
"378 208 CURVE SMOOTH",
"339 173 OFFCURVE",
"300 138 OFFCURVE",
"261 103 CURVE",
"247 118 OFFCURVE",
"234 134 OFFCURVE",
"222 151 CURVE",
"209 167 OFFCURVE",
"196 183 OFFCURVE",
"183 198 CURVE",
"260 267 OFFCURVE",
"335 337 OFFCURVE",
"411 408 CURVE",
"382 472 OFFCURVE",
"362 540 OFFCURVE",
"362 612 CURVE SMOOTH",
"362 704 OFFCURVE",
"397 794 OFFCURVE",
"454 870 CURVE",
"422 906 OFFCURVE",
"390 941 OFFCURVE",
"358 976 CURVE SMOOTH",
"326 1011 OFFCURVE",
"294 1046 OFFCURVE",
"262 1082 CURVE",
"279 1097 OFFCURVE",
"296 1113 OFFCURVE",
"311 1129 CURVE SMOOTH",
"326 1144 OFFCURVE",
"342 1160 OFFCURVE",
"359 1175 CURVE",
"392 1140 OFFCURVE",
"424 1105 OFFCURVE",
"457 1071 CURVE SMOOTH",
"490 1036 OFFCURVE",
"522 1001 OFFCURVE",
"555 965 CURVE",
"624 1014 OFFCURVE",
"707 1039 OFFCURVE",
"788 1039 CURVE SMOOTH",
"868 1039 OFFCURVE",
"943 1015 OFFCURVE",
"1007 972 CURVE",
"1009 972 OFFCURVE",
"1011 972 OFFCURVE",
"1013 973 CURVE",
"1014 973 OFFCURVE",
"1016 973 OFFCURVE",
"1018 973 CURVE"
);
},
{
closed = 1;
nodes = (
"1016 647 OFFCURVE",
"1016 651 OFFCURVE",
"1016 656 CURVE SMOOTH",
"1016 661 OFFCURVE",
"1016 666 OFFCURVE",
"1016 671 CURVE SMOOTH",
"1016 740 OFFCURVE",
"989 800 OFFCURVE",
"946 841 CURVE SMOOTH",
"902 882 OFFCURVE",
"841 906 OFFCURVE",
"773 906 CURVE SMOOTH",
"694 906 OFFCURVE",
"624 872 OFFCURVE",
"573 819 CURVE SMOOTH",
"521 766 OFFCURVE",
"489 692 OFFCURVE",
"489 613 CURVE SMOOTH",
"489 542 OFFCURVE",
"516 483 OFFCURVE",
"560 441 CURVE SMOOTH",
"604 399 OFFCURVE",
"665 374 OFFCURVE",
"733 374 CURVE SMOOTH",
"806 374 OFFCURVE",
"874 405 OFFCURVE",
"925 454 CURVE SMOOTH",
"976 502 OFFCURVE",
"1010 570 OFFCURVE",
"1015 642 CURVE"
);
}
);
width = 1470;
}
);
unicode = 00A4;
},
{
glyphname = yen;
lastChange = "2012-10-20 12:59:19 -0400";
layers = (
{
layerId = "16808965-E153-4B2B-ADB3-00196C646C32";
name = "Regular Italic";
paths = (
{
closed = 1;
nodes = (
"1173 435 OFFCURVE",
"1045 436 OFFCURVE",
"914 437 CURVE",
"909 304 OFFCURVE",
"906 170 OFFCURVE",
"906 37 CURVE",
"889 38 OFFCURVE",
"872 38 OFFCURVE",
"855 38 CURVE SMOOTH",
"838 38 OFFCURVE",
"821 38 OFFCURVE",
"804 38 CURVE SMOOTH",
"781 38 OFFCURVE",
"758 38 OFFCURVE",
"735 38 CURVE",
"712 37 OFFCURVE",
"688 37 OFFCURVE",
"665 37 CURVE",
"688 170 OFFCURVE",
"710 304 OFFCURVE",
"733 437 CURVE",
"600 437 OFFCURVE",
"470 433 OFFCURVE",
"337 428 CURVE",
"344 475 OFFCURVE",
"349 522 OFFCURVE",
"353 569 CURVE",
"485 572 OFFCURVE",
"614 574 OFFCURVE",
"745 574 CURVE",
"746 584 OFFCURVE",
"747 594 OFFCURVE",
"748 605 CURVE SMOOTH",
"749 615 OFFCURVE",
"750 625 OFFCURVE",
"751 636 CURVE",
"737 662 OFFCURVE",
"722 688 OFFCURVE",
"707 714 CURVE",
"691 739 OFFCURVE",
"676 765 OFFCURVE",
"662 792 CURVE",
"611 792 OFFCURVE",
"560 792 OFFCURVE",
"509 792 CURVE SMOOTH",
"458 792 OFFCURVE",
"407 793 OFFCURVE",
"356 794 CURVE",
"358 811 OFFCURVE",
"359 828 OFFCURVE",
"360 845 CURVE SMOOTH",
"361 862 OFFCURVE",
"362 879 OFFCURVE",
"364 896 CURVE",
"449 893 OFFCURVE",
"532 891 OFFCURVE",
"617 891 CURVE",
"532 1092 OFFCURVE",
"443 1287 OFFCURVE",
"348 1484 CURVE",
"411 1476 OFFCURVE",
"470 1469 OFFCURVE",
"533 1466 CURVE",
"645 1235 OFFCURVE",
"746 1006 OFFCURVE",
"847 770 CURVE",
"988 1006 OFFCURVE",
"1130 1238 OFFCURVE",
"1283 1467 CURVE",
"1347 1471 OFFCURVE",
"1408 1477 OFFCURVE",
"1472 1484 CURVE",
"1336 1289 OFFCURVE",
"1211 1092 OFFCURVE",
"1086 891 CURVE",
"1129 892 OFFCURVE",
"1172 893 OFFCURVE",
"1214 894 CURVE SMOOTH",
"1256 894 OFFCURVE",
"1298 895 OFFCURVE",
"1341 896 CURVE",
"1340 879 OFFCURVE",
"1338 862 OFFCURVE",
"1336 846 CURVE SMOOTH",
"1334 829 OFFCURVE",
"1332 812 OFFCURVE",
"1331 795 CURVE",
"1025 792 LINE",
"1009 765 OFFCURVE",
"993 739 OFFCURVE",
"977 714 CURVE SMOOTH",
"960 688 OFFCURVE",
"944 662 OFFCURVE",
"928 636 CURVE",
"923 574 LINE",
"1054 574 OFFCURVE",
"1183 573 OFFCURVE",
"1312 570 CURVE",
"1311 547 OFFCURVE",
"1309 523 OFFCURVE",
"1308 499 CURVE SMOOTH",
"1307 475 OFFCURVE",
"1305 451 OFFCURVE",
"1304 428 CURVE"
);
}
);
width = 1481;
}
);
unicode = 00A5;
},
{
glyphname = brokenbar;
lastChange = "2012-10-20 12:59:19 -0400";
layers = (
{
layerId = "16808965-E153-4B2B-ADB3-00196C646C32";
name = "Regular Italic";
paths = (
{
closed = 1;
nodes = (
"369 150 OFFCURVE",
"350 -92 OFFCURVE",
"331 -340 CURVE",
"314 -317 OFFCURVE",
"287 -308 OFFCURVE",
"259 -308 CURVE SMOOTH",
"231 -308 OFFCURVE",
"202 -319 OFFCURVE",
"181 -340 CURVE",
"205 -94 OFFCURVE",
"228 152 OFFCURVE",
"250 398 CURVE",
"277 401 OFFCURVE",
"303 402 OFFCURVE",
"330 402 CURVE SMOOTH",
"350 402 OFFCURVE",
"370 401 OFFCURVE",
"390 398 CURVE"
);
},
{
closed = 1;
nodes = (
"460 1174 OFFCURVE",
"438 931 OFFCURVE",
"415 683 CURVE",
"390 679 OFFCURVE",
"364 676 OFFCURVE",
"339 676 CURVE SMOOTH",
"316 676 OFFCURVE",
"295 677 OFFCURVE",
"275 684 CURVE",
"296 930 OFFCURVE",
"316 1176 OFFCURVE",
"335 1422 CURVE",
"351 1398 OFFCURVE",
"377 1386 OFFCURVE",
"405 1386 CURVE SMOOTH",
"434 1386 OFFCURVE",
"464 1399 OFFCURVE",
"485 1422 CURVE"
);
}
);
width = 671;
}
);
unicode = 00A6;
},
{
glyphname = section;
lastChange = "2012-10-20 12:59:19 -0400";
layers = (
{
layerId = "16808965-E153-4B2B-ADB3-00196C646C32";
name = "Regular Italic";
paths = (
{
closed = 1;
nodes = (
"473 955 LINE",
"438 931 OFFCURVE",
"405 904 OFFCURVE",
"379 871 CURVE SMOOTH",
"353 838 OFFCURVE",
"336 801 OFFCURVE",
"336 757 CURVE SMOOTH",
"336 706 OFFCURVE",
"360 663 OFFCURVE",
"397 624 CURVE SMOOTH",
"433 584 OFFCURVE",
"483 550 OFFCURVE",
"535 519 CURVE SMOOTH",
"560 503 OFFCURVE",
"586 488 OFFCURVE",
"611 473 CURVE SMOOTH",
"636 458 OFFCURVE",
"660 444 OFFCURVE",
"682 431 CURVE",
"714 452 OFFCURVE",
"750 481 OFFCURVE",
"778 514 CURVE SMOOTH",
"806 546 OFFCURVE",
"825 585 OFFCURVE",
"825 626 CURVE SMOOTH",
"825 701 OFFCURVE",
"773 764 OFFCURVE",
"705 817 CURVE SMOOTH",
"670 844 OFFCURVE",
"633 868 OFFCURVE",
"593 891 CURVE SMOOTH",
"553 914 OFFCURVE",
"516 935 OFFCURVE",
"483 955 CURVE"
);
},
{
closed = 1;
nodes = (
"954 1448 LINE",
"951 1423 OFFCURVE",
"948 1399 OFFCURVE",
"945 1375 CURVE SMOOTH",
"942 1350 OFFCURVE",
"938 1326 OFFCURVE",
"934 1301 CURVE",
"845 1332 OFFCURVE",
"759 1356 OFFCURVE",
"659 1356 CURVE SMOOTH",
"614 1356 OFFCURVE",
"563 1344 OFFCURVE",
"523 1320 CURVE SMOOTH",
"483 1295 OFFCURVE",
"453 1256 OFFCURVE",
"453 1204 CURVE",
"460 1149 OFFCURVE",
"495 1103 OFFCURVE",
"539 1064 CURVE SMOOTH",
"583 1025 OFFCURVE",
"635 995 OFFCURVE",
"674 974 CURVE",
"704 955 OFFCURVE",
"736 935 OFFCURVE",
"770 915 CURVE SMOOTH",
"837 874 OFFCURVE",
"895 824 OFFCURVE",
"932 760 CURVE SMOOTH",
"950 728 OFFCURVE",
"959 691 OFFCURVE",
"959 650 CURVE SMOOTH",
"959 583 OFFCURVE",
"937 524 OFFCURVE",
"901 473 CURVE SMOOTH",
"865 422 OFFCURVE",
"814 381 OFFCURVE",
"755 352 CURVE",
"814 297 OFFCURVE",
"861 225 OFFCURVE",
"861 141 CURVE SMOOTH",
"861 100 OFFCURVE",
"854 57 OFFCURVE",
"838 18 CURVE SMOOTH",
"821 -22 OFFCURVE",
"794 -57 OFFCURVE",
"755 -82 CURVE",
"715 -113 OFFCURVE",
"668 -129 OFFCURVE",
"620 -140 CURVE SMOOTH",
"572 -151 OFFCURVE",
"522 -153 OFFCURVE",
"475 -153 CURVE SMOOTH",
"375 -153 OFFCURVE",
"280 -138 OFFCURVE",
"184 -119 CURVE",
"188 -87 OFFCURVE",
"192 -55 OFFCURVE",
"197 -24 CURVE SMOOTH",
"201 7 OFFCURVE",
"205 38 OFFCURVE",
"208 70 CURVE",
"295 39 OFFCURVE",
"382 15 OFFCURVE",
"477 15 CURVE SMOOTH",
"522 15 OFFCURVE",
"569 18 OFFCURVE",
"613 31 CURVE SMOOTH",
"674 48 OFFCURVE",
"705 99 OFFCURVE",
"705 147 CURVE",
"697 200 OFFCURVE",
"662 244 OFFCURVE",
"619 281 CURVE SMOOTH",
"575 317 OFFCURVE",
"524 346 OFFCURVE",
"484 369 CURVE",
"485 369 LINE",
"422 406 OFFCURVE",
"351 446 OFFCURVE",
"295 496 CURVE SMOOTH",
"239 546 OFFCURVE",
"199 607 OFFCURVE",
"199 694 CURVE SMOOTH",
"199 759 OFFCURVE",
"219 820 OFFCURVE",
"255 872 CURVE SMOOTH",
"290 923 OFFCURVE",
"341 964 OFFCURVE",
"402 991 CURVE",
"338 1043 OFFCURVE",
"295 1120 OFFCURVE",
"295 1205 CURVE SMOOTH",
"295 1244 OFFCURVE",
"303 1284 OFFCURVE",
"320 1320 CURVE SMOOTH",
"337 1356 OFFCURVE",
"364 1387 OFFCURVE",
"400 1410 CURVE SMOOTH",
"441 1438 OFFCURVE",
"486 1455 OFFCURVE",
"534 1465 CURVE SMOOTH",
"581 1475 OFFCURVE",
"628 1477 OFFCURVE",
"675 1477 CURVE SMOOTH",
"772 1477 OFFCURVE",
"867 1464 OFFCURVE",
"959 1440 CURVE",
"954 1447 LINE"
);
}
);
width = 1107;
}
);
unicode = 00A7;
},
{
glyphname = dieresis;
lastChange = "2013-03-07 23:14:37 -0500";
layers = (
{
anchors = (
{
name = _top;
position = "{663, 1320}";
}
);
layerId = "16808965-E153-4B2B-ADB3-00196C646C32";
name = "Regular Italic";
paths = (
{
closed = 1;
nodes = (
"816 1555 OFFCURVE",
"849 1556 OFFCURVE",
"882 1556 CURVE SMOOTH",
"915 1556 OFFCURVE",
"948 1557 OFFCURVE",
"981 1558 CURVE",
"960 1519 OFFCURVE",
"950 1478 OFFCURVE",
"950 1435 CURVE SMOOTH",
"950 1408 OFFCURVE",
"954 1383 OFFCURVE",
"963 1360 CURVE",
"930 1361 OFFCURVE",
"898 1362 OFFCURVE",
"865 1362 CURVE SMOOTH",
"832 1362 OFFCURVE",
"799 1363 OFFCURVE",
"766 1364 CURVE",
"765 1371 OFFCURVE",
"764 1379 OFFCURVE",
"764 1387 CURVE SMOOTH",
"764 1395 OFFCURVE",
"764 1403 OFFCURVE",
"764 1410 CURVE SMOOTH",
"764 1458 OFFCURVE",
"771 1506 OFFCURVE",
"782 1554 CURVE"
);
},
{
closed = 1;
nodes = (
"396 1557 OFFCURVE",
"429 1556 OFFCURVE",
"462 1556 CURVE SMOOTH",
"494 1555 OFFCURVE",
"526 1555 OFFCURVE",
"559 1554 CURVE",
"560 1547 OFFCURVE",
"560 1541 OFFCURVE",
"560 1535 CURVE SMOOTH",
"560 1528 OFFCURVE",
"560 1522 OFFCURVE",
"560 1515 CURVE SMOOTH",
"560 1464 OFFCURVE",
"555 1415 OFFCURVE",
"544 1364 CURVE",
"511 1363 OFFCURVE",
"478 1363 OFFCURVE",
"445 1363 CURVE SMOOTH",
"412 1362 OFFCURVE",
"379 1361 OFFCURVE",
"345 1360 CURVE",
"365 1399 OFFCURVE",
"374 1439 OFFCURVE",
"374 1482 CURVE SMOOTH",
"374 1509 OFFCURVE",
"371 1534 OFFCURVE",
"363 1558 CURVE"
);
}
);
width = 942;
}
);
unicode = 00A8;
},
{
glyphname = copyright;
lastChange = "2012-10-20 12:59:19 -0400";
layers = (
{
layerId = "16808965-E153-4B2B-ADB3-00196C646C32";
name = "Regular Italic";
paths = (
{
closed = 1;
nodes = (
"1038 1446 OFFCURVE",
"1129 1431 OFFCURVE",
"1212 1399 CURVE SMOOTH",
"1295 1366 OFFCURVE",
"1369 1316 OFFCURVE",
"1428 1247 CURVE SMOOTH",
"1528 1134 OFFCURVE",
"1571 983 OFFCURVE",
"1571 826 CURVE SMOOTH",
"1571 722 OFFCURVE",
"1554 612 OFFCURVE",
"1516 511 CURVE SMOOTH",
"1478 410 OFFCURVE",
"1420 314 OFFCURVE",
"1337 238 CURVE",
"1265 167 OFFCURVE",
"1181 117 OFFCURVE",
"1091 85 CURVE SMOOTH",
"1001 53 OFFCURVE",
"906 38 OFFCURVE",
"811 38 CURVE SMOOTH",
"720 38 OFFCURVE",
"630 54 OFFCURVE",
"550 87 CURVE SMOOTH",
"469 120 OFFCURVE",
"395 169 OFFCURVE",
"338 236 CURVE SMOOTH",
"238 351 OFFCURVE",
"194 502 OFFCURVE",
"194 659 CURVE SMOOTH",
"194 763 OFFCURVE",
"211 871 OFFCURVE",
"248 973 CURVE SMOOTH",
"285 1075 OFFCURVE",
"343 1170 OFFCURVE",
"427 1246 CURVE",
"496 1315 OFFCURVE",
"580 1365 OFFCURVE",
"669 1398 CURVE SMOOTH",
"758 1430 OFFCURVE",
"853 1446 OFFCURVE",
"946 1446 CURVE SMOOTH"
);
},
{
closed = 1;
nodes = (
"855 1365 OFFCURVE",
"773 1350 OFFCURVE",
"695 1321 CURVE SMOOTH",
"617 1292 OFFCURVE",
"544 1247 OFFCURVE",
"481 1187 CURVE SMOOTH",
"409 1122 OFFCURVE",
"357 1040 OFFCURVE",
"322 952 CURVE SMOOTH",
"286 864 OFFCURVE",
"269 770 OFFCURVE",
"269 679 CURVE SMOOTH",
"269 544 OFFCURVE",
"313 414 OFFCURVE",
"408 323 CURVE",
"529 235 OFFCURVE",
"680 195 OFFCURVE",
"835 195 CURVE SMOOTH",
"991 195 OFFCURVE",
"1148 236 OFFCURVE",
"1285 324 CURVE",
"1362 381 OFFCURVE",
"1415 461 OFFCURVE",
"1448 548 CURVE SMOOTH",
"1481 635 OFFCURVE",
"1494 729 OFFCURVE",
"1494 816 CURVE SMOOTH",
"1494 953 OFFCURVE",
"1453 1088 OFFCURVE",
"1364 1188 CURVE SMOOTH",
"1312 1249 OFFCURVE",
"1246 1293 OFFCURVE",
"1174 1322 CURVE SMOOTH",
"1101 1351 OFFCURVE",
"1019 1365 OFFCURVE",
"938 1365 CURVE SMOOTH"
);
},
{
closed = 1;
nodes = (
"1193 1122 LINE",
"1189 1094 OFFCURVE",
"1186 1067 OFFCURVE",
"1184 1042 CURVE",
"1111 1077 OFFCURVE",
"1029 1096 OFFCURVE",
"945 1096 CURVE SMOOTH",
"858 1096 OFFCURVE",
"772 1063 OFFCURVE",
"712 995 CURVE SMOOTH",
"645 919 OFFCURVE",
"610 815 OFFCURVE",
"610 720 CURVE SMOOTH",
"610 637 OFFCURVE",
"647 575 OFFCURVE",
"703 533 CURVE SMOOTH",
"758 491 OFFCURVE",
"832 469 OFFCURVE",
"908 469 CURVE SMOOTH",
"984 469 OFFCURVE",
"1062 491 OFFCURVE",
"1135 524 CURVE",
"1134 497 OFFCURVE",
"1132 471 OFFCURVE",
"1130 445 CURVE SMOOTH",
"1127 418 OFFCURVE",
"1125 392 OFFCURVE",
"1124 365 CURVE",
"1040 330 OFFCURVE",
"951 317 OFFCURVE",
"863 317 CURVE SMOOTH",
"807 317 OFFCURVE",
"750 325 OFFCURVE",
"698 342 CURVE SMOOTH",
"646 359 OFFCURVE",
"598 387 OFFCURVE",
"561 428 CURVE SMOOTH",
"498 496 OFFCURVE",
"473 588 OFFCURVE",
"473 683 CURVE SMOOTH",
"473 747 OFFCURVE",
"483 815 OFFCURVE",
"505 880 CURVE SMOOTH",
"527 944 OFFCURVE",
"563 1004 OFFCURVE",
"615 1051 CURVE SMOOTH",
"663 1094 OFFCURVE",
"718 1122 OFFCURVE",
"775 1139 CURVE SMOOTH",
"832 1156 OFFCURVE",
"892 1163 OFFCURVE",
"951 1163 CURVE SMOOTH",
"1036 1163 OFFCURVE",
"1120 1145 OFFCURVE",
"1197 1114 CURVE"
);
}
);
width = 1684;
}
);
unicode = 00A9;
},
{
glyphname = ordfeminine;
lastChange = "2012-10-20 12:59:19 -0400";
layers = (
{
layerId = "16808965-E153-4B2B-ADB3-00196C646C32";
name = "Regular Italic";
paths = (
{
closed = 1;
nodes = (
"343 592 OFFCURVE",
"452 597 OFFCURVE",
"561 597 CURVE SMOOTH",
"670 597 OFFCURVE",
"778 592 OFFCURVE",
"885 582 CURVE",
"884 577 OFFCURVE",
"884 572 OFFCURVE",
"884 567 CURVE SMOOTH",
"884 562 OFFCURVE",
"884 557 OFFCURVE",
"884 552 CURVE SMOOTH",
"884 542 OFFCURVE",
"884 532 OFFCURVE",
"885 522 CURVE",
"885 511 OFFCURVE",
"885 501 OFFCURVE",
"885 491 CURVE SMOOTH",
"885 479 LINE",
"772 492 OFFCURVE",
"661 498 OFFCURVE",
"546 498 CURVE SMOOTH",
"437 498 OFFCURVE",
"329 493 OFFCURVE",
"218 482 CURVE",
"225 517 OFFCURVE",
"230 549 OFFCURVE",
"234 584 CURVE"
);
},
{
closed = 1;
nodes = (
"907 1018 OFFCURVE",
"894 873 OFFCURVE",
"887 728 CURVE",
"867 730 OFFCURVE",
"847 731 OFFCURVE",
"827 732 CURVE SMOOTH",
"806 733 OFFCURVE",
"786 734 OFFCURVE",
"765 735 CURVE",
"774 864 LINE",
"739 816 OFFCURVE",
"694 779 OFFCURVE",
"643 755 CURVE SMOOTH",
"591 730 OFFCURVE",
"535 718 OFFCURVE",
"479 718 CURVE SMOOTH",
"419 718 OFFCURVE",
"362 732 OFFCURVE",
"321 764 CURVE SMOOTH",
"280 795 OFFCURVE",
"254 845 OFFCURVE",
"254 917 CURVE SMOOTH",
"254 956 OFFCURVE",
"261 999 OFFCURVE",
"277 1039 CURVE SMOOTH",
"293 1079 OFFCURVE",
"318 1115 OFFCURVE",
"357 1138 CURVE SMOOTH",
"446 1191 OFFCURVE",
"538 1200 OFFCURVE",
"623 1200 CURVE SMOOTH",
"684 1200 OFFCURVE",
"745 1201 OFFCURVE",
"806 1204 CURVE",
"807 1217 LINE",
"808 1221 OFFCURVE",
"808 1225 OFFCURVE",
"808 1230 CURVE SMOOTH",
"808 1234 OFFCURVE",
"808 1238 OFFCURVE",
"808 1243 CURVE SMOOTH",
"808 1315 OFFCURVE",
"773 1353 OFFCURVE",
"729 1374 CURVE SMOOTH",
"685 1394 OFFCURVE",
"631 1397 OFFCURVE",
"591 1398 CURVE",
"506 1397 OFFCURVE",
"422 1376 OFFCURVE",
"338 1347 CURVE",
"339 1364 OFFCURVE",
"340 1382 OFFCURVE",
"340 1399 CURVE SMOOTH",
"340 1416 OFFCURVE",
"340 1434 OFFCURVE",
"341 1451 CURVE",
"433 1478 OFFCURVE",
"527 1490 OFFCURVE",
"620 1490 CURVE SMOOTH",
"661 1490 OFFCURVE",
"705 1488 OFFCURVE",
"746 1480 CURVE SMOOTH",
"787 1471 OFFCURVE",
"826 1455 OFFCURVE",
"859 1430 CURVE",
"912 1378 OFFCURVE",
"927 1309 OFFCURVE",
"927 1241 CURVE SMOOTH",
"927 1214 OFFCURVE",
"925 1190 OFFCURVE",
"922 1165 CURVE SMOOTH"
);
},
{
closed = 1;
nodes = (
"624 1170 OFFCURVE",
"579 1169 OFFCURVE",
"536 1163 CURVE SMOOTH",
"492 1157 OFFCURVE",
"451 1144 OFFCURVE",
"420 1120 CURVE SMOOTH",
"389 1096 OFFCURVE",
"370 1059 OFFCURVE",
"370 1004 CURVE SMOOTH",
"370 964 OFFCURVE",
"389 933 OFFCURVE",
"418 910 CURVE SMOOTH",
"446 887 OFFCURVE",
"483 875 OFFCURVE",
"522 875 CURVE SMOOTH",
"591 875 OFFCURVE",
"657 894 OFFCURVE",
"708 949 CURVE SMOOTH",
"756 1000 OFFCURVE",
"782 1068 OFFCURVE",
"789 1136 CURVE",
"790 1143 OFFCURVE",
"790 1149 OFFCURVE",
"791 1155 CURVE",
"791 1161 OFFCURVE",
"792 1167 OFFCURVE",
"793 1174 CURVE",
"750 1173 OFFCURVE",
"707 1171 OFFCURVE",
"664 1171 CURVE SMOOTH"
);
}
);
width = 1051;
}
);
unicode = 00AA;
},
{
glyphname = guillemotleft;
lastChange = "2012-10-20 12:59:19 -0400";
layers = (
{
layerId = "16808965-E153-4B2B-ADB3-00196C646C32";
name = "Regular Italic";
paths = (
{
closed = 1;
nodes = (
"1079 948 OFFCURVE",
"1068 894 OFFCURVE",
"1057 838 CURVE",
"1001 794 OFFCURVE",
"946 751 OFFCURVE",
"893 708 CURVE SMOOTH",
"839 665 OFFCURVE",
"784 621 OFFCURVE",
"728 577 CURVE",
"772 530 OFFCURVE",
"815 484 OFFCURVE",
"858 437 CURVE SMOOTH",
"901 390 OFFCURVE",
"944 344 OFFCURVE",
"988 298 CURVE",
"972 230 OFFCURVE",
"959 162 OFFCURVE",
"949 94 CURVE",
"812 230 OFFCURVE",
"682 367 OFFCURVE",
"549 508 CURVE",
"556 526 OFFCURVE",
"564 544 OFFCURVE",
"573 562 CURVE SMOOTH",
"581 579 OFFCURVE",
"589 597 OFFCURVE",
"596 615 CURVE",
"680 680 OFFCURVE",
"763 745 OFFCURVE",
"846 810 CURVE SMOOTH",
"928 875 OFFCURVE",
"1011 939 OFFCURVE",
"1094 1004 CURVE"
);
},
{
closed = 1;
nodes = (
"640 841 LINE",
"532 758 OFFCURVE",
"428 676 OFFCURVE",
"321 592 CURVE",
"405 500 OFFCURVE",
"489 412 OFFCURVE",
"576 321 CURVE",
"567 287 OFFCURVE",
"557 254 OFFCURVE",
"547 221 CURVE SMOOTH",
"536 188 OFFCURVE",
"526 155 OFFCURVE",
"517 121 CURVE",
"388 252 OFFCURVE",
"264 383 OFFCURVE",
"143 522 CURVE",
"150 541 OFFCURVE",
"158 559 OFFCURVE",
"167 577 CURVE SMOOTH",
"176 595 OFFCURVE",
"183 613 OFFCURVE",
"189 632 CURVE",
"346 759 OFFCURVE",
"502 879 OFFCURVE",
"663 1000 CURVE"
);
}
);
width = 1197;
}
);
unicode = 00AB;
},
{
glyphname = logicalnot;
lastChange = "2012-10-20 12:59:19 -0400";
layers = (
{
layerId = "16808965-E153-4B2B-ADB3-00196C646C32";
name = "Regular Italic";
paths = (
{
closed = 1;
nodes = (
"425 845 OFFCURVE",
"633 842 OFFCURVE",
"845 842 CURVE SMOOTH",
"1057 842 OFFCURVE",
"1266 845 OFFCURVE",
"1478 852 CURVE",
"1443 747 OFFCURVE",
"1424 638 OFFCURVE",
"1424 530 CURVE SMOOTH",
"1424 450 OFFCURVE",
"1434 372 OFFCURVE",
"1457 297 CURVE",
"1382 300 OFFCURVE",
"1308 302 OFFCURVE",
"1232 303 CURVE",
"1232 308 OFFCURVE",
"1232 312 OFFCURVE",
"1232 317 CURVE",
"1231 322 OFFCURVE",
"1231 326 OFFCURVE",
"1231 331 CURVE SMOOTH",
"1231 456 OFFCURVE",
"1256 579 OFFCURVE",
"1291 700 CURVE",
"936 689 OFFCURVE",
"589 682 OFFCURVE",
"234 682 CURVE",
"231 741 OFFCURVE",
"225 797 OFFCURVE",
"214 853 CURVE"
);
}
);
width = 1662;
}
);
unicode = 00AC;
},
{
glyphname = registered;
lastChange = "2012-10-20 12:59:19 -0400";
layers = (
{
layerId = "16808965-E153-4B2B-ADB3-00196C646C32";
name = "Regular Italic";
paths = (
{
closed = 1;
nodes = (
"775 1365 OFFCURVE",
"610 1316 OFFCURVE",
"482 1201 CURVE SMOOTH",
"411 1141 OFFCURVE",
"360 1067 OFFCURVE",
"325 987 CURVE SMOOTH",
"290 906 OFFCURVE",
"274 818 OFFCURVE",
"274 733 CURVE SMOOTH",
"274 570 OFFCURVE",
"339 441 OFFCURVE",
"443 351 CURVE SMOOTH",
"546 261 OFFCURVE",
"688 211 OFFCURVE",
"840 211 CURVE SMOOTH",
"1000 211 OFFCURVE",
"1163 265 OFFCURVE",
"1288 377 CURVE SMOOTH",
"1421 504 OFFCURVE",
"1498 677 OFFCURVE",
"1498 854 CURVE SMOOTH",
"1498 986 OFFCURVE",
"1456 1113 OFFCURVE",
"1367 1202 CURVE SMOOTH",
"1312 1259 OFFCURVE",
"1245 1301 OFFCURVE",
"1172 1327 CURVE SMOOTH",
"1099 1353 OFFCURVE",
"1019 1365 OFFCURVE",
"938 1365 CURVE SMOOTH"
);
},
{
closed = 1;
nodes = (
"1038 1446 OFFCURVE",
"1129 1431 OFFCURVE",
"1212 1399 CURVE SMOOTH",
"1295 1366 OFFCURVE",
"1369 1316 OFFCURVE",
"1428 1247 CURVE SMOOTH",
"1528 1134 OFFCURVE",
"1571 983 OFFCURVE",
"1571 826 CURVE SMOOTH",
"1571 722 OFFCURVE",
"1554 612 OFFCURVE",
"1516 511 CURVE SMOOTH",
"1478 410 OFFCURVE",
"1420 314 OFFCURVE",
"1337 238 CURVE",
"1265 167 OFFCURVE",
"1181 117 OFFCURVE",
"1091 85 CURVE SMOOTH",
"1001 53 OFFCURVE",
"906 38 OFFCURVE",
"811 38 CURVE SMOOTH",
"720 38 OFFCURVE",
"630 54 OFFCURVE",
"550 87 CURVE SMOOTH",
"469 120 OFFCURVE",
"395 169 OFFCURVE",
"338 236 CURVE SMOOTH",
"238 351 OFFCURVE",
"194 502 OFFCURVE",
"194 659 CURVE SMOOTH",
"194 763 OFFCURVE",
"211 871 OFFCURVE",
"248 973 CURVE SMOOTH",
"285 1075 OFFCURVE",
"343 1170 OFFCURVE",
"427 1246 CURVE",
"496 1315 OFFCURVE",
"580 1365 OFFCURVE",
"669 1398 CURVE SMOOTH",
"758 1430 OFFCURVE",
"853 1446 OFFCURVE",
"946 1446 CURVE SMOOTH"
);
},
{
closed = 1;
nodes = (
"916 1114 OFFCURVE",
"895 1114 OFFCURVE",
"874 1114 CURVE",
"853 1113 OFFCURVE",
"832 1113 OFFCURVE",
"811 1113 CURVE",
"808 1066 OFFCURVE",
"804 1019 OFFCURVE",
"800 972 CURVE SMOOTH",
"795 925 OFFCURVE",
"791 878 OFFCURVE",
"787 830 CURVE",
"829 830 LINE",
"912 830 LINE SMOOTH",
"963 830 OFFCURVE",
"1017 832 OFFCURVE",
"1064 863 CURVE SMOOTH",
"1085 876 OFFCURVE",
"1101 899 OFFCURVE",
"1110 923 CURVE",
"1118 947 OFFCURVE",
"1122 972 OFFCURVE",
"1122 995 CURVE SMOOTH",
"1122 1054 OFFCURVE",
"1092 1083 OFFCURVE",
"1054 1098 CURVE SMOOTH",
"1016 1113 OFFCURVE",
"969 1113 OFFCURVE",
"937 1114 CURVE SMOOTH"
);
},
{
closed = 1;
nodes = (
"977 1144 OFFCURVE",
"1055 1139 OFFCURVE",
"1123 1102 CURVE",
"1179 1066 OFFCURVE",
"1202 1010 OFFCURVE",
"1202 954 CURVE SMOOTH",
"1202 894 OFFCURVE",
"1179 842 OFFCURVE",
"1142 802 CURVE SMOOTH",
"1105 762 OFFCURVE",
"1053 735 OFFCURVE",
"996 728 CURVE",
"994 713 LINE",
"1022 697 OFFCURVE",
"1044 673 OFFCURVE",
"1062 646 CURVE SMOOTH",
"1071 633 OFFCURVE",
"1079 619 OFFCURVE",
"1087 605 CURVE",
"1094 590 OFFCURVE",
"1102 576 OFFCURVE",
"1110 562 CURVE",
"1109 562 LINE",
"1126 528 OFFCURVE",
"1144 494 OFFCURVE",
"1162 461 CURVE SMOOTH",
"1180 428 OFFCURVE",
"1198 394 OFFCURVE",
"1216 360 CURVE",
"1193 361 OFFCURVE",
"1169 361 OFFCURVE",
"1145 362 CURVE",
"1121 362 OFFCURVE",
"1097 362 OFFCURVE",
"1074 363 CURVE",
"1056 396 OFFCURVE",
"1039 428 OFFCURVE",
"1022 461 CURVE SMOOTH",
"1005 493 OFFCURVE",
"988 526 OFFCURVE",
"970 559 CURVE",
"971 559 LINE",
"963 573 OFFCURVE",
"955 588 OFFCURVE",
"946 604 CURVE SMOOTH",
"928 636 OFFCURVE",
"906 665 OFFCURVE",
"881 686 CURVE",
"868 696 OFFCURVE",
"854 702 OFFCURVE",
"838 705 CURVE",
"827 705 OFFCURVE",
"817 705 OFFCURVE",
"807 705 CURVE SMOOTH",
"797 705 OFFCURVE",
"787 705 OFFCURVE",
"776 704 CURVE",
"771 647 OFFCURVE",
"766 590 OFFCURVE",
"761 534 CURVE SMOOTH",
"756 477 OFFCURVE",
"750 420 OFFCURVE",
"745 363 CURVE",
"720 363 LINE SMOOTH",
"695 363 OFFCURVE",
"669 363 OFFCURVE",
"644 362 CURVE SMOOTH",
"619 361 OFFCURVE",
"593 361 OFFCURVE",
"568 361 CURVE",
"597 625 OFFCURVE",
"620 884 OFFCURVE",
"636 1148 CURVE",
"724 1146 OFFCURVE",
"812 1145 OFFCURVE",
"900 1145 CURVE SMOOTH"
);
}
);
width = 1684;
}
);
unicode = 00AE;
},
{
glyphname = macron;
lastChange = "2013-03-07 23:14:31 -0500";
layers = (
{
anchors = (
{
name = _top;
position = "{611, 1108}";
}
);
layerId = "16808965-E153-4B2B-ADB3-00196C646C32";
name = "Regular Italic";
paths = (
{
closed = 1;
nodes = (
"450 1514 OFFCURVE",
"546 1513 OFFCURVE",
"643 1513 CURVE SMOOTH",
"738 1513 OFFCURVE",
"835 1514 OFFCURVE",
"932 1516 CURVE",
"915 1493 OFFCURVE",
"907 1468 OFFCURVE",
"907 1440 CURVE SMOOTH",
"907 1421 OFFCURVE",
"910 1403 OFFCURVE",
"921 1388 CURVE",
"824 1389 OFFCURVE",
"728 1390 OFFCURVE",
"632 1390 CURVE SMOOTH",
"536 1390 OFFCURVE",
"439 1389 OFFCURVE",
"343 1388 CURVE",
"359 1411 OFFCURVE",
"367 1436 OFFCURVE",
"367 1463 CURVE SMOOTH",
"367 1483 OFFCURVE",
"363 1501 OFFCURVE",
"354 1516 CURVE"
);
}
);
width = 894;
}
);
unicode = 00AF;
},
{
glyphname = degree;
lastChange = "2012-10-20 12:59:19 -0400";
layers = (
{
layerId = "16808965-E153-4B2B-ADB3-00196C646C32";
name = "Regular Italic";
paths = (
{
closed = 1;
nodes = (
"548 1441 OFFCURVE",
"497 1421 OFFCURVE",
"459 1388 CURVE SMOOTH",
"421 1355 OFFCURVE",
"395 1307 OFFCURVE",
"395 1251 CURVE SMOOTH",
"395 1200 OFFCURVE",
"415 1162 OFFCURVE",
"447 1135 CURVE SMOOTH",
"479 1107 OFFCURVE",
"522 1092 OFFCURVE",
"569 1091 CURVE SMOOTH",
"622 1091 OFFCURVE",
"674 1111 OFFCURVE",
"711 1146 CURVE SMOOTH",
"748 1181 OFFCURVE",
"773 1229 OFFCURVE",
"773 1286 CURVE SMOOTH",
"773 1334 OFFCURVE",
"753 1372 OFFCURVE",
"721 1400 CURVE SMOOTH",
"689 1427 OFFCURVE",
"646 1441 OFFCURVE",
"601 1441 CURVE SMOOTH"
);
},
{
closed = 1;
nodes = (
"682 1499 OFFCURVE",
"749 1473 OFFCURVE",
"795 1427 CURVE SMOOTH",
"841 1381 OFFCURVE",
"868 1313 OFFCURVE",
"868 1233 CURVE SMOOTH",
"868 1189 OFFCURVE",
"860 1144 OFFCURVE",
"844 1101 CURVE SMOOTH",
"828 1058 OFFCURVE",
"803 1019 OFFCURVE",
"770 987 CURVE SMOOTH",
"710 930 OFFCURVE",
"631 907 OFFCURVE",
"552 907 CURVE SMOOTH",
"473 907 OFFCURVE",
"396 927 OFFCURVE",
"347 986 CURVE SMOOTH",
"304 1035 OFFCURVE",
"289 1097 OFFCURVE",
"289 1165 CURVE SMOOTH",
"289 1208 OFFCURVE",
"296 1254 OFFCURVE",
"312 1298 CURVE SMOOTH",
"327 1342 OFFCURVE",
"351 1383 OFFCURVE",
"386 1415 CURVE",
"445 1475 OFFCURVE",
"526 1499 OFFCURVE",
"606 1499 CURVE SMOOTH"
);
}
);
width = 882;
}
);
unicode = 00B0;
},
{
glyphname = plusminus;
lastChange = "2012-10-20 12:59:19 -0400";
layers = (
{
layerId = "16808965-E153-4B2B-ADB3-00196C646C32";
name = "Regular Italic";
paths = (
{
closed = 1;
nodes = (
"924 1248 LINE",
"909 1123 OFFCURVE",
"897 1000 OFFCURVE",
"885 875 CURVE",
"1061 876 OFFCURVE",
"1235 878 OFFCURVE",
"1412 885 CURVE",
"1409 860 OFFCURVE",
"1406 835 OFFCURVE",
"1403 811 CURVE SMOOTH",
"1400 786 OFFCURVE",
"1397 761 OFFCURVE",
"1395 736 CURVE",
"1220 733 OFFCURVE",
"1048 732 OFFCURVE",
"873 732 CURVE",
"868 669 OFFCURVE",
"862 608 OFFCURVE",
"857 547 CURVE SMOOTH",
"852 486 OFFCURVE",
"846 424 OFFCURVE",
"841 361 CURVE",
"700 361 LINE",
"712 486 OFFCURVE",
"723 607 OFFCURVE",
"734 732 CURVE",
"559 732 OFFCURVE",
"387 733 OFFCURVE",
"212 737 CURVE",
"216 788 OFFCURVE",
"219 837 OFFCURVE",
"221 886 CURVE",
"396 878 OFFCURVE",
"570 876 OFFCURVE",
"746 875 CURVE",
"751 938 OFFCURVE",
"756 1000 OFFCURVE",
"761 1062 CURVE SMOOTH",
"766 1123 OFFCURVE",
"771 1185 OFFCURVE",
"776 1248 CURVE"
);
},
{
closed = 1;
nodes = (
"352 192 OFFCURVE",
"556 199 OFFCURVE",
"763 199 CURVE SMOOTH",
"964 199 OFFCURVE",
"1165 193 OFFCURVE",
"1365 181 CURVE",
"1366 124 OFFCURVE",
"1368 67 OFFCURVE",
"1372 10 CURVE",
"1165 26 OFFCURVE",
"957 34 OFFCURVE",
"748 34 CURVE SMOOTH",
"535 34 OFFCURVE",
"323 26 OFFCURVE",
"110 10 CURVE",
"123 67 OFFCURVE",
"135 124 OFFCURVE",
"144 181 CURVE"
);
}
);
width = 1638;
}
);
unicode = 00B1;
},
